<?xml version="1.0" encoding="UTF-8" standalone="no"?>
<!-- Created with Inkscape (http://www.inkscape.org/) -->
<svg
   xmlns:dc="http://purl.org/dc/elements/1.1/"
   xmlns:cc="http://web.resource.org/cc/"
   xmlns:rdf="http://www.w3.org/1999/02/22-rdf-syntax-ns#"
   xmlns:svg="http://www.w3.org/2000/svg"
   xmlns="http://www.w3.org/2000/svg"
   xmlns:sodipodi="http://sodipodi.sourceforge.net/DTD/sodipodi-0.dtd"
   xmlns:inkscape="http://www.inkscape.org/namespaces/inkscape"
   width="640px"
   height="480px"
   id="svg3243"
   sodipodi:version="0.32"
   inkscape:version="0.44.1"
   sodipodi:docbase="/home/ruffy"
   sodipodi:docname="geekscottes_032.svg"
   inkscape:export-filename="geekscottes_032.png"
   inkscape:export-xdpi="90"
   inkscape:export-ydpi="90">
  <defs
     id="defs3245" />
  <sodipodi:namedview
     id="base"
     pagecolor="#ffffff"
     bordercolor="#666666"
     borderopacity="1.0"
     inkscape:pageopacity="0.0"
     inkscape:pageshadow="2"
     inkscape:zoom="0.78328587"
     inkscape:cx="441.71613"
     inkscape:cy="171.88389"
     inkscape:current-layer="layer1"
     inkscape:document-units="px"
     inkscape:window-width="1152"
     inkscape:window-height="788"
     inkscape:window-x="0"
     inkscape:window-y="51"
     showguides="true"
     inkscape:guide-bbox="true" />
  <metadata
     id="metadata3248">
    <rdf:RDF>
      <cc:Work
         rdf:about="">
        <dc:format>image/svg+xml</dc:format>
        <dc:type
           rdf:resource="http://purl.org/dc/dcmitype/StillImage" />
        <dc:title>Maintenance de noël</dc:title>
        <dc:date>2006-12-19</dc:date>
        <dc:creator>
          <cc:Agent>
            <dc:title>Johann &quot;nojhan&quot; Dréo</dc:title>
          </cc:Agent>
        </dc:creator>
        <dc:language>fr-FR</dc:language>
        <cc:license
           rdf:resource="http://creativecommons.org/licenses/by-sa/2.0/" />
      </cc:Work>
      <cc:License
         rdf:about="http://creativecommons.org/licenses/by-sa/2.0/">
        <cc:permits
           rdf:resource="http://web.resource.org/cc/Reproduction" />
        <cc:permits
           rdf:resource="http://web.resource.org/cc/Distribution" />
        <cc:requires
           rdf:resource="http://web.resource.org/cc/Notice" />
        <cc:requires
           rdf:resource="http://web.resource.org/cc/Attribution" />
        <cc:permits
           rdf:resource="http://web.resource.org/cc/DerivativeWorks" />
        <cc:requires
           rdf:resource="http://web.resource.org/cc/ShareAlike" />
      </cc:License>
    </rdf:RDF>
  </metadata>
  <g
     id="layer1"
     inkscape:label="Layer 1"
     inkscape:groupmode="layer">
    <g
       inkscape:label="Layer 1"
       id="g5243"
       transform="matrix(0.801784,0,0,0.801784,592.1696,-238.0654)" />
    <g
       id="layer2"
       inkscape:label="vetements"
       transform="matrix(0.801784,0,0,0.801784,592.1696,-238.0654)" />
    <path
       style="color:black;fill:#8970a8;fill-opacity:1;fill-rule:nonzero;stroke:black;stroke-width:2.48983932;stroke-linecap:butt;stroke-linejoin:round;marker:none;marker-start:none;marker-mid:none;marker-end:none;stroke-miterlimit:4;stroke-dasharray:none;stroke-dashoffset:0;stroke-opacity:1;visibility:visible;display:block"
       d="M 433.81138,482.56067 C 439.36979,460.61166 450.48132,411.96585 449.97105,390.94271 C 449.43714,368.94548 432.89013,346.95586 430.41202,325.31469 C 428.12595,305.35051 436.29538,273.06617 461.33609,267.88064 C 467.37072,266.63097 472.74321,266.08479 477.55918,266.11753 C 477.67414,266.11832 477.78731,266.11609 477.90165,266.11753 C 507.05655,266.48513 518.60454,287.09577 528.23256,303.85302 C 540.2274,324.72966 553.82587,365.39276 557.88821,390.94271 C 561.76954,415.35423 561.96933,457.2083 562.58136,482.56067"
       id="path1080"
       sodipodi:nodetypes="csssscssc" />
    <path
       style="color:black;fill:#fbebff;fill-opacity:1;fill-rule:nonzero;stroke:none;stroke-width:1.25;stroke-linecap:round;stroke-linejoin:round;marker:none;marker-start:none;marker-mid:none;marker-end:none;stroke-miterlimit:4;stroke-dashoffset:0;stroke-opacity:1;visibility:visible;display:block"
       d="M 471.26783,361.84518 C 519.78665,361.89039 519.36834,450.57269 518.13593,482.56067 L 434.3695,482.56067 C 439.89698,460.78284 450.93989,412.70464 451.23947,391.57693 C 451.33662,384.72541 447.76499,363.1099 468.90856,361.92127 C 469.7066,361.87642 470.49481,361.84444 471.26783,361.84518 z "
       id="path1702" />
    <path
       style="color:black;fill:#ff8000;fill-opacity:1;fill-rule:nonzero;stroke:black;stroke-width:3.81935954;stroke-linecap:round;stroke-linejoin:round;marker:none;marker-start:none;marker-mid:none;marker-end:none;stroke-miterlimit:4;stroke-dashoffset:0;stroke-opacity:1;visibility:visible;display:block"
       d="M 456.15132,337.26333 C 445.50362,342.90041 432.61025,353.7162 429.11466,369.14999 C 442.18867,367.09843 454.75582,361.20794 467.82982,359.15634"
       id="path1703"
       sodipodi:nodetypes="ccc" />
    <path
       style="fill:white;fill-opacity:1;stroke:black;stroke-width:2.53119493;stroke-linecap:round;stroke-linejoin:round;stroke-miterlimit:4;stroke-dashoffset:0;stroke-opacity:1"
       d="M 431.83972,316.76455 C 431.83972,325.81172 436.73481,333.15435 442.76625,333.15435 C 448.7977,333.15435 453.69279,325.81172 453.69279,316.76455 C 453.69279,307.71738 448.56333,309.281 442.53188,309.281 C 436.50043,309.281 431.83972,307.71738 431.83972,316.76455 z "
       id="path3276"
       sodipodi:nodetypes="csssc" />
    <path
       sodipodi:type="arc"
       style="fill:black;fill-opacity:1;fill-rule:nonzero;stroke:#04094e;stroke-width:1.25;stroke-linecap:round;stroke-linejoin:round;stroke-miterlimit:4;stroke-dashoffset:0;stroke-opacity:1"
       id="path1709"
       sodipodi:cx="105.34409"
       sodipodi:cy="101.60275"
       sodipodi:rx="1.1088852"
       sodipodi:ry="1.1088852"
       d="M 106.45298 101.60275 A 1.1088852 1.1088852 0 1 1  104.23521,101.60275 A 1.1088852 1.1088852 0 1 1  106.45298 101.60275 z"
       transform="matrix(1.991868,0,0,1.991868,227.2875,113.4365)" />
    <path
       style="color:black;fill:#8970a8;fill-opacity:1;fill-rule:nonzero;stroke:black;stroke-width:2.48983407;stroke-linecap:round;stroke-linejoin:round;marker:none;marker-start:none;marker-mid:none;marker-end:none;stroke-miterlimit:4;stroke-dashoffset:0;stroke-opacity:1;visibility:visible;display:block"
       d="M 550.60989,382.07689 C 555.43645,396.50624 558.67784,421.35606 550.47237,432.66096 C 541.50532,445.01514 510.53142,448.49291 496.87384,458.24442 C 491.97795,461.74009 490.65705,471.47439 488.17766,471.40818 C 485.29586,471.33122 480.06289,458.11339 483.00889,452.62471 C 490.1126,439.38966 519.43969,420.82364 520.99514,415.45691 C 522.46868,410.37279 516.4703,393.82677 509.38283,383.84018"
       id="path1718"
       sodipodi:nodetypes="cssssss"
       inkscape:transform-center-y="35.733616"
       inkscape:transform-center-x="-0.20079" />
    <path
       style="fill:white;fill-opacity:1;stroke:black;stroke-width:2.53119493;stroke-linecap:round;stroke-linejoin:round;stroke-miterlimit:4;stroke-dashoffset:0;stroke-opacity:1"
       d="M 458.86852,317.05215 C 458.86852,326.09932 463.76361,333.44195 469.79505,333.44195 C 475.8265,333.44195 480.72159,326.09932 480.72159,317.05215 C 480.72159,308.00498 476.29525,309.33422 470.26381,309.33422 C 464.23236,309.33422 458.86852,308.00498 458.86852,317.05215 z "
       id="path3274"
       sodipodi:nodetypes="csssc" />
    <path
       sodipodi:type="arc"
       style="fill:black;fill-opacity:1;fill-rule:nonzero;stroke:#04094e;stroke-width:1.25;stroke-linecap:round;stroke-linejoin:round;stroke-miterlimit:4;stroke-dashoffset:0;stroke-opacity:1"
       id="path1710"
       sodipodi:cx="105.34409"
       sodipodi:cy="101.60275"
       sodipodi:rx="1.1088852"
       sodipodi:ry="1.1088852"
       d="M 106.45298 101.60275 A 1.1088852 1.1088852 0 1 1  104.23521,101.60275 A 1.1088852 1.1088852 0 1 1  106.45298 101.60275 z"
       transform="matrix(1.991868,0,0,1.991868,254.4596,113.2994)" />
    <g
       id="g2460"
       transform="matrix(-0.991003,0.133838,0.133838,0.991003,602.6565,-24.94535)">
      <path
         sodipodi:nodetypes="cssccc"
         id="path3729"
         d="M 202.56954,276.36124 C 195.77044,262.76304 192.24033,245.63473 182.17223,235.56663 C 173.96774,227.36214 159.02574,219.64008 147.75178,221.54348 C 126.30506,225.16435 105.25738,241.94079 84.01018,252.13944 C 101.43288,250.8646 118.85558,249.58978 136.27829,248.31494 C 132.02885,261.91315 127.77941,275.51135 123.52997,289.10956"
         style="fill:#da0000;fill-opacity:1;fill-rule:evenodd;stroke:black;stroke-width:2.58684611;stroke-linecap:butt;stroke-linejoin:miter;stroke-miterlimit:4;stroke-dasharray:none;stroke-opacity:1" />
      <path
         sodipodi:nodetypes="ccccc"
         id="path3727"
         d="M 117.15582,301.85788 C 125.22975,314.6062 203.41943,305.68238 214.04303,294.20889 C 214.04303,285.28507 214.04303,276.36124 214.04303,267.43743 C 201.71964,260.63833 123.10502,269.13719 112.05648,273.81158 C 113.75626,283.16036 115.45604,292.50911 117.15582,301.85788 z "
         style="fill:white;fill-opacity:1;fill-rule:evenodd;stroke:black;stroke-width:2.58684611;stroke-linecap:butt;stroke-linejoin:miter;stroke-miterlimit:4;stroke-dasharray:none;stroke-opacity:1" />
      <path
         transform="matrix(0.239229,0,0,0.243987,38.71244,197.0941)"
         d="M 239.50719 236.0575 A 58.151951 59.63039 0 1 1  123.20329,236.0575 A 58.151951 59.63039 0 1 1  239.50719 236.0575 z"
         sodipodi:ry="59.63039"
         sodipodi:rx="58.151951"
         sodipodi:cy="236.0575"
         sodipodi:cx="181.35524"
         id="path3731"
         style="fill:#fafaff;fill-opacity:1;stroke:black;stroke-width:10.70730019;stroke-linecap:round;stroke-linejoin:round;stroke-miterlimit:4;stroke-dasharray:none;stroke-dashoffset:0;stroke-opacity:1"
         sodipodi:type="arc" />
    </g>
    <path
       style="color:black;fill:#4bbe28;fill-opacity:1;fill-rule:nonzero;stroke:black;stroke-width:3.05046391;stroke-linecap:round;stroke-linejoin:round;marker:none;marker-start:none;marker-mid:none;marker-end:none;stroke-miterlimit:4;stroke-dasharray:none;stroke-dashoffset:0;stroke-opacity:1;visibility:visible;display:block"
       d="M 130.74059,367.55258 C 120.48436,366.73205 105.30521,360.98863 99.971977,338.63013 C 65.306037,346.01458 60.177977,366.93719 54.434517,387.24443 C 65.716327,370.62943 70.844427,371.86018 72.280277,388.47523 C 79.254467,373.29603 84.997957,372.27042 89.510657,387.24446 C 92.997767,373.09094 99.561717,373.70627 106.7411,389.09056 C 102.84373,374.32163 105.71547,375.55239 106.7411,368.78331 C 121.09973,374.52677 130.53542,381.50098 133.20204,393.39819"
       id="path1919"
       sodipodi:nodetypes="cccccccc" />
    <path
       style="color:black;fill:#4bbe28;fill-opacity:1;fill-rule:nonzero;stroke:black;stroke-width:3.05046391;stroke-linecap:round;stroke-linejoin:round;marker:none;marker-start:none;marker-mid:none;marker-end:none;stroke-miterlimit:4;stroke-dasharray:none;stroke-dashoffset:0;stroke-opacity:1;visibility:visible;display:block"
       d="M 107.35649,369.091 C 97.100267,368.27051 81.921147,362.52708 76.587887,340.16858 C 41.921977,347.55302 36.793907,368.47564 31.050447,388.78289 C 42.332267,372.16787 47.460337,373.39864 48.896187,390.01368 C 55.870407,374.83449 61.613887,373.80886 66.126597,388.78292 C 69.613707,374.62939 76.177657,375.24472 83.356997,390.62901 C 79.459637,375.86009 82.331377,377.09084 83.356997,370.32176 C 97.715627,376.06522 107.15133,383.03943 109.81794,394.93661"
       id="path1920"
       sodipodi:nodetypes="cccccccc" />
    <path
       style="color:black;fill:#4bbe28;fill-opacity:1;fill-rule:nonzero;stroke:black;stroke-width:3.05046391;stroke-linecap:round;stroke-linejoin:round;marker:none;marker-start:none;marker-mid:none;marker-end:none;stroke-miterlimit:4;stroke-dasharray:none;stroke-dashoffset:0;stroke-opacity:1;visibility:visible;display:block"
       d="M 124.58683,297.70796 C 116.79216,309.60514 111.21262,317.3442 106.74104,330.32265 C 102.80258,341.75392 103.72605,351.53099 104.89492,363.55271 C 105.70608,371.89482 106.10988,378.63191 108.58722,386.9368 C 111.37585,396.2853 111.00095,407.199 109.20258,417.08998 C 107.97183,423.85906 103.66422,436.78187 94.433647,444.16631 C 85.203087,451.55076 67.357317,457.70448 51.973027,462.62745 C 33.677477,468.48206 21.90255,460.08138 5.6541201,461.2136 C 0.064390134,461.60311 -1.2003799,480.66577 4.4234001,481.52084 C 33.875787,485.99897 64.485577,486.83207 99.971977,485.39618 C 99.971977,485.39618 163.6673,493.18798 179.97026,483.55006 C 193.33998,475.64624 202.12361,459.5506 195.96991,434.93575 C 192.13398,419.59213 179.36072,408.6206 163.35522,400.47494 C 154.25573,395.84397 148.88199,385.08801 144.27872,376.47545 C 142.52317,373.19086 142.60058,367.86004 144.27872,364.78343 C 146.29282,361.09095 151.66317,359.03994 155.35541,356.1682"
       id="path1921"
       sodipodi:nodetypes="csssssssssssssss" />
    <path
       style="color:black;fill:none;fill-opacity:1;fill-rule:nonzero;stroke:black;stroke-width:2.11033344;stroke-linecap:round;stroke-linejoin:round;marker:none;marker-start:none;marker-mid:none;marker-end:none;stroke-miterlimit:4;stroke-dashoffset:0;stroke-opacity:1;visibility:visible;display:block"
       d="M 223.86818,312.29807 C 228.48345,309.83656 233.66896,318.36184 231.6031,320.67687 C 229.40651,323.13838 225.20282,322.90405 224.44074,319.59286 C 223.61124,315.98884 228.1615,314.96331 227.86809,319.10996"
       id="path1923"
       sodipodi:nodetypes="czzz" />
    <path
       style="color:black;fill:white;fill-opacity:1;fill-rule:nonzero;stroke:black;stroke-width:1.22440422;stroke-linecap:round;stroke-linejoin:round;marker:none;marker-start:none;marker-mid:none;marker-end:none;stroke-miterlimit:4;stroke-dashoffset:0;stroke-opacity:1;visibility:visible;display:block"
       d="M 231.30344,344.23929 C 231.41874,349.00371 229.11244,352.62466 226.4602,356.81736 C 225.65298,351.10007 225.53762,347.09792 223.00071,343.95345"
       id="path1925"
       sodipodi:nodetypes="ccc" />
    <path
       style="color:black;fill:#4bbe28;fill-opacity:1;fill-rule:nonzero;stroke:black;stroke-width:3.05046391;stroke-linecap:round;stroke-linejoin:round;marker:none;marker-start:none;marker-mid:none;marker-end:none;stroke-miterlimit:4;stroke-dasharray:none;stroke-dashoffset:0;stroke-opacity:1;visibility:visible;display:block"
       d="M 143.68375,343.88117 C 153.80135,353.27611 175.99656,355.90282 184.87693,355.80554 C 189.55571,355.75427 220.73581,354.70587 228.23819,346.04924 C 234.82819,338.44541 229.67008,319.10741 227.15415,314.61233 C 221.0676,303.73777 196.72965,308.85485 175.12065,300.51994 C 171.43559,299.09855 173.9346,275.45982 172.95258,271.25107 C 171.40522,264.6195 168.61644,258.24271 166.44839,251.73849 C 164.19,258.15236 164.09272,267.31279 159.67319,270.98007 C 155.60115,274.35901 145.37669,275.69351 140.97364,272.87715 C 135.3494,269.27965 133.38541,258.78471 129.5913,251.73853 C 127.78459,258.96539 125.80591,266.15359 124.17117,273.41915 C 122.55381,280.60735 113.99281,288.83798 114.41487,296.18379 C 115.75168,319.45059 105.90694,352.97339 110.49072,353.45356 C 116.83361,354.11794 128.1398,348.13729 131.75937,352.55343 C 137.04997,359.0083 170.66001,367.15925 179.45677,368.81389 C 186.52644,370.14373 213.19539,366.71627 223.90206,361.22569 C 227.28781,359.48941 226.79281,352.91479 226.07014,348.21732"
       id="path1926"
       sodipodi:nodetypes="cssssscsscsssssss" />
    <path
       sodipodi:type="arc"
       style="fill:white;fill-opacity:1;fill-rule:nonzero;stroke:black;stroke-width:1.02666914;stroke-linecap:round;stroke-linejoin:round;stroke-miterlimit:4;stroke-dashoffset:0;stroke-opacity:1"
       id="path1927"
       sodipodi:cx="171.92155"
       sodipodi:cy="273.80099"
       sodipodi:rx="4.0131083"
       sodipodi:ry="5.1367784"
       d="M 175.93466 273.80099 A 4.0131083 5.1367784 0 1 1  167.90845,273.80099 A 4.0131083 5.1367784 0 1 1  175.93466 273.80099 z"
       transform="matrix(-2.807248,0,0,2.453636,650.3079,-379.0706)" />
    <path
       sodipodi:type="arc"
       style="fill:white;fill-opacity:1;fill-rule:nonzero;stroke:black;stroke-width:1.02666914;stroke-linecap:round;stroke-linejoin:round;stroke-miterlimit:4;stroke-dashoffset:0;stroke-opacity:1"
       id="path1928"
       sodipodi:cx="171.92155"
       sodipodi:cy="273.80099"
       sodipodi:rx="4.0131083"
       sodipodi:ry="5.1367784"
       d="M 175.93466 273.80099 A 4.0131083 5.1367784 0 1 1  167.90845,273.80099 A 4.0131083 5.1367784 0 1 1  175.93466 273.80099 z"
       transform="matrix(-3.376533,0,0,3.376533,727.4343,-633.7344)" />
    <path
       style="color:black;fill:white;fill-opacity:1;fill-rule:nonzero;stroke:black;stroke-width:1.22440422;stroke-linecap:round;stroke-linejoin:round;marker:none;marker-start:none;marker-mid:none;marker-end:none;stroke-miterlimit:4;stroke-dashoffset:0;stroke-opacity:1;visibility:visible;display:block"
       d="M 188.4907,356.70561 C 188.60602,361.47006 186.2997,365.09101 183.64749,369.28368 C 182.84023,363.56639 182.72491,359.56426 180.18797,356.41976"
       id="path1929"
       sodipodi:nodetypes="ccc" />
    <path
       style="color:black;fill:none;fill-opacity:1;fill-rule:nonzero;stroke:black;stroke-width:2.11033344;stroke-linecap:round;stroke-linejoin:round;marker:none;marker-start:none;marker-mid:none;marker-end:none;stroke-miterlimit:4;stroke-dashoffset:0;stroke-opacity:1;visibility:visible;display:block"
       d="M 199.73142,319.54958 C 204.34669,317.08807 209.53221,325.61334 207.46634,327.92838 C 205.26975,330.38989 201.06607,330.15558 200.30399,326.84437 C 199.47452,323.24035 204.02474,322.21481 203.73133,326.36147"
       id="path1930"
       sodipodi:nodetypes="czzz" />
    <path
       sodipodi:type="arc"
       style="fill:black;fill-opacity:1;fill-rule:nonzero;stroke:red;stroke-width:1;stroke-linecap:round;stroke-linejoin:round;stroke-miterlimit:4;stroke-dashoffset:0;stroke-opacity:1"
       id="path1931"
       sodipodi:cx="171.1322"
       sodipodi:cy="273.75754"
       sodipodi:rx="1.0934966"
       sodipodi:ry="1.6402447"
       d="M 172.2257 273.75754 A 1.0934966 1.6402447 0 1 1  170.03871,273.75754 A 1.0934966 1.6402447 0 1 1  172.2257 273.75754 z"
       transform="matrix(-3.376533,0,0,3.376533,747.486,-626.1304)" />
    <path
       sodipodi:type="arc"
       style="fill:black;fill-opacity:1;fill-rule:nonzero;stroke:red;stroke-width:1;stroke-linecap:round;stroke-linejoin:round;stroke-miterlimit:4;stroke-dashoffset:0;stroke-opacity:1"
       id="path1932"
       sodipodi:cx="171.1322"
       sodipodi:cy="273.75754"
       sodipodi:rx="1.0934966"
       sodipodi:ry="1.6402447"
       d="M 172.2257 273.75754 A 1.0934966 1.6402447 0 1 1  170.03871,273.75754 A 1.0934966 1.6402447 0 1 1  172.2257 273.75754 z"
       transform="matrix(-3.376533,0,0,3.376533,729.4964,-623.8849)" />
    <path
       style="color:black;fill:none;fill-opacity:1;fill-rule:nonzero;stroke:black;stroke-width:2.11033344;stroke-linecap:round;stroke-linejoin:round;marker:none;marker-start:none;marker-mid:none;marker-end:none;stroke-miterlimit:4;stroke-dashoffset:0;stroke-opacity:1;visibility:visible;display:block"
       d="M 83.356967,388.78292 C 74.331507,374.014 71.459787,366.62955 72.280277,351.24527"
       id="path1935"
       sodipodi:nodetypes="cc" />
    <path
       style="color:black;fill:none;fill-opacity:1;fill-rule:nonzero;stroke:black;stroke-width:2.11033344;stroke-linecap:round;stroke-linejoin:round;marker:none;marker-start:none;marker-mid:none;marker-end:none;stroke-miterlimit:4;stroke-dashoffset:0;stroke-opacity:1;visibility:visible;display:block"
       d="M 66.469377,390.29343 C 63.344807,373.26941 63.314247,365.34627 69.600677,351.28104"
       id="path1946"
       sodipodi:nodetypes="cc" />
    <path
       style="color:black;fill:none;fill-opacity:1;fill-rule:nonzero;stroke:black;stroke-width:2.11033344;stroke-linecap:round;stroke-linejoin:round;marker:none;marker-start:none;marker-mid:none;marker-end:none;stroke-miterlimit:4;stroke-dashoffset:0;stroke-opacity:1;visibility:visible;display:block"
       d="M 49.882247,387.60445 C 51.169047,370.34394 53.145227,362.67118 62.787497,350.65551"
       id="path1947"
       sodipodi:nodetypes="cc" />
    <path
       style="color:black;fill:red;fill-opacity:1;fill-rule:nonzero;stroke:black;stroke-width:2.11033344;stroke-linecap:round;stroke-linejoin:round;marker:none;marker-start:none;marker-mid:none;marker-end:none;stroke-miterlimit:4;stroke-dashoffset:0;stroke-opacity:1;visibility:visible;display:block"
       d="M 104.27958,349.39914 C 102.33165,348.22461 103.89826,345.20854 102.43347,344.47618 C 100.20602,343.36243 96.869617,343.56816 96.895137,346.3223 C 96.943947,351.59208 95.462577,352.1537 97.510537,354.93747 C 98.752577,356.62583 101.1726,353.26629 103.66422,354.9375 C 117.99275,364.5481 133.88944,388.4227 144.89409,391.24437 C 149.88909,392.52514 151.02287,374.92877 151.6632,367.24488 C 151.84336,365.08284 148.37631,361.70658 147.35557,361.70658 C 146.53018,361.70658 147.71699,367.69978 146.12484,367.24488 C 133.35834,363.59734 116.28002,356.63468 104.27958,349.39914 z "
       id="path1948"
       sodipodi:nodetypes="csssssssss" />
    <text
       xml:space="preserve"
       style="font-size:11.1428175px;font-style:normal;font-variant:normal;font-weight:bold;font-stretch:normal;line-height:100%;writing-mode:lr-tb;text-anchor:start;fill:white;fill-opacity:1;stroke:none;stroke-width:1pt;stroke-linecap:butt;stroke-linejoin:miter;stroke-opacity:1;font-family:Bitstream Vera Sans"
       x="-180.36388"
       y="315.16876"
       id="text1949"
       sodipodi:linespacing="100%"
       transform="scale(-0.82502,1.212092)"><tspan
         sodipodi:role="line"
         id="tspan1950"
         x="-180.36388"
         y="315.16876">K</tspan></text>
    <path
       style="color:black;fill:#b7be28;fill-opacity:1;fill-rule:nonzero;stroke:none;stroke-width:1.25;stroke-linecap:round;stroke-linejoin:round;marker:none;marker-start:none;marker-mid:none;marker-end:none;stroke-miterlimit:4;stroke-dashoffset:0;stroke-opacity:1;visibility:visible;display:block"
       d="M 171.97045,409.09014 C 165.6116,407.85939 160.48351,407.85939 154.74002,410.93626 C 156.79127,413.808 158.84252,416.67975 160.89377,419.55149 C 164.58601,416.06436 172.58582,415.65412 179.3549,416.47462 C 176.89339,414.01313 174.43194,411.55162 171.97045,409.09014 z "
       id="path1952"
       sodipodi:nodetypes="ccccc" />
    <path
       style="color:black;fill:#b7be28;fill-opacity:1;fill-rule:nonzero;stroke:none;stroke-width:1.25;stroke-linecap:round;stroke-linejoin:round;marker:none;marker-start:none;marker-mid:none;marker-end:none;stroke-miterlimit:4;stroke-dashoffset:0;stroke-opacity:1;visibility:visible;display:block"
       d="M 189.79311,428.24342 C 185.65513,426.17986 179.13899,426.17986 171.45222,429.5343 C 173.50347,432.40604 174.44427,434.16737 175.10745,437.59432 C 181.85342,434.66243 188.74281,434.52978 193.29099,435.6279 C 192.21755,432.33358 192.25459,430.70493 189.79311,428.24342 z "
       id="path1953"
       sodipodi:nodetypes="ccccc" />
    <path
       style="color:black;fill:#b7be28;fill-opacity:1;fill-rule:nonzero;stroke:none;stroke-width:1.25;stroke-linecap:round;stroke-linejoin:round;marker:none;marker-start:none;marker-mid:none;marker-end:none;stroke-miterlimit:4;stroke-dashoffset:0;stroke-opacity:1;visibility:visible;display:block"
       d="M 194.47543,449.16606 C 191.4479,447.10248 186.31984,446.82485 176.41217,449.34649 C 177.63058,452.77347 178.29379,455.92284 178.12414,459.62738 C 187.64619,454.7522 192.03709,455.17481 194.64202,456.55054 C 195.23422,453.53379 196.10409,452.18278 194.47543,449.16606 z "
       id="path1954"
       sodipodi:nodetypes="ccccc" />
    <path
       style="color:black;fill:#b7be28;fill-opacity:1;fill-rule:nonzero;stroke:none;stroke-width:1.25;stroke-linecap:round;stroke-linejoin:round;marker:none;marker-start:none;marker-mid:none;marker-end:none;stroke-miterlimit:4;stroke-dashoffset:0;stroke-opacity:1;visibility:visible;display:block"
       d="M 188.26159,470.3663 C 182.18033,470.52361 179.82837,471.07879 174.91771,471.37956 C 175.02572,473.97371 173.74558,474.62455 173.57596,478.05151 C 177.82344,477.89572 180.27103,478.0407 184.26396,476.3627 C 185.41145,474.45643 188.22458,472.55016 188.26159,470.3663 z "
       id="path1955"
       sodipodi:nodetypes="ccccc" />
    <path
       style="color:black;fill:#b7be28;fill-opacity:1;fill-rule:nonzero;stroke:none;stroke-width:1.25;stroke-linecap:round;stroke-linejoin:round;marker:none;marker-start:none;marker-mid:none;marker-end:none;stroke-miterlimit:4;stroke-dashoffset:0;stroke-opacity:1;visibility:visible;display:block"
       d="M 151.6632,395.01336 C 147.52522,393.50502 146.56131,393.22739 140.81785,396.30424 C 142.86907,399.17599 145.75315,400.65972 147.8044,403.53146 C 153.99513,400.32195 152.27857,401.57734 159.04764,402.39784 C 156.58613,399.93635 154.12468,397.47487 151.6632,395.01336 z "
       id="path1956"
       sodipodi:nodetypes="ccccc" />
    <path
       style="color:black;fill:none;fill-opacity:1;fill-rule:nonzero;stroke:black;stroke-width:3.75203085;stroke-linecap:round;stroke-linejoin:round;marker:none;marker-start:none;marker-mid:none;marker-end:none;stroke-miterlimit:4;stroke-dashoffset:0;stroke-opacity:1;visibility:visible;display:block"
       d="M 148.16357,260.28187 C 141.09667,259.16604 134.02977,264.37323 133.65784,270.3243"
       id="path2696"
       sodipodi:nodetypes="cc" />
    <path
       style="color:black;fill:none;fill-opacity:1;fill-rule:nonzero;stroke:black;stroke-width:3.75203085;stroke-linecap:round;stroke-linejoin:round;marker:none;marker-start:none;marker-mid:none;marker-end:none;stroke-miterlimit:4;stroke-dashoffset:0;stroke-opacity:1;visibility:visible;display:block"
       d="M 168.9923,272.55595 C 174.94338,273.67178 178.66278,277.76314 180.15057,282.59838"
       id="path2697"
       sodipodi:nodetypes="cc" />
    <path
       style="fill:white;fill-opacity:1;fill-rule:evenodd;stroke:black;stroke-width:1;stroke-linecap:butt;stroke-linejoin:miter;stroke-miterlimit:4;stroke-dasharray:none;stroke-opacity:1"
       d="M 494.54874,123.23552 C 403.55927,123.28698 388.5174,123.16799 387.68096,145.38038 C 386.99729,163.53578 401.44411,166.67488 406.02542,168.78093 C 407.19924,172.1011 479.66963,175.96147 482.71807,175.60444 C 489.38139,174.82405 487.57948,183.96283 490.07354,196.1682 C 500.97019,184.86963 491.60696,174.77395 516.09215,174.54628 C 575.07301,174.0079 595.92558,170.66976 598.03141,150.51093 C 600.61259,125.80153 577.78025,123.18788 494.54874,123.23552 z "
       id="path2194"
       sodipodi:nodetypes="cscscsss" />
    <text
       xml:space="preserve"
       style="font-size:21.04759598px;font-style:normal;font-variant:normal;font-weight:normal;font-stretch:normal;text-align:center;line-height:125%;writing-mode:lr-tb;text-anchor:middle;fill:black;fill-opacity:1;stroke:none;stroke-width:1px;stroke-linecap:butt;stroke-linejoin:miter;stroke-opacity:1;font-family:Bitstream Vera Sans"
       x="496.15878"
       y="155.33009"
       id="text2196"
       sodipodi:linespacing="125%"><tspan
         sodipodi:role="line"
         x="496.15878"
         y="155.33009"
         id="tspan15671">Et joyeux Noël !</tspan></text>
    <path
       style="fill:#fafad2;fill-opacity:1;fill-rule:evenodd;stroke:black;stroke-width:1.29342306px;stroke-linecap:butt;stroke-linejoin:miter;stroke-opacity:1"
       d="M 188.02048,461.86935 C 188.02048,461.86935 180.71225,439.05961 185.38521,422.95612 C 190.05817,406.85264 214.79194,394.65295 214.79194,394.65295 C 229.75989,394.89223 246.76111,399.25381 265.79562,407.73768 C 256.52473,416.38433 241.51714,423.13307 237.98295,433.67763 C 234.49877,444.07304 242.48798,458.26424 244.74051,470.55756 C 227.59288,464.03413 205.993,462.07222 188.02048,461.86935 z "
       id="path2840"
       sodipodi:nodetypes="csccscc" />
    <g
       id="g2320"
       inkscape:transform-center-y="21.539633"
       inkscape:transform-center-x="-42.811698"
       transform="matrix(-0.48911,0.872222,0.872222,0.48911,24.85959,-242.8664)">
      <path
         sodipodi:nodetypes="ccc"
         id="path1922"
         d="M 486.61309,476.59378 C 486.49777,481.35819 488.8041,484.97918 491.45633,489.17184 C 492.26356,483.45456 492.37888,479.45244 494.91582,476.30794"
         style="color:black;fill:white;fill-opacity:1;fill-rule:nonzero;stroke:black;stroke-width:2.95446658;stroke-linecap:round;stroke-linejoin:round;marker:none;marker-start:none;marker-mid:none;marker-end:none;stroke-miterlimit:4;stroke-dashoffset:0;stroke-opacity:1;visibility:visible;display:block" />
      <path
         sodipodi:nodetypes="ccc"
         id="path1924"
         d="M 495.84366,476.59378 C 495.72834,481.35819 498.03466,484.97918 500.6869,489.17184 C 501.49413,483.45456 501.60945,479.45244 504.14639,476.30794"
         style="color:black;fill:white;fill-opacity:1;fill-rule:nonzero;stroke:black;stroke-width:2.95446658;stroke-linecap:round;stroke-linejoin:round;marker:none;marker-start:none;marker-mid:none;marker-end:none;stroke-miterlimit:4;stroke-dashoffset:0;stroke-opacity:1;visibility:visible;display:block" />
      <path
         sodipodi:nodetypes="ccc"
         id="path1933"
         d="M 505.83196,476.34044 C 507.20217,480.90501 510.51908,483.63055 514.3424,486.79207 C 513.33388,481.10684 512.20047,477.2668 513.63522,473.48989"
         style="color:black;fill:white;fill-opacity:1;fill-rule:nonzero;stroke:black;stroke-width:2.95446658;stroke-linecap:round;stroke-linejoin:round;marker:none;marker-start:none;marker-mid:none;marker-end:none;stroke-miterlimit:4;stroke-dashoffset:0;stroke-opacity:1;visibility:visible;display:block" />
      <path
         sodipodi:nodetypes="csssssssssssss"
         id="path1934"
         d="M 514.38328,395.92455 C 518.29626,404.68188 520.65911,419.41655 520.20493,423.61661 C 519.75586,427.76927 515.90739,446.0446 511.06964,455.04821 C 508.52294,459.78786 513.12086,466.94538 514.14648,472.89395 C 514.14648,472.89395 506.76201,478.4323 505.53128,474.74007 C 504.30055,471.04782 504.30055,467.35562 504.30055,467.35562 C 504.09543,469.81713 504.24058,474.44879 503.0698,475.97082 C 502.18934,477.1154 496.56612,477.62715 495.68533,476.58619 C 494.30977,474.96053 495.79335,466.8436 495.06996,466.74026 C 494.3575,466.63847 495.13363,474.59155 493.22387,475.97082 C 491.44138,477.25816 486.4082,476.69562 486.45476,474.74007 C 486.61333,468.08039 489.83573,453.2466 493.8392,450.12521 C 497.47072,447.29384 506.4037,429.99746 507.37692,426.5042 C 508.51237,422.4288 508.545,406.66998 506.76216,398.76472"
         style="color:black;fill:#4bbe28;fill-opacity:1;fill-rule:nonzero;stroke:black;stroke-width:3.05046391;stroke-linecap:round;stroke-linejoin:round;marker:none;marker-start:none;marker-mid:none;marker-end:none;stroke-miterlimit:4;stroke-dasharray:none;stroke-dashoffset:0;stroke-opacity:1;visibility:visible;display:block" />
    </g>
    <path
       style="fill:white;fill-opacity:1;fill-rule:evenodd;stroke:black;stroke-width:1;stroke-linecap:butt;stroke-linejoin:miter;stroke-miterlimit:4;stroke-dasharray:none;stroke-opacity:1"
       d="M 174.88341,33.208138 C 31.591781,33.338708 7.9036305,33.036848 6.5863805,89.390119 C 5.5097305,135.45072 28.260801,143.4147 35.475521,148.7578 C 37.324061,157.18111 151.45154,166.97497 156.25228,166.06919 C 166.74579,164.0893 163.9081,187.27456 167.83579,218.23986 C 184.996,189.57516 170.25064,163.96222 208.8103,163.38458 C 301.69429,162.0187 334.53325,153.54978 337.84953,102.40643 C 341.91441,39.718158 305.95768,33.087308 174.88341,33.208138 z "
       id="path2467"
       sodipodi:nodetypes="cscscsss" />
    <text
       xml:space="preserve"
       style="font-size:21.04759598px;font-style:normal;font-variant:normal;font-weight:normal;font-stretch:normal;text-align:center;line-height:125%;writing-mode:lr-tb;text-anchor:middle;fill:black;fill-opacity:1;stroke:none;stroke-width:1px;stroke-linecap:butt;stroke-linejoin:miter;stroke-opacity:1;font-family:Bitstream Vera Sans"
       x="169.18568"
       y="68.369827"
       id="text2469"
       sodipodi:linespacing="125%"><tspan
         sodipodi:role="line"
         x="169.18568"
         y="68.369827"
         id="tspan2471">«Bon pour une année</tspan><tspan
         sodipodi:role="line"
         x="172.53603"
         y="94.679322"
         id="tspan2477">supplémentaire de </tspan><tspan
         sodipodi:role="line"
         x="169.18569"
         y="120.98882"
         id="tspan2473">maintenance informatique</tspan><tspan
         sodipodi:role="line"
         x="169.18569"
         y="147.29831"
         id="tspan2475">gratuite ?!? »</tspan></text>
  </g>
</svg>
