<?xml version="1.0" encoding="UTF-8" standalone="no"?>
<!-- Created with Inkscape (http://www.inkscape.org/) -->
<svg
   xmlns:dc="http://purl.org/dc/elements/1.1/"
   xmlns:cc="http://web.resource.org/cc/"
   xmlns:rdf="http://www.w3.org/1999/02/22-rdf-syntax-ns#"
   xmlns:svg="http://www.w3.org/2000/svg"
   xmlns="http://www.w3.org/2000/svg"
   xmlns:sodipodi="http://sodipodi.sourceforge.net/DTD/sodipodi-0.dtd"
   xmlns:inkscape="http://www.inkscape.org/namespaces/inkscape"
   width="640px"
   height="480px"
   id="svg3243"
   sodipodi:version="0.32"
   inkscape:version="0.44.1"
   sodipodi:docbase="/home/ruffy"
   sodipodi:docname="geekscottes_031.svg"
   inkscape:export-filename="/home/nojhan/perso/art/geekscottes/geekscottes_031.png"
   inkscape:export-xdpi="90"
   inkscape:export-ydpi="90">
  <defs
     id="defs3245" />
  <sodipodi:namedview
     id="base"
     pagecolor="#ffffff"
     bordercolor="#666666"
     borderopacity="1.0"
     inkscape:pageopacity="0.0"
     inkscape:pageshadow="2"
     inkscape:zoom="1.0145833"
     inkscape:cx="319.99999"
     inkscape:cy="332.16214"
     inkscape:current-layer="layer1"
     inkscape:document-units="px"
     inkscape:window-width="1010"
     inkscape:window-height="692"
     inkscape:window-x="31"
     inkscape:window-y="47" />
  <metadata
     id="metadata3248">
    <rdf:RDF>
      <cc:Work
         rdf:about="">
        <dc:format>image/svg+xml</dc:format>
        <dc:type
           rdf:resource="http://purl.org/dc/dcmitype/StillImage" />
        <dc:title>Père noël WiFi</dc:title>
        <dc:date>2006-12-13</dc:date>
        <dc:creator>
          <cc:Agent>
            <dc:title>Johann &quot;nojhan&quot; Dréo</dc:title>
          </cc:Agent>
        </dc:creator>
        <dc:language>fr-FR</dc:language>
        <cc:license
           rdf:resource="http://creativecommons.org/licenses/by-sa/2.0/" />
      </cc:Work>
      <cc:License
         rdf:about="http://creativecommons.org/licenses/by-sa/2.0/">
        <cc:permits
           rdf:resource="http://web.resource.org/cc/Reproduction" />
        <cc:permits
           rdf:resource="http://web.resource.org/cc/Distribution" />
        <cc:requires
           rdf:resource="http://web.resource.org/cc/Notice" />
        <cc:requires
           rdf:resource="http://web.resource.org/cc/Attribution" />
        <cc:permits
           rdf:resource="http://web.resource.org/cc/DerivativeWorks" />
        <cc:requires
           rdf:resource="http://web.resource.org/cc/ShareAlike" />
      </cc:License>
    </rdf:RDF>
  </metadata>
  <g
     id="layer1"
     inkscape:label="Layer 1"
     inkscape:groupmode="layer">
    <path
       style="fill:white;fill-opacity:1;fill-rule:evenodd;stroke:black;stroke-width:0.83305287;stroke-linecap:butt;stroke-linejoin:miter;stroke-miterlimit:4;stroke-dasharray:none;stroke-opacity:1"
       d="M 515.38154,308.75578 C 441.78653,308.84467 428.58969,301.18162 425.74662,333.08874 C 425.23591,338.82047 424.86733,346.47949 424.82182,353.91069 C 424.82182,353.91069 415.9111,360.88083 405.04578,365.13255 C 413.3559,369.85793 426.80132,369.65571 427.12103,371.2434 C 430.8648,389.83542 435.48537,391.63207 463.88653,391.34077 C 491.8911,391.05354 508.66915,394.07679 528.47349,393.68359 C 555.39713,393.15883 577.31162,392.9529 590.1409,386.36779 C 600.04361,381.28485 603.69407,372.11361 604.46625,357.81256 C 607.7225,297.50574 582.70167,308.67351 515.38154,308.75578 z "
       id="path1951"
       sodipodi:nodetypes="csscssssss" />
    <path
       style="fill:white;fill-opacity:1;fill-rule:evenodd;stroke:black;stroke-width:0.9801749;stroke-linecap:butt;stroke-linejoin:miter;stroke-miterlimit:4;stroke-dasharray:none;stroke-opacity:1"
       d="M 486.84564,148.00862 C 365.34462,148.15227 335.00117,154.51802 330.30743,206.08616 C 328.26228,228.55586 329.47319,252.82818 334.45195,262.24361 C 340.63271,273.9322 341.39397,277.05485 353.68993,275.85684 C 355.2574,285.12424 353.81486,302.01682 337.12741,310.28498 C 366.78329,309.27424 381.24744,279.48321 401.83043,281.48212 C 448.0109,283.90078 475.76391,285.90407 508.45972,285.26858 C 552.90904,284.42046 603.14971,284.08764 624.33009,273.44482 C 640.67888,265.22979 632.96254,250.42198 633.91929,227.29397 C 637.4197,142.6782 597.98723,147.87567 486.84564,148.00862 z "
       id="path1949"
       sodipodi:nodetypes="csscccssss" />
    <path
       style="color:black;fill:#8970a8;fill-opacity:1;fill-rule:nonzero;stroke:black;stroke-width:1.925;stroke-linecap:butt;stroke-linejoin:round;marker:none;marker-start:none;marker-mid:none;marker-end:none;stroke-miterlimit:4;stroke-dashoffset:0;stroke-opacity:1;visibility:visible;display:block;stroke-dasharray:none"
       d="M 225.91738,481.56628 C 221.61994,464.59657 213.02915,426.98644 213.42366,410.73256 C 213.83645,393.72557 226.62964,376.72447 228.54557,359.99276 C 230.31303,344.55761 223.9969,319.59722 204.63687,315.58807 C 199.97124,314.6219 195.81754,314.19962 192.09411,314.22494 C 192.00523,314.22555 191.91773,314.22382 191.82933,314.22494 C 169.28845,314.50914 160.36021,330.4441 152.91638,343.39984 C 143.64266,359.54045 133.12911,390.97881 129.98834,410.73256 C 126.98752,429.60614 126.83306,461.96529 126.35987,481.56628"
       id="path1080"
       sodipodi:nodetypes="csssscssc" />
    <path
       style="fill:white;fill-opacity:1;fill-rule:evenodd;stroke:black;stroke-width:0.9801749;stroke-linecap:butt;stroke-linejoin:miter;stroke-miterlimit:4;stroke-dasharray:none;stroke-opacity:1"
       d="M 178.74419,5.2894622 C 254.74539,5.4236729 271.98527,1.2896648 295.90575,17.567439 C 315.84505,31.136012 317.76091,91.913952 317.61461,132.15321 C 317.30493,217.32685 334.41234,230.97133 276.2506,233.96451 C 223.19228,236.64376 185.3966,239.67702 147.89679,238.58825 C 141.81059,238.41478 126.65411,242.73161 135.91213,271.55052 C 115.89964,251.93355 115.88456,237.87821 109.16954,237.7185 C 71.07339,236.81238 33.079573,234.98117 12.132393,225.80856 C 1.9210557,221.33709 4.1413392,178.96986 5.2157919,138.27779 C 6.8810264,77.533028 1.2330131,40.702441 19.756993,22.613092 C 45.44286,-2.4701041 104.68344,5.1571065 178.74419,5.2894622 z "
       id="path6885"
       sodipodi:nodetypes="csssscsssss" />
    <path
       style="color:black;fill:#8970a8;fill-opacity:1;fill-rule:nonzero;stroke:black;stroke-width:1.92499602;stroke-linecap:round;stroke-linejoin:round;marker:none;marker-start:none;marker-mid:none;marker-end:none;stroke-miterlimit:4;stroke-dashoffset:0;stroke-opacity:1;visibility:visible;display:block"
       d="M 189.9151,408.96702 C 190.86644,420.69198 196.1109,439.3453 205.37864,444.89039 C 215.50656,450.95016 238.58446,444.01165 251.25666,446.79625 C 254.73019,447.55952 256.94886,450.29148 258.99259,451.77031 L 261.21023,448.79989 C 260.82148,445.01038 259.69686,440.50471 257.14595,438.46527 C 248.07523,431.21324 225.85204,425.40972 221.11118,423.70283 C 217.26063,422.31646 205.34611,414.96913 197.94557,411.09512 L 189.9151,408.96702 z "
       id="path1335"
       sodipodi:nodetypes="cssccsscc" />
    <path
       style="color:black;fill:#fbebff;fill-opacity:1;fill-rule:nonzero;stroke:none;stroke-width:1.25;stroke-linecap:round;stroke-linejoin:round;marker:none;marker-start:none;marker-mid:none;marker-end:none;stroke-miterlimit:4;stroke-dashoffset:0;stroke-opacity:1;visibility:visible;display:block"
       d="M 196.95822,388.23603 C 159.44627,388.27098 159.76968,456.83502 160.72251,481.56628 L 225.48588,481.56628 C 221.21235,464.72892 212.67461,427.55763 212.44299,411.2229 C 212.36788,405.9257 215.12926,389.21384 198.78227,388.29486 C 198.16527,388.26018 197.55587,388.23546 196.95822,388.23603 z "
       id="path1702" />
    <path
       style="color:black;fill:#ff8000;fill-opacity:1;fill-rule:nonzero;stroke:black;stroke-width:2.95290828;stroke-linecap:round;stroke-linejoin:round;marker:none;marker-start:none;marker-mid:none;marker-end:none;stroke-miterlimit:4;stroke-dashoffset:0;stroke-opacity:1;visibility:visible;display:block"
       d="M 208.64543,369.23076 C 216.87762,373.58903 226.84603,381.95117 229.54862,393.88369 C 219.44055,392.29754 209.72435,387.74335 199.61629,386.15717"
       id="path1703"
       sodipodi:nodetypes="ccc" />
    <path
       sodipodi:type="arc"
       style="fill:white;fill-opacity:1;stroke:black;stroke-width:5;stroke-linecap:round;stroke-linejoin:round;stroke-miterlimit:4;stroke-dasharray:none;stroke-dashoffset:0;stroke-opacity:1"
       id="path3276"
       sodipodi:cx="139.72635"
       sodipodi:cy="149.99591"
       sodipodi:rx="21.583744"
       sodipodi:ry="32.375618"
       d="M 161.31009 149.99591 A 21.583744 32.375618 0 1 1  118.1426,149.99591 A 21.583744 32.375618 0 1 1  161.31009 149.99591 z"
       transform="matrix(0.391395,0,0,0.391395,164.3058,294.6747)" />
    <path
       sodipodi:type="arc"
       style="fill:black;fill-opacity:1;fill-rule:nonzero;stroke:#04094e;stroke-width:1.25;stroke-linecap:round;stroke-linejoin:round;stroke-miterlimit:4;stroke-dashoffset:0;stroke-opacity:1"
       id="path1709"
       sodipodi:cx="105.34409"
       sodipodi:cy="101.60275"
       sodipodi:rx="1.1088852"
       sodipodi:ry="1.1088852"
       d="M 106.45298 101.60275 A 1.1088852 1.1088852 0 1 1  104.23521,101.60275 A 1.1088852 1.1088852 0 1 1  106.45298 101.60275 z"
       transform="matrix(-1.539997,0,0,1.539997,379.912,205.986)" />
    <path
       style="color:black;fill:#8970a8;fill-opacity:1;fill-rule:nonzero;stroke:black;stroke-width:1.92499602;stroke-linecap:round;stroke-linejoin:round;marker:none;marker-start:none;marker-mid:none;marker-end:none;stroke-miterlimit:4;stroke-dashoffset:0;stroke-opacity:1;visibility:visible;display:block"
       d="M 141.88406,425.2602 C 148.93337,434.67758 163.3047,447.67233 174.10194,447.4302 C 185.90133,447.1656 201.74101,429.00508 213.9497,424.61342 C 218.3262,423.03912 225.09571,426.48257 226.14457,424.87724 C 227.36366,423.01136 221.26336,413.86869 216.47783,413.32645 C 204.93833,412.0189 180.23135,422.49354 176.13519,421.12097 C 172.25474,419.82067 164.37542,408.72698 161.14529,399.82714"
       id="path1718"
       sodipodi:nodetypes="cssssss"
       inkscape:transform-center-y="19.115905"
       inkscape:transform-center-x="-29.041185" />
    <path
       sodipodi:type="arc"
       style="fill:white;fill-opacity:1;stroke:black;stroke-width:5;stroke-linecap:round;stroke-linejoin:round;stroke-miterlimit:4;stroke-dasharray:none;stroke-dashoffset:0;stroke-opacity:1"
       id="path3274"
       sodipodi:cx="139.72635"
       sodipodi:cy="149.99591"
       sodipodi:rx="21.583744"
       sodipodi:ry="32.375618"
       d="M 161.31009 149.99591 A 21.583744 32.375618 0 1 1  118.1426,149.99591 A 21.583744 32.375618 0 1 1  161.31009 149.99591 z"
       transform="matrix(0.391395,0,0,0.391395,143.4087,294.897)" />
    <path
       sodipodi:type="arc"
       style="fill:black;fill-opacity:1;fill-rule:nonzero;stroke:#04094e;stroke-width:1.25;stroke-linecap:round;stroke-linejoin:round;stroke-miterlimit:4;stroke-dashoffset:0;stroke-opacity:1"
       id="path1710"
       sodipodi:cx="105.34409"
       sodipodi:cy="101.60275"
       sodipodi:rx="1.1088852"
       sodipodi:ry="1.1088852"
       d="M 106.45298 101.60275 A 1.1088852 1.1088852 0 1 1  104.23521,101.60275 A 1.1088852 1.1088852 0 1 1  106.45298 101.60275 z"
       transform="matrix(-1.539997,0,0,1.539997,363.9376,205.3162)" />
    <path
       style="fill:white;fill-opacity:1;fill-rule:evenodd;stroke:black;stroke-width:0.83305287;stroke-linecap:butt;stroke-linejoin:miter;stroke-miterlimit:4;stroke-dasharray:none;stroke-opacity:1"
       d="M 386.40273,72.855066 C 361.03765,72.892506 356.09773,73.971336 355.11784,87.413056 C 354.16085,100.54096 358.9546,102.9062 360.23173,104.4385 C 360.55896,106.85413 360.02535,112.41828 356.54161,114.57346 C 362.7327,114.31 364.35759,107.12516 368.65458,107.64619 C 378.29542,108.27664 384.08926,108.79881 390.91498,108.63317 C 407.35706,108.24146 416.64798,107.36023 417.10647,93.521536 C 417.83723,71.465646 409.60514,72.820406 386.40273,72.855066 z "
       id="path4179"
       sodipodi:nodetypes="cscccsss" />
    <g
       inkscape:label="Layer 1"
       id="g5243"
       transform="matrix(0.801784,0,0,0.801784,592.1696,-238.0654)" />
    <g
       id="layer2"
       inkscape:label="vetements"
       transform="matrix(0.801784,0,0,0.801784,592.1696,-238.0654)" />
    <text
       xml:space="preserve"
       style="font-size:21.87489319px;font-style:normal;font-variant:normal;font-weight:normal;font-stretch:normal;text-align:center;line-height:125%;writing-mode:lr-tb;text-anchor:middle;fill:black;fill-opacity:1;stroke:none;stroke-width:1px;stroke-linecap:butt;stroke-linejoin:miter;stroke-opacity:1;font-family:Bitstream Vera Sans"
       x="160.25969"
       y="27.62426"
       id="text6865"
       sodipodi:linespacing="125%"><tspan
         sodipodi:role="line"
         x="160.25969"
         y="27.62426"
         id="tspan4173">Cher papa Noël...</tspan><tspan
         sodipodi:role="line"
         x="163.74172"
         y="54.967876"
         id="tspan1913">L'année dernière, </tspan><tspan
         sodipodi:role="line"
         x="160.25969"
         y="82.311493"
         id="tspan1935">j'avais demandé :</tspan><tspan
         sodipodi:role="line"
         x="163.74173"
         y="109.65511"
         id="tspan1915">une loi intelligente sur </tspan><tspan
         sodipodi:role="line"
         x="160.25969"
         y="136.99873"
         id="tspan1933">les contenus numériques,</tspan><tspan
         sodipodi:role="line"
         x="160.25968"
         y="164.34234"
         id="tspan1919">la fin des brevets logiciels,</tspan><tspan
         sodipodi:role="line"
         x="160.25969"
         y="191.68596"
         id="tspan1921">la fin du procès SCO,</tspan><tspan
         sodipodi:role="line"
         x="160.25969"
         y="219.02958"
         id="tspan1923">la fin des FUD de Microsoft.</tspan><tspan
         sodipodi:role="line"
         x="160.25969"
         y="246.37319"
         id="tspan1917" /></text>
    <text
       xml:space="preserve"
       style="font-size:18.22294426px;font-style:normal;font-variant:normal;font-weight:normal;font-stretch:normal;text-align:center;line-height:125%;writing-mode:lr-tb;text-anchor:middle;fill:black;fill-opacity:1;stroke:none;stroke-width:1px;stroke-linecap:butt;stroke-linejoin:miter;stroke-opacity:1;font-family:Bitstream Vera Sans"
       x="385.75058"
       y="96.154724"
       id="text4181"
       sodipodi:linespacing="125%"><tspan
         sodipodi:role="line"
         x="385.75058"
         y="96.154724"
         id="tspan4642">Bon.</tspan></text>
    <text
       xml:space="preserve"
       style="font-size:21.87489319px;font-style:normal;font-variant:normal;font-weight:normal;font-stretch:normal;text-align:center;line-height:125%;writing-mode:lr-tb;text-anchor:middle;fill:black;fill-opacity:1;stroke:none;stroke-width:1px;stroke-linecap:butt;stroke-linejoin:miter;stroke-opacity:1;font-family:Bitstream Vera Sans"
       x="482.8045"
       y="183.05438"
       id="text1927"
       sodipodi:linespacing="125%"><tspan
         sodipodi:role="line"
         x="486.28654"
         y="183.05438"
         id="tspan1929">Au vu de la prise en </tspan><tspan
         sodipodi:role="line"
         x="482.80451"
         y="210.398"
         id="tspan1937">compte de ma commande,</tspan><tspan
         sodipodi:role="line"
         x="486.28654"
         y="237.74162"
         id="tspan1931">cette année j'ai juste </tspan><tspan
         sodipodi:role="line"
         x="482.8045"
         y="265.08523"
         id="tspan1939">demandé une carte WiFi...</tspan></text>
    <text
       xml:space="preserve"
       style="font-size:18.59152222px;font-style:normal;font-variant:normal;font-weight:normal;font-stretch:normal;text-align:center;line-height:125%;writing-mode:lr-tb;text-anchor:middle;fill:black;fill-opacity:1;stroke:none;stroke-width:1px;stroke-linecap:butt;stroke-linejoin:miter;stroke-opacity:1;font-family:Bitstream Vera Sans"
       x="512.75671"
       y="336.49316"
       id="text1941"
       sodipodi:linespacing="125%"><tspan
         sodipodi:role="line"
         x="512.75672"
         y="336.49316"
         id="tspan1943">Et j'ai même pas</tspan><tspan
         sodipodi:role="line"
         x="512.75672"
         y="359.73257"
         id="tspan1945">osé demander un</tspan><tspan
         sodipodi:role="line"
         x="512.75671"
         y="382.97197"
         id="tspan1947">pilote libre...</tspan></text>
    <path
       style="fill:#fafad2;fill-opacity:1;fill-rule:evenodd;stroke:black;stroke-width:1px;stroke-linecap:butt;stroke-linejoin:miter;stroke-opacity:1"
       d="M 220.7803,470.14374 C 220.7803,470.14374 212.89529,453.38809 214.86654,440.57495 C 216.83779,427.76181 234.57907,415.93429 234.57907,415.93429 C 246.07804,414.62012 259.54827,416.26283 274.98975,420.86242 C 268.74745,428.41889 257.91726,435.09433 256.26285,443.53183 C 254.63184,451.84998 262.1766,461.93018 265.13348,471.12936 C 251.33471,467.84394 234.57907,468.50103 220.7803,470.14374 z "
       id="path2840"
       sodipodi:nodetypes="csccscc" />
    <path
       style="fill:#da0000;fill-opacity:1;fill-rule:evenodd;stroke:black;stroke-width:2;stroke-linecap:butt;stroke-linejoin:miter;stroke-opacity:1;stroke-miterlimit:4;stroke-dasharray:none"
       d="M 217.82341,315.40041 C 212.56674,304.88706 209.83746,291.64444 202.05339,283.86037 C 195.71015,277.51713 184.15786,271.54688 175.44148,273.01848 C 158.86012,275.81793 142.58727,288.7885 126.16016,296.67351 C 139.63039,295.68788 153.10061,294.70226 166.57084,293.71663 C 163.28542,304.22998 160,314.74332 156.71458,325.25667"
       id="path3729"
       sodipodi:nodetypes="cssccc" />
    <path
       style="fill:white;fill-opacity:1;fill-rule:evenodd;stroke:black;stroke-width:2;stroke-linecap:butt;stroke-linejoin:miter;stroke-opacity:1;stroke-miterlimit:4;stroke-dasharray:none"
       d="M 151.78645,335.11294 C 158.02875,344.9692 218.4805,338.06982 226.69405,329.19918 C 226.69405,322.2998 226.69405,315.40041 226.69405,308.50103 C 217.16632,303.24436 156.38603,309.81519 147.84394,313.42916 C 149.15811,320.65709 150.47228,327.88501 151.78645,335.11294 z "
       id="path3727"
       sodipodi:nodetypes="ccccc" />
    <path
       sodipodi:type="arc"
       style="opacity:1;fill:#fafaff;fill-opacity:1;stroke:black;stroke-width:10.70730059;stroke-linecap:round;stroke-linejoin:round;stroke-miterlimit:4;stroke-dasharray:none;stroke-dashoffset:0;stroke-opacity:1"
       id="path3731"
       sodipodi:cx="181.35524"
       sodipodi:cy="236.0575"
       sodipodi:rx="58.151951"
       sodipodi:ry="59.63039"
       d="M 239.50719 236.0575 A 58.151951 59.63039 0 1 1  123.20329,236.0575 A 58.151951 59.63039 0 1 1  239.50719 236.0575 z"
       transform="matrix(0.184958,0,0,0.188637,91.13856,254.1156)" />
  </g>
</svg>
