<?xml version="1.0" encoding="UTF-8" standalone="no"?>
<!DOCTYPE svg PUBLIC "-//W3C//DTD SVG 1.0//EN"
 "http://www.w3.org/TR/2001/REC-SVG-20010904/DTD/svg10.dtd" [
 <!ATTLIST svg xmlns:xlink CDATA #FIXED "http://www.w3.org/1999/xlink">
]>
<!-- Generated by Graphviz version 2.18 (Wed Aug &#160;6 10:29:47 UTC 2008)
     For user: (nono) Bruno Michel,,, -->
<!-- Title: models_diagram Pages: 1 -->
<svg width="1282pt" height="1342pt"
 viewBox="0.00 0.00 1282.00 1342.00" xmlns="http://www.w3.org/2000/svg" xmlns:xlink="http://www.w3.org/1999/xlink">
<g id="graph0" class="graph" transform="scale(1 1) rotate(0) translate(4 1338)">
<title>models_diagram</title>
<polygon style="fill:white;stroke:white;" points="-4,4 -4,-1338 1278,-1338 1278,4 -4,4"/>
<!-- _diagram_info -->
<g id="node1" class="node"><title>_diagram_info</title>
<text text-anchor="start" x="926.5" y="-330.4" style="font-family:Times New Roman;font-size:11px;">Models diagram</text>
<text text-anchor="start" x="926.5" y="-313.4" style="font-family:Times New Roman;font-size:11px;">Date: Mar 14 2009 &#45; 03:07</text>
<text text-anchor="start" x="926.5" y="-296.4" style="font-family:Times New Roman;font-size:11px;">Migration version: 20090310234743</text>
<text text-anchor="start" x="926.5" y="-279.4" style="font-family:Times New Roman;font-size:11px;">Generated by RailRoad 0.7.6</text>
</g>
<!-- Threads -->
<g id="node2" class="node"><title>Threads</title>
<polygon style="fill:none;stroke:black;" points="433,-487 433,-537 495,-537 495,-487 433,-487"/>
<text text-anchor="middle" x="464" y="-519.9" style="font-family:Times New Roman;font-size:11px;">Threads</text>
<polyline style="fill:none;stroke:black;" points="433,-512 495,-512 "/>
<text text-anchor="middle" x="464" y="-494.9" style="font-family:Times New Roman;font-size:11px;"> </text>
</g>
<!-- Tag -->
<g id="node3" class="node"><title>Tag</title>
<polyline style="fill:none;stroke:black;" points="761,-1270 820,-1270 "/>
<path style="fill:none;stroke:black;" d="M820,-1270C826,-1270 832,-1276 832,-1282"/>
<polyline style="fill:none;stroke:black;" points="832,-1282 832,-1308 "/>
<path style="fill:none;stroke:black;" d="M832,-1308C832,-1314 826,-1320 820,-1320"/>
<polyline style="fill:none;stroke:black;" points="820,-1320 761,-1320 "/>
<path style="fill:none;stroke:black;" d="M761,-1320C755,-1320 749,-1314 749,-1308"/>
<polyline style="fill:none;stroke:black;" points="749,-1308 749,-1282 "/>
<path style="fill:none;stroke:black;" d="M749,-1282C749,-1276 755,-1270 761,-1270"/>
<text text-anchor="middle" x="790" y="-1302.9" style="font-family:Times New Roman;font-size:11px;">Tag</text>
<polyline style="fill:none;stroke:black;" points="749,-1295 832,-1295 "/>
<text text-anchor="start" x="756.5" y="-1277.9" style="font-family:Times New Roman;font-size:11px;">name :string</text>
</g>
<!-- Node -->
<g id="node4" class="node"><title>Node</title>
<polyline style="fill:none;stroke:black;" points="872,-724 980,-724 "/>
<path style="fill:none;stroke:black;" d="M980,-724C986,-724 992,-730 992,-736"/>
<polyline style="fill:none;stroke:black;" points="992,-736 992,-830 "/>
<path style="fill:none;stroke:black;" d="M992,-830C992,-836 986,-842 980,-842"/>
<polyline style="fill:none;stroke:black;" points="980,-842 872,-842 "/>
<path style="fill:none;stroke:black;" d="M872,-842C866,-842 860,-836 860,-830"/>
<polyline style="fill:none;stroke:black;" points="860,-830 860,-736 "/>
<path style="fill:none;stroke:black;" d="M860,-736C860,-730 866,-724 872,-724"/>
<text text-anchor="middle" x="926" y="-824.9" style="font-family:Times New Roman;font-size:11px;">Node</text>
<polyline style="fill:none;stroke:black;" points="860,-817 992,-817 "/>
<text text-anchor="start" x="868" y="-799.9" style="font-family:Times New Roman;font-size:11px;">content_type :string</text>
<text text-anchor="start" x="868" y="-782.9" style="font-family:Times New Roman;font-size:11px;">score :integer</text>
<text text-anchor="start" x="868" y="-765.9" style="font-family:Times New Roman;font-size:11px;">public :boolean</text>
<text text-anchor="start" x="868" y="-748.9" style="font-family:Times New Roman;font-size:11px;">created_at :datetime</text>
<text text-anchor="start" x="868" y="-731.9" style="font-family:Times New Roman;font-size:11px;">updated_at :datetime</text>
</g>
<!-- Tag&#45;&gt;Node -->
<g id="edge2" class="edge"><title>Tag&#45;&gt;Node</title>
<path style="fill:none;stroke:black;" d="M841,-1269C877,-1246 923,-1211 943,-1167 990,-1065 968,-932 948,-852"/>
<polygon style="fill:black;stroke:black;" points="840.742,-1269.14 829.815,-1270.07 836.371,-1271.57 832,-1274 832,-1274 832,-1274 836.371,-1271.57 834.185,-1277.93 840.742,-1269.14 840.742,-1269.14"/>
<polygon style="fill:black;stroke:black;" points="947.874,-851.578 949.31,-840.707 946.437,-846.789 945,-842 945,-842 945,-842 946.437,-846.789 940.69,-843.293 947.874,-851.578 947.874,-851.578"/>
</g>
<!-- Tagging -->
<g id="node21" class="node"><title>Tagging</title>
<polyline style="fill:none;stroke:black;" points="1159,-840 1262,-840 "/>
<path style="fill:none;stroke:black;" d="M1262,-840C1268,-840 1274,-846 1274,-852"/>
<polyline style="fill:none;stroke:black;" points="1274,-852 1274,-878 "/>
<path style="fill:none;stroke:black;" d="M1274,-878C1274,-884 1268,-890 1262,-890"/>
<polyline style="fill:none;stroke:black;" points="1262,-890 1159,-890 "/>
<path style="fill:none;stroke:black;" d="M1159,-890C1153,-890 1147,-884 1147,-878"/>
<polyline style="fill:none;stroke:black;" points="1147,-878 1147,-852 "/>
<path style="fill:none;stroke:black;" d="M1147,-852C1147,-846 1153,-840 1159,-840"/>
<text text-anchor="middle" x="1210" y="-872.9" style="font-family:Times New Roman;font-size:11px;">Tagging</text>
<polyline style="fill:none;stroke:black;" points="1147,-865 1274,-865 "/>
<text text-anchor="start" x="1154.5" y="-847.9" style="font-family:Times New Roman;font-size:11px;">created_at :datetime</text>
</g>
<!-- Tag&#45;&gt;Tagging -->
<g id="edge4" class="edge"><title>Tag&#45;&gt;Tagging</title>
<path style="fill:none;stroke:black;" d="M831,-1264C862,-1238 907,-1202 943,-1167 1038,-1075 1139,-953 1185,-896"/>
<polygon style="fill:black;stroke:black;" points="831,-1264 820.3,-1266.4 827,-1267 823,-1270 823,-1270 823,-1270 827,-1267 825.7,-1273.6 831,-1264 831,-1264"/>
<ellipse style="fill:black;stroke:black;" cx="1187.44" cy="-893.073" rx="4.00002" ry="4.00002"/>
</g>
<!-- Comment -->
<g id="node11" class="node"><title>Comment</title>
<polyline style="fill:none;stroke:black;" points="407,-1181 533,-1181 "/>
<path style="fill:none;stroke:black;" d="M533,-1181C539,-1181 545,-1187 545,-1193"/>
<polyline style="fill:none;stroke:black;" points="545,-1193 545,-1321 "/>
<path style="fill:none;stroke:black;" d="M545,-1321C545,-1327 539,-1333 533,-1333"/>
<polyline style="fill:none;stroke:black;" points="533,-1333 407,-1333 "/>
<path style="fill:none;stroke:black;" d="M407,-1333C401,-1333 395,-1327 395,-1321"/>
<polyline style="fill:none;stroke:black;" points="395,-1321 395,-1193 "/>
<path style="fill:none;stroke:black;" d="M395,-1193C395,-1187 401,-1181 407,-1181"/>
<text text-anchor="middle" x="470" y="-1315.9" style="font-family:Times New Roman;font-size:11px;">Comment</text>
<polyline style="fill:none;stroke:black;" points="395,-1308 545,-1308 "/>
<text text-anchor="start" x="403" y="-1290.9" style="font-family:Times New Roman;font-size:11px;">state :string</text>
<text text-anchor="start" x="403" y="-1273.9" style="font-family:Times New Roman;font-size:11px;">title :string</text>
<text text-anchor="start" x="403" y="-1256.9" style="font-family:Times New Roman;font-size:11px;">body :text</text>
<text text-anchor="start" x="403" y="-1239.9" style="font-family:Times New Roman;font-size:11px;">score :integer</text>
<text text-anchor="start" x="403" y="-1222.9" style="font-family:Times New Roman;font-size:11px;">materialized_path :string</text>
<text text-anchor="start" x="403" y="-1205.9" style="font-family:Times New Roman;font-size:11px;">created_at :datetime</text>
<text text-anchor="start" x="403" y="-1188.9" style="font-family:Times New Roman;font-size:11px;">updated_at :datetime</text>
</g>
<!-- Node&#45;&gt;Comment -->
<g id="edge10" class="edge"><title>Node&#45;&gt;Comment</title>
<path style="fill:none;stroke:black;" d="M850,-793C802,-801 741,-820 697,-855 594,-939 530,-1082 497,-1173"/>
<polygon style="fill:black;stroke:black;" points="850.194,-792.961 860.883,-795.413 855.097,-791.981 860,-791 860,-791 860,-791 855.097,-791.981 859.117,-786.587 850.194,-792.961 850.194,-792.961"/>
<ellipse style="fill:black;stroke:black;" cx="495.405" cy="-1177.25" rx="4.00001" ry="4.00001"/>
</g>
<!-- Node&#45;&gt;Tagging -->
<g id="edge8" class="edge"><title>Node&#45;&gt;Tagging</title>
<path style="fill:none;stroke:black;" d="M1002,-805C1044,-816 1097,-832 1139,-845"/>
<polygon style="fill:black;stroke:black;" points="1001.58,-804.874 993.293,-797.69 996.789,-803.437 992,-802 992,-802 992,-802 996.789,-803.437 990.707,-806.31 1001.58,-804.874 1001.58,-804.874"/>
<ellipse style="fill:black;stroke:black;" cx="1143.12" cy="-846.03" rx="4.00001" ry="4.00001"/>
</g>
<!-- Vote -->
<g id="node26" class="node"><title>Vote</title>
<polyline style="fill:none;stroke:black;" points="1120,-1211 1223,-1211 "/>
<path style="fill:none;stroke:black;" d="M1223,-1211C1229,-1211 1235,-1217 1235,-1223"/>
<polyline style="fill:none;stroke:black;" points="1235,-1223 1235,-1266 "/>
<path style="fill:none;stroke:black;" d="M1235,-1266C1235,-1272 1229,-1278 1223,-1278"/>
<polyline style="fill:none;stroke:black;" points="1223,-1278 1120,-1278 "/>
<path style="fill:none;stroke:black;" d="M1120,-1278C1114,-1278 1108,-1272 1108,-1266"/>
<polyline style="fill:none;stroke:black;" points="1108,-1266 1108,-1223 "/>
<path style="fill:none;stroke:black;" d="M1108,-1223C1108,-1217 1114,-1211 1120,-1211"/>
<text text-anchor="middle" x="1171" y="-1260.9" style="font-family:Times New Roman;font-size:11px;">Vote</text>
<polyline style="fill:none;stroke:black;" points="1108,-1253 1235,-1253 "/>
<text text-anchor="start" x="1115.5" y="-1236.4" style="font-family:Times New Roman;font-size:11px;">vote :boolean</text>
<text text-anchor="start" x="1115.5" y="-1219.4" style="font-family:Times New Roman;font-size:11px;">created_at :datetime</text>
</g>
<!-- Node&#45;&gt;Vote -->
<g id="edge6" class="edge"><title>Node&#45;&gt;Vote</title>
<path style="fill:none;stroke:black;" d="M963,-851C1014,-948 1107,-1124 1149,-1204"/>
<polygon style="fill:black;stroke:black;" points="962.856,-850.742 961.934,-839.815 960.428,-846.371 958,-842 958,-842 958,-842 960.428,-846.371 954.066,-844.185 962.856,-850.742 962.856,-850.742"/>
<ellipse style="fill:black;stroke:black;" cx="1151.02" cy="-1207.53" rx="4.00002" ry="4.00002"/>
</g>
<!-- UserObserver -->
<g id="node5" class="node"><title>UserObserver</title>
<polygon style="fill:none;stroke:black;" points="865,-379 865,-429 959,-429 959,-379 865,-379"/>
<text text-anchor="middle" x="912" y="-411.9" style="font-family:Times New Roman;font-size:11px;">UserObserver</text>
<polyline style="fill:none;stroke:black;" points="865,-404 959,-404 "/>
<text text-anchor="middle" x="912" y="-386.9" style="font-family:Times New Roman;font-size:11px;"> </text>
</g>
<!-- Poll -->
<g id="node6" class="node"><title>Poll</title>
<ellipse style="fill:none;stroke:black;" cx="75" cy="-493" rx="27" ry="18"/>
<text text-anchor="middle" x="75" y="-488.9" style="font-family:Times New Roman;font-size:11px;">Poll</text>
</g>
<!-- PollAnswer -->
<g id="node17" class="node"><title>PollAnswer</title>
<polyline style="fill:none;stroke:black;" points="13,-788 121,-788 "/>
<path style="fill:none;stroke:black;" d="M121,-788C127,-788 133,-794 133,-800"/>
<polyline style="fill:none;stroke:black;" points="133,-800 133,-894 "/>
<path style="fill:none;stroke:black;" d="M133,-894C133,-900 127,-906 121,-906"/>
<polyline style="fill:none;stroke:black;" points="121,-906 13,-906 "/>
<path style="fill:none;stroke:black;" d="M13,-906C7,-906 1,-900 1,-894"/>
<polyline style="fill:none;stroke:black;" points="1,-894 1,-800 "/>
<path style="fill:none;stroke:black;" d="M1,-800C1,-794 7,-788 13,-788"/>
<text text-anchor="middle" x="67" y="-888.9" style="font-family:Times New Roman;font-size:11px;">PollAnswer</text>
<polyline style="fill:none;stroke:black;" points="1,-881 133,-881 "/>
<text text-anchor="start" x="9" y="-863.9" style="font-family:Times New Roman;font-size:11px;">answer :string</text>
<text text-anchor="start" x="9" y="-846.9" style="font-family:Times New Roman;font-size:11px;">votes :integer</text>
<text text-anchor="start" x="9" y="-829.9" style="font-family:Times New Roman;font-size:11px;">position :integer</text>
<text text-anchor="start" x="9" y="-812.9" style="font-family:Times New Roman;font-size:11px;">created_at :datetime</text>
<text text-anchor="start" x="9" y="-795.9" style="font-family:Times New Roman;font-size:11px;">updated_at :datetime</text>
</g>
<!-- Poll&#45;&gt;PollAnswer -->
<g id="edge16" class="edge"><title>Poll&#45;&gt;PollAnswer</title>
<path style="fill:none;stroke:black;" d="M75,-521C74,-576 70,-702 68,-780"/>
<polygon style="fill:black;stroke:black;" points="75.0001,-521 79.5,-511 75,-516 75,-511 75,-511 75,-511 75,-516 70.5,-511 75.0001,-521 75.0001,-521"/>
<ellipse style="fill:black;stroke:black;" cx="68" cy="-784" rx="4" ry="4"/>
<text text-anchor="middle" x="90" y="-637.9" style="font-family:Times New Roman;font-size:11px;">answers</text>
</g>
<!-- Slug -->
<g id="node35" class="node"><title>Slug</title>
<ellipse style="fill:none;stroke:black;" cx="425" cy="-367" rx="27.9903" ry="18"/>
<text text-anchor="middle" x="425" y="-362.9" style="font-family:Times New Roman;font-size:11px;">Slug</text>
</g>
<!-- Poll&#45;&gt;Slug -->
<g id="edge14" class="edge"><title>Poll&#45;&gt;Slug</title>
<path style="fill:none;stroke:black;" d="M109,-481C176,-456 327,-402 392,-379"/>
<polygon style="fill:black;stroke:black;" points="108.578,-481.126 97.7069,-479.69 103.789,-482.563 99,-484 99,-484 99,-484 103.789,-482.563 100.293,-488.31 108.578,-481.126 108.578,-481.126"/>
<ellipse style="fill:black;stroke:black;" cx="396.255" cy="-377.405" rx="4.00001" ry="4.00001"/>
</g>
<!-- Forum -->
<g id="node7" class="node"><title>Forum</title>
<polyline style="fill:none;stroke:black;" points="410,-6 518,-6 "/>
<path style="fill:none;stroke:black;" d="M518,-6C524,-6 530,-12 530,-18"/>
<polyline style="fill:none;stroke:black;" points="530,-18 530,-112 "/>
<path style="fill:none;stroke:black;" d="M530,-112C530,-118 524,-124 518,-124"/>
<polyline style="fill:none;stroke:black;" points="518,-124 410,-124 "/>
<path style="fill:none;stroke:black;" d="M410,-124C404,-124 398,-118 398,-112"/>
<polyline style="fill:none;stroke:black;" points="398,-112 398,-18 "/>
<path style="fill:none;stroke:black;" d="M398,-18C398,-12 404,-6 410,-6"/>
<text text-anchor="middle" x="464" y="-106.9" style="font-family:Times New Roman;font-size:11px;">Forum</text>
<polyline style="fill:none;stroke:black;" points="398,-99 530,-99 "/>
<text text-anchor="start" x="406" y="-81.9" style="font-family:Times New Roman;font-size:11px;">state :string</text>
<text text-anchor="start" x="406" y="-64.9" style="font-family:Times New Roman;font-size:11px;">title :string</text>
<text text-anchor="start" x="406" y="-47.9" style="font-family:Times New Roman;font-size:11px;">position :integer</text>
<text text-anchor="start" x="406" y="-30.9" style="font-family:Times New Roman;font-size:11px;">created_at :datetime</text>
<text text-anchor="start" x="406" y="-13.9" style="font-family:Times New Roman;font-size:11px;">updated_at :datetime</text>
</g>
<!-- Post -->
<g id="node18" class="node"><title>Post</title>
<ellipse style="fill:none;stroke:black;" cx="628" cy="-529" rx="29.1851" ry="18"/>
<text text-anchor="middle" x="628" y="-524.9" style="font-family:Times New Roman;font-size:11px;">Post</text>
</g>
<!-- Forum&#45;&gt;Post -->
<g id="edge22" class="edge"><title>Forum&#45;&gt;Post</title>
<path style="fill:none;stroke:black;" d="M488,-134C525,-239 594,-433 619,-503"/>
<polygon style="fill:black;stroke:black;" points="487.874,-133.578 489.31,-122.707 486.437,-128.789 485,-124 485,-124 485,-124 486.437,-128.789 480.69,-125.293 487.874,-133.578 487.874,-133.578"/>
<ellipse style="fill:black;stroke:black;" cx="620.595" cy="-507.255" rx="4.00001" ry="4.00001"/>
</g>
<!-- Forum&#45;&gt;Slug -->
<g id="edge20" class="edge"><title>Forum&#45;&gt;Slug</title>
<path style="fill:none;stroke:black;" d="M455,-134C447,-200 435,-296 428,-341"/>
<polygon style="fill:black;stroke:black;" points="455.005,-133.95 460.478,-124.448 455.502,-128.975 456,-124 456,-124 456,-124 455.502,-128.975 451.522,-123.552 455.005,-133.95 455.005,-133.95"/>
<ellipse style="fill:black;stroke:black;" cx="427.496" cy="-345.031" rx="4.00001" ry="4.00001"/>
</g>
<!-- Content -->
<g id="node8" class="node"><title>Content</title>
<ellipse style="fill:none;stroke:black;" cx="630" cy="-815" rx="41.1906" ry="18"/>
<text text-anchor="middle" x="630" y="-810.9" style="font-family:Times New Roman;font-size:11px;">Content</text>
</g>
<!-- Content&#45;&gt;Node -->
<g id="edge24" class="edge"><title>Content&#45;&gt;Node</title>
<path style="fill:none;stroke:black;" d="M678,-810C726,-805 798,-798 852,-791"/>
<ellipse style="fill:none;stroke:black;" cx="673.969" cy="-810.504" rx="4.00001" ry="4.00001"/>
<ellipse style="fill:black;stroke:black;" cx="856.031" cy="-790.496" rx="4.00001" ry="4.00001"/>
</g>
<!-- Content&#45;&gt;Poll -->
<g id="edge18" class="edge"><title>Content&#45;&gt;Poll</title>
<path style="fill:none;stroke:black;" d="M593,-797C538,-771 434,-720 348,-671 249,-614 137,-537 94,-506"/>
<polygon style="fill:none;stroke:black;" points="591.559,-800.203 602,-802 594.958,-794.084 591.559,-800.203"/>
</g>
<!-- Diary -->
<g id="node9" class="node"><title>Diary</title>
<ellipse style="fill:none;stroke:black;" cx="372" cy="-657" rx="31.9646" ry="18"/>
<text text-anchor="middle" x="372" y="-652.9" style="font-family:Times New Roman;font-size:11px;">Diary</text>
</g>
<!-- Content&#45;&gt;Diary -->
<g id="edge32" class="edge"><title>Content&#45;&gt;Diary</title>
<path style="fill:none;stroke:black;" d="M597,-795C544,-762 439,-698 394,-670"/>
<polygon style="fill:none;stroke:black;" points="595.559,-798.203 606,-800 598.958,-792.084 595.559,-798.203"/>
</g>
<!-- Content&#45;&gt;Comment -->
<g id="edge28" class="edge"><title>Content&#45;&gt;Comment</title>
<path style="fill:none;stroke:black;" d="M620,-843C597,-907 538,-1069 501,-1171"/>
<polygon style="fill:black;stroke:black;" points="620.286,-842.285 628.178,-834.671 622.143,-837.642 624,-833 624,-833 624,-833 622.143,-837.642 619.822,-831.329 620.286,-842.285 620.286,-842.285"/>
<polygon style="fill:black;stroke:black;" points="500.874,-1171.42 493.69,-1179.71 499.437,-1176.21 498,-1181 498,-1181 498,-1181 499.437,-1176.21 502.31,-1182.29 500.874,-1171.42 500.874,-1171.42"/>
</g>
<!-- Tracker -->
<g id="node15" class="node"><title>Tracker</title>
<ellipse style="fill:none;stroke:black;" cx="872" cy="-585" rx="40.9981" ry="18"/>
<text text-anchor="middle" x="872" y="-580.9" style="font-family:Times New Roman;font-size:11px;">Tracker</text>
</g>
<!-- Content&#45;&gt;Tracker -->
<g id="edge40" class="edge"><title>Content&#45;&gt;Tracker</title>
<path style="fill:none;stroke:black;" d="M654,-791C704,-745 812,-642 855,-601"/>
<polygon style="fill:none;stroke:black;" points="651.596,-788.454 647,-798 656.546,-793.404 651.596,-788.454"/>
</g>
<!-- Content&#45;&gt;Post -->
<g id="edge44" class="edge"><title>Content&#45;&gt;Post</title>
<path style="fill:none;stroke:black;" d="M630,-787C629,-728 628,-596 628,-547"/>
<polygon style="fill:none;stroke:black;" points="626.5,-787 630,-797 633.5,-787 626.5,-787"/>
</g>
<!-- User -->
<g id="node20" class="node"><title>User</title>
<polyline style="fill:none;stroke:black;" points="718,-867 922,-867 "/>
<path style="fill:none;stroke:black;" d="M922,-867C928,-867 934,-873 934,-879"/>
<polyline style="fill:none;stroke:black;" points="934,-879 934,-1143 "/>
<path style="fill:none;stroke:black;" d="M934,-1143C934,-1149 928,-1155 922,-1155"/>
<polyline style="fill:none;stroke:black;" points="922,-1155 718,-1155 "/>
<path style="fill:none;stroke:black;" d="M718,-1155C712,-1155 706,-1149 706,-1143"/>
<polyline style="fill:none;stroke:black;" points="706,-1143 706,-879 "/>
<path style="fill:none;stroke:black;" d="M706,-879C706,-873 712,-867 718,-867"/>
<text text-anchor="middle" x="820" y="-1137.9" style="font-family:Times New Roman;font-size:11px;">User</text>
<polyline style="fill:none;stroke:black;" points="706,-1130 934,-1130 "/>
<text text-anchor="start" x="714" y="-1112.9" style="font-family:Times New Roman;font-size:11px;">login :string</text>
<text text-anchor="start" x="714" y="-1095.9" style="font-family:Times New Roman;font-size:11px;">email :string</text>
<text text-anchor="start" x="714" y="-1078.9" style="font-family:Times New Roman;font-size:11px;">name :string</text>
<text text-anchor="start" x="714" y="-1061.9" style="font-family:Times New Roman;font-size:11px;">homesite :string</text>
<text text-anchor="start" x="714" y="-1044.9" style="font-family:Times New Roman;font-size:11px;">role :string</text>
<text text-anchor="start" x="714" y="-1027.9" style="font-family:Times New Roman;font-size:11px;">state :string</text>
<text text-anchor="start" x="714" y="-1010.9" style="font-family:Times New Roman;font-size:11px;">salt :string</text>
<text text-anchor="start" x="714" y="-993.9" style="font-family:Times New Roman;font-size:11px;">remember_token :string</text>
<text text-anchor="start" x="714" y="-976.9" style="font-family:Times New Roman;font-size:11px;">remember_token_expires_at :datetime</text>
<text text-anchor="start" x="714" y="-959.9" style="font-family:Times New Roman;font-size:11px;">crypted_password :string</text>
<text text-anchor="start" x="714" y="-942.9" style="font-family:Times New Roman;font-size:11px;">activation_code :string</text>
<text text-anchor="start" x="714" y="-925.9" style="font-family:Times New Roman;font-size:11px;">activated_at :datetime</text>
<text text-anchor="start" x="714" y="-908.9" style="font-family:Times New Roman;font-size:11px;">deleted_at :datetime</text>
<text text-anchor="start" x="714" y="-891.9" style="font-family:Times New Roman;font-size:11px;">created_at :datetime</text>
<text text-anchor="start" x="714" y="-874.9" style="font-family:Times New Roman;font-size:11px;">updated_at :datetime</text>
</g>
<!-- Content&#45;&gt;User -->
<g id="edge26" class="edge"><title>Content&#45;&gt;User</title>
<path style="fill:none;stroke:black;" d="M652,-838C665,-852 681,-868 700,-887"/>
<ellipse style="fill:none;stroke:black;" cx="648.828" cy="-834.828" rx="4.00002" ry="4.00002"/>
<ellipse style="fill:black;stroke:black;" cx="703.172" cy="-890.172" rx="4.00002" ry="4.00002"/>
</g>
<!-- News -->
<g id="node23" class="node"><title>News</title>
<ellipse style="fill:none;stroke:black;" cx="847" cy="-346" rx="32.8565" ry="18"/>
<text text-anchor="middle" x="847" y="-341.9" style="font-family:Times New Roman;font-size:11px;">News</text>
</g>
<!-- Content&#45;&gt;News -->
<g id="edge68" class="edge"><title>Content&#45;&gt;News</title>
<path style="fill:none;stroke:black;" d="M642,-788C683,-702 805,-435 839,-364"/>
<polygon style="fill:none;stroke:black;" points="638.863,-786.44 638,-797 645.26,-789.283 638.863,-786.44"/>
</g>
<!-- WikiPage -->
<g id="node24" class="node"><title>WikiPage</title>
<ellipse style="fill:none;stroke:black;" cx="392" cy="-948" rx="47.9469" ry="18"/>
<text text-anchor="middle" x="392" y="-943.9" style="font-family:Times New Roman;font-size:11px;">WikiPage</text>
</g>
<!-- Content&#45;&gt;WikiPage -->
<g id="edge72" class="edge"><title>Content&#45;&gt;WikiPage</title>
<path style="fill:none;stroke:black;" d="M596,-834C548,-861 462,-909 419,-933"/>
<polygon style="fill:none;stroke:black;" points="597.958,-836.916 605,-829 594.559,-830.797 597.958,-836.916"/>
</g>
<!-- Diary&#45;&gt;Slug -->
<g id="edge30" class="edge"><title>Diary&#45;&gt;Slug</title>
<path style="fill:none;stroke:black;" d="M377,-629C387,-573 410,-448 421,-393"/>
<polygon style="fill:black;stroke:black;" points="376.961,-629.194 370.587,-638.117 375.981,-634.097 375,-639 375,-639 375,-639 375.981,-634.097 379.413,-639.883 376.961,-629.194 376.961,-629.194"/>
<ellipse style="fill:black;stroke:black;" cx="421.504" cy="-388.969" rx="4.00001" ry="4.00001"/>
</g>
<!-- Relevance -->
<g id="node10" class="node"><title>Relevance</title>
<polyline style="fill:none;stroke:black;" points="47,-1209 150,-1209 "/>
<path style="fill:none;stroke:black;" d="M150,-1209C156,-1209 162,-1215 162,-1221"/>
<polyline style="fill:none;stroke:black;" points="162,-1221 162,-1264 "/>
<path style="fill:none;stroke:black;" d="M162,-1264C162,-1270 156,-1276 150,-1276"/>
<polyline style="fill:none;stroke:black;" points="150,-1276 47,-1276 "/>
<path style="fill:none;stroke:black;" d="M47,-1276C41,-1276 35,-1270 35,-1264"/>
<polyline style="fill:none;stroke:black;" points="35,-1264 35,-1221 "/>
<path style="fill:none;stroke:black;" d="M35,-1221C35,-1215 41,-1209 47,-1209"/>
<text text-anchor="middle" x="98" y="-1258.9" style="font-family:Times New Roman;font-size:11px;">Relevance</text>
<polyline style="fill:none;stroke:black;" points="35,-1251 162,-1251 "/>
<text text-anchor="start" x="42.5" y="-1234.4" style="font-family:Times New Roman;font-size:11px;">vote :boolean</text>
<text text-anchor="start" x="42.5" y="-1217.4" style="font-family:Times New Roman;font-size:11px;">created_at :datetime</text>
</g>
<!-- Comment&#45;&gt;Relevance -->
<g id="edge34" class="edge"><title>Comment&#45;&gt;Relevance</title>
<path style="fill:none;stroke:black;" d="M385,-1254C319,-1251 232,-1248 170,-1245"/>
<polygon style="fill:black;stroke:black;" points="385,-1254 395,-1258.5 390,-1254 395,-1254 395,-1254 395,-1254 390,-1254 395,-1249.5 385,-1254 385,-1254"/>
<ellipse style="fill:black;stroke:black;" cx="166" cy="-1245" rx="4" ry="4"/>
</g>
<!-- TagList -->
<g id="node12" class="node"><title>TagList</title>
<polygon style="fill:none;stroke:black;" points="433,-598 433,-648 491,-648 491,-598 433,-598"/>
<text text-anchor="middle" x="462" y="-630.9" style="font-family:Times New Roman;font-size:11px;">TagList</text>
<polyline style="fill:none;stroke:black;" points="433,-623 491,-623 "/>
<text text-anchor="middle" x="462" y="-605.9" style="font-family:Times New Roman;font-size:11px;"> </text>
</g>
<!-- Board -->
<g id="node13" class="node"><title>Board</title>
<polyline style="fill:none;stroke:black;" points="741,-1 844,-1 "/>
<path style="fill:none;stroke:black;" d="M844,-1C850,-1 856,-7 856,-13"/>
<polyline style="fill:none;stroke:black;" points="856,-13 856,-107 "/>
<path style="fill:none;stroke:black;" d="M856,-107C856,-113 850,-119 844,-119"/>
<polyline style="fill:none;stroke:black;" points="844,-119 741,-119 "/>
<path style="fill:none;stroke:black;" d="M741,-119C735,-119 729,-113 729,-107"/>
<polyline style="fill:none;stroke:black;" points="729,-107 729,-13 "/>
<path style="fill:none;stroke:black;" d="M729,-13C729,-7 735,-1 741,-1"/>
<text text-anchor="middle" x="792" y="-101.9" style="font-family:Times New Roman;font-size:11px;">Board</text>
<polyline style="fill:none;stroke:black;" points="729,-94 856,-94 "/>
<text text-anchor="start" x="736.5" y="-76.9" style="font-family:Times New Roman;font-size:11px;">login :string</text>
<text text-anchor="start" x="736.5" y="-59.9" style="font-family:Times New Roman;font-size:11px;">user_agent :string</text>
<text text-anchor="start" x="736.5" y="-42.9" style="font-family:Times New Roman;font-size:11px;">object_type :string</text>
<text text-anchor="start" x="736.5" y="-25.9" style="font-family:Times New Roman;font-size:11px;">message :text</text>
<text text-anchor="start" x="736.5" y="-8.9" style="font-family:Times New Roman;font-size:11px;">created_at :datetime</text>
</g>
<!-- PollIp -->
<g id="node14" class="node"><title>PollIp</title>
<polyline style="fill:none;stroke:black;" points="985,-433 1031,-433 "/>
<path style="fill:none;stroke:black;" d="M1031,-433C1037,-433 1043,-439 1043,-445"/>
<polyline style="fill:none;stroke:black;" points="1043,-445 1043,-471 "/>
<path style="fill:none;stroke:black;" d="M1043,-471C1043,-477 1037,-483 1031,-483"/>
<polyline style="fill:none;stroke:black;" points="1031,-483 985,-483 "/>
<path style="fill:none;stroke:black;" d="M985,-483C979,-483 973,-477 973,-471"/>
<polyline style="fill:none;stroke:black;" points="973,-471 973,-445 "/>
<path style="fill:none;stroke:black;" d="M973,-445C973,-439 979,-433 985,-433"/>
<text text-anchor="middle" x="1008" y="-465.9" style="font-family:Times New Roman;font-size:11px;">PollIp</text>
<polyline style="fill:none;stroke:black;" points="973,-458 1043,-458 "/>
<text text-anchor="start" x="981" y="-440.9" style="font-family:Times New Roman;font-size:11px;">ip :integer</text>
</g>
<!-- Tracker&#45;&gt;Slug -->
<g id="edge38" class="edge"><title>Tracker&#45;&gt;Slug</title>
<path style="fill:none;stroke:black;" d="M835,-567C749,-525 534,-420 456,-382"/>
<polygon style="fill:black;stroke:black;" points="835.258,-567.144 841.815,-575.934 839.629,-569.572 844,-572 844,-572 844,-572 839.629,-569.572 846.185,-568.066 835.258,-567.144 835.258,-567.144"/>
<ellipse style="fill:black;stroke:black;" cx="451.578" cy="-379.789" rx="4.00002" ry="4.00002"/>
</g>
<!-- Link -->
<g id="node16" class="node"><title>Link</title>
<polyline style="fill:none;stroke:black;" points="1122,-36 1230,-36 "/>
<path style="fill:none;stroke:black;" d="M1230,-36C1236,-36 1242,-42 1242,-48"/>
<polyline style="fill:none;stroke:black;" points="1242,-48 1242,-159 "/>
<path style="fill:none;stroke:black;" d="M1242,-159C1242,-165 1236,-171 1230,-171"/>
<polyline style="fill:none;stroke:black;" points="1230,-171 1122,-171 "/>
<path style="fill:none;stroke:black;" d="M1122,-171C1116,-171 1110,-165 1110,-159"/>
<polyline style="fill:none;stroke:black;" points="1110,-159 1110,-48 "/>
<path style="fill:none;stroke:black;" d="M1110,-48C1110,-42 1116,-36 1122,-36"/>
<text text-anchor="middle" x="1176" y="-153.9" style="font-family:Times New Roman;font-size:11px;">Link</text>
<polyline style="fill:none;stroke:black;" points="1110,-146 1242,-146 "/>
<text text-anchor="start" x="1118" y="-129.4" style="font-family:Times New Roman;font-size:11px;">title :string</text>
<text text-anchor="start" x="1118" y="-112.4" style="font-family:Times New Roman;font-size:11px;">url :string</text>
<text text-anchor="start" x="1118" y="-95.4" style="font-family:Times New Roman;font-size:11px;">lang :string</text>
<text text-anchor="start" x="1118" y="-78.4" style="font-family:Times New Roman;font-size:11px;">nb_clicks :integer</text>
<text text-anchor="start" x="1118" y="-61.4" style="font-family:Times New Roman;font-size:11px;">created_at :datetime</text>
<text text-anchor="start" x="1118" y="-44.4" style="font-family:Times New Roman;font-size:11px;">updated_at :datetime</text>
</g>
<!-- Post&#45;&gt;Slug -->
<g id="edge42" class="edge"><title>Post&#45;&gt;Slug</title>
<path style="fill:none;stroke:black;" d="M602,-509C562,-477 488,-417 449,-386"/>
<polygon style="fill:black;stroke:black;" points="602,-509 607.3,-518.6 606,-512 610,-515 610,-515 610,-515 606,-512 612.7,-511.4 602,-509 602,-509"/>
<ellipse style="fill:black;stroke:black;" cx="446.073" cy="-383.561" rx="4.00002" ry="4.00002"/>
</g>
<!-- UserMailer -->
<g id="node19" class="node"><title>UserMailer</title>
<polygon style="fill:none;stroke:black;" points="973,-595 973,-645 1050,-645 1050,-595 973,-595"/>
<text text-anchor="middle" x="1011" y="-627.9" style="font-family:Times New Roman;font-size:11px;">UserMailer</text>
<polyline style="fill:none;stroke:black;" points="973,-620 1050,-620 "/>
<text text-anchor="middle" x="1011" y="-602.9" style="font-family:Times New Roman;font-size:11px;"> </text>
</g>
<!-- User&#45;&gt;Tag -->
<g id="edge50" class="edge"><title>User&#45;&gt;Tag</title>
<path style="fill:none;stroke:black;" d="M804,-1165C800,-1201 796,-1235 794,-1260"/>
<polygon style="fill:black;stroke:black;" points="804.005,-1164.95 809.478,-1155.45 804.502,-1159.98 805,-1155 805,-1155 805,-1155 804.502,-1159.98 800.522,-1154.55 804.005,-1164.95 804.005,-1164.95"/>
<polygon style="fill:black;stroke:black;" points="793.995,-1260.05 788.522,-1269.55 793.498,-1265.02 793,-1270 793,-1270 793,-1270 793.498,-1265.02 797.478,-1270.45 793.995,-1260.05 793.995,-1260.05"/>
</g>
<!-- User&#45;&gt;Node -->
<g id="edge48" class="edge"><title>User&#45;&gt;Node</title>
<path style="fill:none;stroke:black;" d="M891,-858C893,-855 894,-852 895,-849"/>
<polygon style="fill:black;stroke:black;" points="891.061,-857.862 882.888,-865.172 889.031,-862.431 887,-867 887,-867 887,-867 889.031,-862.431 891.112,-868.828 891.061,-857.862 891.061,-857.862"/>
<ellipse style="fill:black;stroke:black;" cx="897.015" cy="-845.473" rx="4.00002" ry="4.00002"/>
</g>
<!-- User&#45;&gt;Relevance -->
<g id="edge56" class="edge"><title>User&#45;&gt;Relevance</title>
<path style="fill:none;stroke:black;" d="M696,-1051C545,-1100 292,-1180 170,-1219"/>
<polygon style="fill:black;stroke:black;" points="696.422,-1050.87 707.293,-1052.31 701.211,-1049.44 706,-1048 706,-1048 706,-1048 701.211,-1049.44 704.707,-1043.69 696.422,-1050.87 696.422,-1050.87"/>
<ellipse style="fill:black;stroke:black;" cx="165.745" cy="-1220.6" rx="4.00001" ry="4.00001"/>
</g>
<!-- User&#45;&gt;Comment -->
<g id="edge58" class="edge"><title>User&#45;&gt;Comment</title>
<path style="fill:none;stroke:black;" d="M698,-1097C649,-1131 596,-1169 552,-1199"/>
<polygon style="fill:black;stroke:black;" points="698,-1097 708.7,-1094.6 702,-1094 706,-1091 706,-1091 706,-1091 702,-1094 703.3,-1087.4 698,-1097 698,-1097"/>
<ellipse style="fill:black;stroke:black;" cx="548.255" cy="-1201.68" rx="4.00002" ry="4.00002"/>
</g>
<!-- User&#45;&gt;Tagging -->
<g id="edge54" class="edge"><title>User&#45;&gt;Tagging</title>
<path style="fill:none;stroke:black;" d="M943,-964C1008,-940 1085,-912 1139,-891"/>
<polygon style="fill:black;stroke:black;" points="943.138,-963.939 932.172,-963.888 938.569,-965.969 934,-968 934,-968 934,-968 938.569,-965.969 935.828,-972.112 943.138,-963.939 943.138,-963.939"/>
<ellipse style="fill:black;stroke:black;" cx="1143.25" cy="-889.405" rx="4.00001" ry="4.00001"/>
</g>
<!-- User&#45;&gt;Vote -->
<g id="edge52" class="edge"><title>User&#45;&gt;Vote</title>
<path style="fill:none;stroke:black;" d="M943,-1093C1001,-1131 1066,-1175 1112,-1206"/>
<polygon style="fill:black;stroke:black;" points="942.321,-1092.55 936.496,-1083.26 938.16,-1089.77 934,-1087 934,-1087 934,-1087 938.16,-1089.77 931.504,-1090.74 942.321,-1092.55 942.321,-1092.55"/>
<ellipse style="fill:black;stroke:black;" cx="1115.75" cy="-1208.68" rx="4.00002" ry="4.00002"/>
</g>
<!-- Category -->
<g id="node22" class="node"><title>Category</title>
<polyline style="fill:none;stroke:black;" points="1146,-458 1254,-458 "/>
<path style="fill:none;stroke:black;" d="M1254,-458C1260,-458 1266,-464 1266,-470"/>
<polyline style="fill:none;stroke:black;" points="1266,-470 1266,-530 "/>
<path style="fill:none;stroke:black;" d="M1266,-530C1266,-536 1260,-542 1254,-542"/>
<polyline style="fill:none;stroke:black;" points="1254,-542 1146,-542 "/>
<path style="fill:none;stroke:black;" d="M1146,-542C1140,-542 1134,-536 1134,-530"/>
<polyline style="fill:none;stroke:black;" points="1134,-530 1134,-470 "/>
<path style="fill:none;stroke:black;" d="M1134,-470C1134,-464 1140,-458 1146,-458"/>
<text text-anchor="middle" x="1200" y="-524.9" style="font-family:Times New Roman;font-size:11px;">Category</text>
<polyline style="fill:none;stroke:black;" points="1134,-517 1266,-517 "/>
<text text-anchor="start" x="1142" y="-499.9" style="font-family:Times New Roman;font-size:11px;">title :string</text>
<text text-anchor="start" x="1142" y="-482.9" style="font-family:Times New Roman;font-size:11px;">created_at :datetime</text>
<text text-anchor="start" x="1142" y="-465.9" style="font-family:Times New Roman;font-size:11px;">updated_at :datetime</text>
</g>
<!-- Category&#45;&gt;Tracker -->
<g id="edge60" class="edge"><title>Category&#45;&gt;Tracker</title>
<path style="fill:none;stroke:black;" d="M1124,-520C1059,-537 968,-561 915,-574"/>
<polygon style="fill:black;stroke:black;" points="1124.42,-519.874 1135.29,-521.31 1129.21,-518.437 1134,-517 1134,-517 1134,-517 1129.21,-518.437 1132.71,-512.69 1124.42,-519.874 1124.42,-519.874"/>
<ellipse style="fill:black;stroke:black;" cx="910.881" cy="-575.03" rx="4.00001" ry="4.00001"/>
</g>
<!-- News&#45;&gt;Board -->
<g id="edge64" class="edge"><title>News&#45;&gt;Board</title>
<path style="fill:none;stroke:black;" d="M841,-318C832,-274 816,-188 805,-127"/>
<polygon style="fill:black;stroke:black;" points="841.039,-318.194 838.587,-328.883 842.019,-323.097 843,-328 843,-328 843,-328 842.019,-323.097 847.413,-327.117 841.039,-318.194 841.039,-318.194"/>
<ellipse style="fill:black;stroke:black;" cx="803.97" cy="-122.881" rx="4.00001" ry="4.00001"/>
</g>
<!-- News&#45;&gt;Link -->
<g id="edge66" class="edge"><title>News&#45;&gt;Link</title>
<path style="fill:none;stroke:black;" d="M864,-320C875,-304 892,-283 910,-268 969,-216 1046,-170 1103,-140"/>
<polygon style="fill:black;stroke:black;" points="863.547,-320.679 854.256,-326.504 860.774,-324.84 858,-329 858,-329 858,-329 860.774,-324.84 861.744,-331.496 863.547,-320.679 863.547,-320.679"/>
<ellipse style="fill:black;stroke:black;" cx="1106.53" cy="-137.985" rx="4.00002" ry="4.00002"/>
</g>
<!-- News&#45;&gt;Slug -->
<g id="edge62" class="edge"><title>News&#45;&gt;Slug</title>
<path style="fill:none;stroke:black;" d="M804,-348C720,-353 538,-361 461,-366"/>
<polygon style="fill:black;stroke:black;" points="804,-348 814,-352.5 809,-348 814,-348 814,-348 814,-348 809,-348 814,-343.5 804,-348 804,-348"/>
<ellipse style="fill:black;stroke:black;" cx="457" cy="-366" rx="4" ry="4"/>
</g>
<!-- WikiPage&#45;&gt;Slug -->
<g id="edge70" class="edge"><title>WikiPage&#45;&gt;Slug</title>
<path style="fill:none;stroke:black;" d="M394,-920C399,-821 418,-489 424,-393"/>
<polygon style="fill:black;stroke:black;" points="393.995,-920.05 388.522,-929.552 393.498,-925.025 393,-930 393,-930 393,-930 393.498,-925.025 397.478,-930.448 393.995,-920.05 393.995,-920.05"/>
<ellipse style="fill:black;stroke:black;" cx="424" cy="-389" rx="4" ry="4"/>
</g>
<!-- Section -->
<g id="node25" class="node"><title>Section</title>
<polyline style="fill:none;stroke:black;" points="40,-54 148,-54 "/>
<path style="fill:none;stroke:black;" d="M148,-54C154,-54 160,-60 160,-66"/>
<polyline style="fill:none;stroke:black;" points="160,-66 160,-143 "/>
<path style="fill:none;stroke:black;" d="M160,-143C160,-149 154,-155 148,-155"/>
<polyline style="fill:none;stroke:black;" points="148,-155 40,-155 "/>
<path style="fill:none;stroke:black;" d="M40,-155C34,-155 28,-149 28,-143"/>
<polyline style="fill:none;stroke:black;" points="28,-143 28,-66 "/>
<path style="fill:none;stroke:black;" d="M28,-66C28,-60 34,-54 40,-54"/>
<text text-anchor="middle" x="94" y="-137.9" style="font-family:Times New Roman;font-size:11px;">Section</text>
<polyline style="fill:none;stroke:black;" points="28,-130 160,-130 "/>
<text text-anchor="start" x="36" y="-113.4" style="font-family:Times New Roman;font-size:11px;">state :string</text>
<text text-anchor="start" x="36" y="-96.4" style="font-family:Times New Roman;font-size:11px;">title :string</text>
<text text-anchor="start" x="36" y="-79.4" style="font-family:Times New Roman;font-size:11px;">created_at :datetime</text>
<text text-anchor="start" x="36" y="-62.4" style="font-family:Times New Roman;font-size:11px;">updated_at :datetime</text>
</g>
<!-- Section&#45;&gt;News -->
<g id="edge76" class="edge"><title>Section&#45;&gt;News</title>
<path style="fill:none;stroke:black;" d="M170,-129C329,-181 693,-297 810,-334"/>
<polygon style="fill:black;stroke:black;" points="169.578,-128.874 161.293,-121.69 164.789,-127.437 160,-126 160,-126 160,-126 164.789,-127.437 158.707,-130.31 169.578,-128.874 169.578,-128.874"/>
<ellipse style="fill:black;stroke:black;" cx="814.255" cy="-335.595" rx="4.00001" ry="4.00001"/>
</g>
<!-- Section&#45;&gt;Slug -->
<g id="edge74" class="edge"><title>Section&#45;&gt;Slug</title>
<path style="fill:none;stroke:black;" d="M165,-161C239,-220 352,-309 401,-348"/>
<polygon style="fill:black;stroke:black;" points="165,-161 159.7,-151.4 161,-158 157,-155 157,-155 157,-155 161,-158 154.3,-158.6 165,-161 165,-161"/>
<ellipse style="fill:black;stroke:black;" cx="403.927" cy="-350.439" rx="4.00002" ry="4.00002"/>
</g>
<!-- ActiveRecord::Observer -->
<g id="node32" class="node"><title>ActiveRecord::Observer</title>
<ellipse style="fill:none;stroke:black;" cx="1087" cy="-404" rx="105.122" ry="18"/>
<text text-anchor="middle" x="1087" y="-399.9" style="font-family:Times New Roman;font-size:11px;">ActiveRecord::Observer</text>
</g>
<!-- ActiveRecord::Observer&#45;&gt;UserObserver -->
<g id="edge12" class="edge"><title>ActiveRecord::Observer&#45;&gt;UserObserver</title>
<path style="fill:none;stroke:black;" d="M972,-404C968,-404 964,-404 959,-404"/>
<polygon style="fill:none;stroke:black;" points="972,-407.5 982,-404 972,-400.5 972,-407.5"/>
</g>
<!-- Array -->
<g id="node46" class="node"><title>Array</title>
<ellipse style="fill:none;stroke:black;" cx="534" cy="-613" rx="32.8565" ry="18"/>
<text text-anchor="middle" x="534" y="-608.9" style="font-family:Times New Roman;font-size:11px;">Array</text>
</g>
<!-- Array&#45;&gt;TagList -->
<g id="edge36" class="edge"><title>Array&#45;&gt;TagList</title>
<path style="fill:none;stroke:black;" d="M492,-619C492,-619 491,-619 491,-619"/>
<polygon style="fill:none;stroke:black;" points="492.881,-622.393 502,-617 491.508,-615.529 492.881,-622.393"/>
</g>
<!-- ActionMailer::Base -->
<g id="node52" class="node"><title>ActionMailer::Base</title>
<ellipse style="fill:none;stroke:black;" cx="1148" cy="-620" rx="84.0808" ry="18"/>
<text text-anchor="middle" x="1148" y="-615.9" style="font-family:Times New Roman;font-size:11px;">ActionMailer::Base</text>
</g>
<!-- ActionMailer::Base&#45;&gt;UserMailer -->
<g id="edge46" class="edge"><title>ActionMailer::Base&#45;&gt;UserMailer</title>
<path style="fill:none;stroke:black;" d="M1054,-620C1052,-620 1051,-620 1050,-620"/>
<polygon style="fill:none;stroke:black;" points="1054,-623.5 1064,-620 1054,-616.5 1054,-623.5"/>
</g>
</g>
</svg>
