<?xml version="1.0" encoding="UTF-8" standalone="no"?>
<!DOCTYPE svg PUBLIC "-//W3C//DTD SVG 1.0//EN"
 "http://www.w3.org/TR/2001/REC-SVG-20010904/DTD/svg10.dtd" [
 <!ATTLIST svg xmlns:xlink CDATA #FIXED "http://www.w3.org/1999/xlink">
]>
<!-- Generated by Graphviz version 2.20.2 (Wed Sep 16 11:12:11 UTC 2009)
     For user: (nono) Bruno Michel,,, -->
<!-- Title: models_diagram Pages: 1 -->
<svg width="2071pt" height="485pt"
 viewBox="0.00 0.00 2071.00 485.00" xmlns="http://www.w3.org/2000/svg" xmlns:xlink="http://www.w3.org/1999/xlink">
<g id="graph0" class="graph" transform="scale(1 1) rotate(0) translate(4 481)">
<title>models_diagram</title>
<polygon style="fill:white;stroke:white;" points="-4,4 -4,-481 2067,-481 2067,4 -4,4"/>
<g id="cluster2" class="cluster"><title>cluster_poll</title>
<polygon style="fill:none;stroke:black;" points="278,-188 278,-469 516,-469 516,-188 278,-188"/>
<text text-anchor="middle" x="397" y="-452.9" style="font-family:Times New Roman;font-size:11px;">Poll</text>
</g>
<g id="cluster3" class="cluster"><title>cluster_account</title>
<polygon style="fill:none;stroke:black;" points="524,-188 524,-469 659,-469 659,-188 524,-188"/>
<text text-anchor="middle" x="592" y="-452.9" style="font-family:Times New Roman;font-size:11px;">Account</text>
</g>
<g id="cluster4" class="cluster"><title>cluster_tracker</title>
<polygon style="fill:none;stroke:black;" points="667,-278 667,-469 895,-469 895,-278 667,-278"/>
<text text-anchor="middle" x="781" y="-452.9" style="font-family:Times New Roman;font-size:11px;">Tracker</text>
</g>
<g id="cluster5" class="cluster"><title>cluster_user</title>
<polygon style="fill:none;stroke:black;" points="903,-16 903,-465 1419,-465 1419,-16 903,-16"/>
<text text-anchor="middle" x="1161" y="-448.9" style="font-family:Times New Roman;font-size:11px;">User</text>
</g>
<g id="cluster6" class="cluster"><title>cluster_interview</title>
<polygon style="fill:none;stroke:black;" points="1427,-102 1427,-469 1665,-469 1665,-102 1427,-102"/>
<text text-anchor="middle" x="1546" y="-452.9" style="font-family:Times New Roman;font-size:11px;">Interview</text>
</g>
<g id="cluster7" class="cluster"><title>cluster_news</title>
<polygon style="fill:none;stroke:black;" points="1673,-188 1673,-469 1911,-469 1911,-188 1673,-188"/>
<text text-anchor="middle" x="1792" y="-452.9" style="font-family:Times New Roman;font-size:11px;">News</text>
</g>
<g id="cluster8" class="cluster"><title>cluster_section</title>
<polygon style="fill:none;stroke:black;" points="1919,-278 1919,-469 2055,-469 2055,-278 1919,-278"/>
<text text-anchor="middle" x="1987" y="-452.9" style="font-family:Times New Roman;font-size:11px;">Section</text>
</g>
<!-- _diagram_info -->
<g id="node1" class="node"><title>_diagram_info</title>
<text text-anchor="start" x="7.5" y="-435.4" style="font-family:Times New Roman;font-size:11px;">Models diagram</text>
<text text-anchor="start" x="7.5" y="-418.4" style="font-family:Times New Roman;font-size:11px;">Date: Sep 20 2009 &#45; 20:57</text>
<text text-anchor="start" x="7.5" y="-401.4" style="font-family:Times New Roman;font-size:11px;">Migration version: 20090805232718</text>
<text text-anchor="start" x="7.5" y="-384.4" style="font-family:Times New Roman;font-size:11px;">Generated by RailRoad 0.7.6</text>
</g>
<!-- poll_draft -->
<g id="node3" class="node"><title>poll_draft</title>
<ellipse style="fill:none;stroke:black;" cx="385" cy="-414" rx="34.0492" ry="18"/>
<ellipse style="fill:none;stroke:black;" cx="385" cy="-414" rx="38.0492" ry="22"/>
<text text-anchor="middle" x="385" y="-409.9" style="font-family:Times New Roman;font-size:11px;">draft</text>
</g>
<!-- poll_published -->
<g id="node4" class="node"><title>poll_published</title>
<ellipse style="fill:none;stroke:black;" cx="342" cy="-304" rx="55.7874" ry="18"/>
<text text-anchor="middle" x="342" y="-299.9" style="font-family:Times New Roman;font-size:11px;">published</text>
</g>
<!-- poll_draft&#45;&gt;poll_published -->
<g id="edge15" class="edge"><title>poll_draft&#45;&gt;poll_published</title>
<path style="fill:none;stroke:black;" d="M377,-393C370,-375 361,-350 353,-331"/>
<polygon style="fill:black;stroke:black;" points="356.26,-329.717 349,-322 349.863,-332.56 356.26,-329.717"/>
<text text-anchor="middle" x="380" y="-348.5" style="font-family:Times New Roman;font-size:10.00;">accept</text>
</g>
<!-- poll_refused -->
<g id="node6" class="node"><title>poll_refused</title>
<ellipse style="fill:none;stroke:black;" cx="462" cy="-304" rx="46.0565" ry="18"/>
<text text-anchor="middle" x="462" y="-299.9" style="font-family:Times New Roman;font-size:11px;">refused</text>
</g>
<!-- poll_draft&#45;&gt;poll_refused -->
<g id="edge13" class="edge"><title>poll_draft&#45;&gt;poll_refused</title>
<path style="fill:none;stroke:black;" d="M399,-394C412,-376 430,-349 444,-330"/>
<polygon style="fill:black;stroke:black;" points="446.8,-332.1 450,-322 441.2,-327.9 446.8,-332.1"/>
<text text-anchor="middle" x="449" y="-348.5" style="font-family:Times New Roman;font-size:10.00;">refuse</text>
</g>
<!-- poll_archived -->
<g id="node5" class="node"><title>poll_archived</title>
<ellipse style="fill:none;stroke:black;" cx="339" cy="-214" rx="52.1162" ry="18"/>
<text text-anchor="middle" x="339" y="-209.9" style="font-family:Times New Roman;font-size:11px;">archived</text>
</g>
<!-- poll_published&#45;&gt;poll_archived -->
<g id="edge9" class="edge"><title>poll_published&#45;&gt;poll_archived</title>
<path style="fill:none;stroke:black;" d="M341,-286C341,-273 340,-257 340,-242"/>
<polygon style="fill:black;stroke:black;" points="343.5,-242 340,-232 336.5,-242 343.5,-242"/>
<text text-anchor="middle" x="360" y="-254.5" style="font-family:Times New Roman;font-size:10.00;">archive</text>
</g>
<!-- poll_deleted -->
<g id="node7" class="node"><title>poll_deleted</title>
<ellipse style="fill:none;stroke:black;" cx="455" cy="-214" rx="46.0565" ry="18"/>
<text text-anchor="middle" x="455" y="-209.9" style="font-family:Times New Roman;font-size:11px;">deleted</text>
</g>
<!-- poll_published&#45;&gt;poll_deleted -->
<g id="edge11" class="edge"><title>poll_published&#45;&gt;poll_deleted</title>
<path style="fill:none;stroke:black;" d="M363,-287C381,-273 407,-252 427,-236"/>
<polygon style="fill:black;stroke:black;" points="429.1,-238.8 435,-230 424.9,-233.2 429.1,-238.8"/>
<text text-anchor="middle" x="425" y="-254.5" style="font-family:Times New Roman;font-size:10.00;">delete</text>
</g>
<!-- account_passive -->
<g id="node9" class="node"><title>account_passive</title>
<ellipse style="fill:none;stroke:black;" cx="591" cy="-414" rx="45.8622" ry="18"/>
<ellipse style="fill:none;stroke:black;" cx="591" cy="-414" rx="49.8622" ry="22"/>
<text text-anchor="middle" x="591" y="-409.9" style="font-family:Times New Roman;font-size:11px;">passive</text>
</g>
<!-- account_active -->
<g id="node10" class="node"><title>account_active</title>
<ellipse style="fill:none;stroke:black;" cx="591" cy="-304" rx="39.1069" ry="18"/>
<text text-anchor="middle" x="591" y="-299.9" style="font-family:Times New Roman;font-size:11px;">active</text>
</g>
<!-- account_passive&#45;&gt;account_active -->
<g id="edge17" class="edge"><title>account_passive&#45;&gt;account_active</title>
<path style="fill:none;stroke:black;" d="M591,-392C591,-375 591,-351 591,-332"/>
<polygon style="fill:black;stroke:black;" points="594.5,-332 591,-322 587.5,-332 594.5,-332"/>
<text text-anchor="middle" x="610" y="-348.5" style="font-family:Times New Roman;font-size:10.00;">activate</text>
</g>
<!-- account_deleted -->
<g id="node11" class="node"><title>account_deleted</title>
<ellipse style="fill:none;stroke:black;" cx="590" cy="-214" rx="46.0565" ry="18"/>
<text text-anchor="middle" x="590" y="-209.9" style="font-family:Times New Roman;font-size:11px;">deleted</text>
</g>
<!-- account_active&#45;&gt;account_deleted -->
<g id="edge21" class="edge"><title>account_active&#45;&gt;account_deleted</title>
<path style="fill:none;stroke:black;" d="M573,-288C567,-281 561,-273 557,-264 554,-255 557,-246 562,-239"/>
<polygon style="fill:black;stroke:black;" points="565.049,-240.831 569,-231 559.781,-236.221 565.049,-240.831"/>
<text text-anchor="middle" x="575" y="-254.5" style="font-family:Times New Roman;font-size:10.00;">delete</text>
</g>
<!-- account_deleted&#45;&gt;account_active -->
<g id="edge19" class="edge"><title>account_deleted&#45;&gt;account_active</title>
<path style="fill:none;stroke:black;" d="M590,-232C591,-245 591,-261 591,-276"/>
<polygon style="fill:black;stroke:black;" points="587.5,-276 591,-286 594.5,-276 587.5,-276"/>
<text text-anchor="middle" x="615" y="-254.5" style="font-family:Times New Roman;font-size:10.00;">reactivate</text>
</g>
<!-- tracker_open -->
<g id="node13" class="node"><title>tracker_open</title>
<ellipse style="fill:none;stroke:black;" cx="755" cy="-414" rx="34.2929" ry="18"/>
<ellipse style="fill:none;stroke:black;" cx="755" cy="-414" rx="38.2409" ry="22"/>
<text text-anchor="middle" x="755" y="-409.9" style="font-family:Times New Roman;font-size:11px;">open</text>
</g>
<!-- tracker_fixed -->
<g id="node14" class="node"><title>tracker_fixed</title>
<ellipse style="fill:none;stroke:black;" cx="717" cy="-304" rx="32.8565" ry="18"/>
<text text-anchor="middle" x="717" y="-299.9" style="font-family:Times New Roman;font-size:11px;">fixed</text>
</g>
<!-- tracker_open&#45;&gt;tracker_fixed -->
<g id="edge27" class="edge"><title>tracker_open&#45;&gt;tracker_fixed</title>
<path style="fill:none;stroke:black;" d="M736,-395C727,-385 717,-372 712,-358 709,-349 709,-340 710,-332"/>
<polygon style="fill:black;stroke:black;" points="713.471,-332.492 712,-322 706.607,-331.119 713.471,-332.492"/>
<text text-anchor="middle" x="721" y="-348.5" style="font-family:Times New Roman;font-size:10.00;">fix</text>
</g>
<!-- tracker_invalid -->
<g id="node15" class="node"><title>tracker_invalid</title>
<ellipse style="fill:none;stroke:black;" cx="827" cy="-304" rx="41.8891" ry="18"/>
<text text-anchor="middle" x="827" y="-299.9" style="font-family:Times New Roman;font-size:11px;">invalid</text>
</g>
<!-- tracker_open&#45;&gt;tracker_invalid -->
<g id="edge29" class="edge"><title>tracker_open&#45;&gt;tracker_invalid</title>
<path style="fill:none;stroke:black;" d="M760,-392C765,-377 771,-358 781,-344 785,-338 790,-332 796,-327"/>
<polygon style="fill:black;stroke:black;" points="798.779,-329.219 804,-320 794.169,-323.951 798.779,-329.219"/>
<text text-anchor="middle" x="804" y="-348.5" style="font-family:Times New Roman;font-size:10.00;">invalidate</text>
</g>
<!-- tracker_fixed&#45;&gt;tracker_open -->
<g id="edge23" class="edge"><title>tracker_fixed&#45;&gt;tracker_open</title>
<path style="fill:none;stroke:black;" d="M720,-322C722,-333 724,-346 728,-358 731,-367 735,-376 739,-384"/>
<polygon style="fill:black;stroke:black;" points="735.74,-385.283 743,-393 742.137,-382.44 735.74,-385.283"/>
<text text-anchor="middle" x="748" y="-348.5" style="font-family:Times New Roman;font-size:10.00;">reopen</text>
</g>
<!-- tracker_invalid&#45;&gt;tracker_open -->
<g id="edge25" class="edge"><title>tracker_invalid&#45;&gt;tracker_open</title>
<path style="fill:none;stroke:black;" d="M833,-322C835,-333 837,-347 831,-358 823,-374 808,-386 794,-396"/>
<polygon style="fill:black;stroke:black;" points="792.042,-393.084 785,-401 795.441,-399.203 792.042,-393.084"/>
<text text-anchor="middle" x="853" y="-348.5" style="font-family:Times New Roman;font-size:10.00;">reopen</text>
</g>
<!-- user_inactive -->
<g id="node17" class="node"><title>user_inactive</title>
<ellipse style="fill:none;stroke:black;" cx="1107" cy="-414" rx="48.1403" ry="18"/>
<text text-anchor="middle" x="1107" y="-409.9" style="font-family:Times New Roman;font-size:11px;">inactive</text>
</g>
<!-- user_moule -->
<g id="node18" class="node"><title>user_moule</title>
<ellipse style="fill:none;stroke:black;" cx="1018" cy="-304" rx="39.8503" ry="18"/>
<ellipse style="fill:none;stroke:black;" cx="1018" cy="-304" rx="43.8054" ry="22"/>
<text text-anchor="middle" x="1018" y="-299.9" style="font-family:Times New Roman;font-size:11px;">moule</text>
</g>
<!-- user_inactive&#45;&gt;user_moule -->
<g id="edge41" class="edge"><title>user_inactive&#45;&gt;user_moule</title>
<path style="fill:none;stroke:black;" d="M1069,-403C1047,-394 1020,-380 1007,-358 1003,-351 1003,-343 1004,-335"/>
<polygon style="fill:black;stroke:black;" points="1007.48,-335.584 1007,-325 1000.77,-333.573 1007.48,-335.584"/>
<text text-anchor="middle" x="1034" y="-348.5" style="font-family:Times New Roman;font-size:10.00;">reactivate</text>
</g>
<!-- user_moule&#45;&gt;user_inactive -->
<g id="edge31" class="edge"><title>user_moule&#45;&gt;user_inactive</title>
<path style="fill:none;stroke:black;" d="M1040,-323C1046,-330 1053,-337 1059,-344 1071,-357 1083,-374 1091,-387"/>
<polygon style="fill:black;stroke:black;" points="1088.54,-389.621 1097,-396 1094.37,-385.738 1088.54,-389.621"/>
<text text-anchor="middle" x="1095" y="-348.5" style="font-family:Times New Roman;font-size:10.00;">inactivate</text>
</g>
<!-- user_writer -->
<g id="node19" class="node"><title>user_writer</title>
<ellipse style="fill:none;stroke:black;" cx="952" cy="-128" rx="40.9981" ry="18"/>
<text text-anchor="middle" x="952" y="-123.9" style="font-family:Times New Roman;font-size:11px;">writer</text>
</g>
<!-- user_moule&#45;&gt;user_writer -->
<g id="edge43" class="edge"><title>user_moule&#45;&gt;user_writer</title>
<path style="fill:none;stroke:black;" d="M1003,-283C980,-251 936,-190 932,-178 930,-170 931,-162 934,-154"/>
<polygon style="fill:black;stroke:black;" points="937.203,-155.441 939,-145 931.084,-152.042 937.203,-155.441"/>
<text text-anchor="middle" x="1011" y="-211.5" style="font-family:Times New Roman;font-size:10.00;">give_writer_rights</text>
</g>
<!-- user_reviewer -->
<g id="node20" class="node"><title>user_reviewer</title>
<ellipse style="fill:none;stroke:black;" cx="1121" cy="-214" rx="54.2008" ry="18"/>
<text text-anchor="middle" x="1121" y="-209.9" style="font-family:Times New Roman;font-size:11px;">reviewer</text>
</g>
<!-- user_moule&#45;&gt;user_reviewer -->
<g id="edge47" class="edge"><title>user_moule&#45;&gt;user_reviewer</title>
<path style="fill:none;stroke:black;" d="M1019,-282C1021,-271 1024,-259 1032,-250 1041,-240 1053,-232 1066,-227"/>
<polygon style="fill:black;stroke:black;" points="1067.28,-230.26 1075,-223 1064.44,-223.863 1067.28,-230.26"/>
<text text-anchor="middle" x="1081" y="-254.5" style="font-family:Times New Roman;font-size:10.00;">give_reviewer_rights</text>
</g>
<!-- user_writer&#45;&gt;user_inactive -->
<g id="edge33" class="edge"><title>user_writer&#45;&gt;user_inactive</title>
<path style="fill:none;stroke:black;" d="M938,-145C934,-151 930,-157 928,-164 927,-169 928,-171 928,-178 929,-216 921,-227 931,-264 940,-294 946,-301 965,-326 991,-359 1033,-382 1065,-397"/>
<polygon style="fill:black;stroke:black;" points="1063.44,-400.137 1074,-401 1066.28,-393.74 1063.44,-400.137"/>
<text text-anchor="middle" x="958" y="-254.5" style="font-family:Times New Roman;font-size:10.00;">inactivate</text>
</g>
<!-- user_writer&#45;&gt;user_reviewer -->
<g id="edge49" class="edge"><title>user_writer&#45;&gt;user_reviewer</title>
<path style="fill:none;stroke:black;" d="M941,-146C936,-156 932,-169 940,-178 957,-195 1024,-182 1047,-188 1057,-190 1068,-193 1077,-196"/>
<polygon style="fill:black;stroke:black;" points="1076.42,-199.536 1087,-200 1079.02,-193.036 1076.42,-199.536"/>
<text text-anchor="middle" x="992" y="-168.5" style="font-family:Times New Roman;font-size:10.00;">give_reviewer_rights</text>
</g>
<!-- user_reviewer&#45;&gt;user_inactive -->
<g id="edge35" class="edge"><title>user_reviewer&#45;&gt;user_inactive</title>
<path style="fill:none;stroke:black;" d="M1126,-232C1128,-238 1129,-244 1129,-250 1130,-256 1130,-257 1129,-264 1128,-305 1130,-316 1122,-358 1121,-367 1118,-377 1116,-386"/>
<polygon style="fill:black;stroke:black;" points="1112.52,-385.416 1113,-396 1119.23,-387.427 1112.52,-385.416"/>
<text text-anchor="middle" x="1153" y="-301.5" style="font-family:Times New Roman;font-size:10.00;">inactivate</text>
</g>
<!-- user_reviewer&#45;&gt;user_writer -->
<g id="edge45" class="edge"><title>user_reviewer&#45;&gt;user_writer</title>
<path style="fill:none;stroke:black;" d="M1097,-198C1077,-185 1052,-169 1041,-164 1026,-156 1009,-149 994,-143"/>
<polygon style="fill:black;stroke:black;" points="994.585,-139.464 984,-139 991.985,-145.964 994.585,-139.464"/>
<text text-anchor="middle" x="1110" y="-168.5" style="font-family:Times New Roman;font-size:10.00;">give_writer_rights</text>
</g>
<!-- user_moderator -->
<g id="node21" class="node"><title>user_moderator</title>
<ellipse style="fill:none;stroke:black;" cx="1289" cy="-128" rx="61.1496" ry="18"/>
<text text-anchor="middle" x="1289" y="-123.9" style="font-family:Times New Roman;font-size:11px;">moderator</text>
</g>
<!-- user_reviewer&#45;&gt;user_moderator -->
<g id="edge53" class="edge"><title>user_reviewer&#45;&gt;user_moderator</title>
<path style="fill:none;stroke:black;" d="M1170,-206C1207,-200 1253,-190 1267,-178 1274,-172 1279,-164 1282,-156"/>
<polygon style="fill:black;stroke:black;" points="1285.48,-156.584 1285,-146 1278.77,-154.573 1285.48,-156.584"/>
<text text-anchor="middle" x="1333" y="-168.5" style="font-family:Times New Roman;font-size:10.00;">give_moderator_rights</text>
</g>
<!-- user_moderator&#45;&gt;user_inactive -->
<g id="edge37" class="edge"><title>user_moderator&#45;&gt;user_inactive</title>
<path style="fill:none;stroke:black;" d="M1344,-136C1376,-143 1408,-156 1391,-178 1377,-195 1362,-177 1342,-188 1293,-214 1178,-336 1130,-389"/>
<polygon style="fill:black;stroke:black;" points="1126.95,-387.169 1123,-397 1132.22,-391.779 1126.95,-387.169"/>
<text text-anchor="middle" x="1289" y="-254.5" style="font-family:Times New Roman;font-size:10.00;">inactivate</text>
</g>
<!-- user_moderator&#45;&gt;user_reviewer -->
<g id="edge51" class="edge"><title>user_moderator&#45;&gt;user_reviewer</title>
<path style="fill:none;stroke:black;" d="M1237,-138C1215,-143 1191,-152 1170,-164 1159,-170 1150,-180 1142,-188"/>
<polygon style="fill:black;stroke:black;" points="1138.95,-186.169 1135,-196 1144.22,-190.779 1138.95,-186.169"/>
<text text-anchor="middle" x="1219" y="-168.5" style="font-family:Times New Roman;font-size:10.00;">give_reviewer_rights</text>
</g>
<!-- user_admin -->
<g id="node22" class="node"><title>user_admin</title>
<ellipse style="fill:none;stroke:black;" cx="1296" cy="-42" rx="39.8056" ry="18"/>
<text text-anchor="middle" x="1296" y="-37.9" style="font-family:Times New Roman;font-size:11px;">admin</text>
</g>
<!-- user_moderator&#45;&gt;user_admin -->
<g id="edge57" class="edge"><title>user_moderator&#45;&gt;user_admin</title>
<path style="fill:none;stroke:black;" d="M1239,-118C1213,-110 1189,-97 1202,-78 1208,-68 1230,-60 1251,-54"/>
<polygon style="fill:black;stroke:black;" points="1252.43,-57.2259 1261,-51 1250.42,-50.5212 1252.43,-57.2259"/>
<text text-anchor="middle" x="1246" y="-82.5" style="font-family:Times New Roman;font-size:10.00;">give_admin_rights</text>
</g>
<!-- user_admin&#45;&gt;user_inactive -->
<g id="edge39" class="edge"><title>user_admin&#45;&gt;user_inactive</title>
<path style="fill:none;stroke:black;" d="M1333,-49C1361,-56 1397,-66 1405,-78 1432,-114 1426,-141 1400,-178 1394,-187 1386,-181 1376,-188 1342,-213 1348,-234 1316,-264 1261,-316 1185,-366 1142,-393"/>
<polygon style="fill:black;stroke:black;" points="1139.38,-390.541 1133,-399 1143.26,-396.365 1139.38,-390.541"/>
<text text-anchor="middle" x="1400" y="-211.5" style="font-family:Times New Roman;font-size:10.00;">inactivate</text>
</g>
<!-- user_admin&#45;&gt;user_moderator -->
<g id="edge55" class="edge"><title>user_admin&#45;&gt;user_moderator</title>
<path style="fill:none;stroke:black;" d="M1295,-60C1293,-72 1292,-87 1291,-100"/>
<polygon style="fill:black;stroke:black;" points="1287.51,-99.7013 1290,-110 1294.48,-100.398 1287.51,-99.7013"/>
<text text-anchor="middle" x="1348" y="-82.5" style="font-family:Times New Roman;font-size:10.00;">give_moderator_rights</text>
</g>
<!-- interview_draft -->
<g id="node24" class="node"><title>interview_draft</title>
<ellipse style="fill:none;stroke:black;" cx="1482" cy="-414" rx="34.0492" ry="18"/>
<ellipse style="fill:none;stroke:black;" cx="1482" cy="-414" rx="38.0492" ry="22"/>
<text text-anchor="middle" x="1482" y="-409.9" style="font-family:Times New Roman;font-size:11px;">draft</text>
</g>
<!-- interview_open -->
<g id="node25" class="node"><title>interview_open</title>
<ellipse style="fill:none;stroke:black;" cx="1530" cy="-304" rx="34.2406" ry="18"/>
<text text-anchor="middle" x="1530" y="-299.9" style="font-family:Times New Roman;font-size:11px;">open</text>
</g>
<!-- interview_draft&#45;&gt;interview_open -->
<g id="edge71" class="edge"><title>interview_draft&#45;&gt;interview_open</title>
<path style="fill:none;stroke:black;" d="M1491,-393C1499,-375 1510,-350 1518,-331"/>
<polygon style="fill:black;stroke:black;" points="1521.14,-332.56 1522,-322 1514.74,-329.717 1521.14,-332.56"/>
<text text-anchor="middle" x="1529" y="-348.5" style="font-family:Times New Roman;font-size:10.00;">accept</text>
</g>
<!-- interview_refused -->
<g id="node28" class="node"><title>interview_refused</title>
<ellipse style="fill:none;stroke:black;" cx="1481" cy="-128" rx="46.0565" ry="18"/>
<text text-anchor="middle" x="1481" y="-123.9" style="font-family:Times New Roman;font-size:11px;">refused</text>
</g>
<!-- interview_draft&#45;&gt;interview_refused -->
<g id="edge65" class="edge"><title>interview_draft&#45;&gt;interview_refused</title>
<path style="fill:none;stroke:black;" d="M1476,-392C1469,-361 1457,-301 1460,-250 1464,-211 1468,-202 1474,-164 1474,-161 1475,-159 1475,-156"/>
<polygon style="fill:black;stroke:black;" points="1478.47,-156.492 1477,-146 1471.61,-155.119 1478.47,-156.492"/>
<text text-anchor="middle" x="1475" y="-254.5" style="font-family:Times New Roman;font-size:10.00;">refuse</text>
</g>
<!-- interview_sent -->
<g id="node26" class="node"><title>interview_sent</title>
<ellipse style="fill:none;stroke:black;" cx="1555" cy="-214" rx="31.9646" ry="18"/>
<text text-anchor="middle" x="1555" y="-209.9" style="font-family:Times New Roman;font-size:11px;">sent</text>
</g>
<!-- interview_open&#45;&gt;interview_sent -->
<g id="edge59" class="edge"><title>interview_open&#45;&gt;interview_sent</title>
<path style="fill:none;stroke:black;" d="M1535,-286C1538,-273 1543,-256 1547,-242"/>
<polygon style="fill:black;stroke:black;" points="1550.48,-242.584 1550,-232 1543.77,-240.573 1550.48,-242.584"/>
<text text-anchor="middle" x="1564" y="-254.5" style="font-family:Times New Roman;font-size:10.00;">contact</text>
</g>
<!-- interview_published -->
<g id="node27" class="node"><title>interview_published</title>
<ellipse style="fill:none;stroke:black;" cx="1601" cy="-128" rx="55.7874" ry="18"/>
<text text-anchor="middle" x="1601" y="-123.9" style="font-family:Times New Roman;font-size:11px;">published</text>
</g>
<!-- interview_open&#45;&gt;interview_published -->
<g id="edge61" class="edge"><title>interview_open&#45;&gt;interview_published</title>
<path style="fill:none;stroke:black;" d="M1554,-291C1565,-284 1578,-275 1586,-264 1615,-226 1629,-209 1618,-164 1618,-161 1617,-158 1616,-155"/>
<polygon style="fill:black;stroke:black;" points="1619.26,-153.717 1612,-146 1612.86,-156.56 1619.26,-153.717"/>
<text text-anchor="middle" x="1641" y="-211.5" style="font-family:Times New Roman;font-size:10.00;">publish</text>
</g>
<!-- interview_open&#45;&gt;interview_refused -->
<g id="edge67" class="edge"><title>interview_open&#45;&gt;interview_refused</title>
<path style="fill:none;stroke:black;" d="M1516,-287C1505,-274 1491,-253 1484,-232 1477,-207 1477,-177 1478,-156"/>
<polygon style="fill:black;stroke:black;" points="1481.49,-156.299 1479,-146 1474.52,-155.602 1481.49,-156.299"/>
<text text-anchor="middle" x="1502" y="-211.5" style="font-family:Times New Roman;font-size:10.00;">refuse</text>
</g>
<!-- interview_sent&#45;&gt;interview_published -->
<g id="edge63" class="edge"><title>interview_sent&#45;&gt;interview_published</title>
<path style="fill:none;stroke:black;" d="M1564,-197C1570,-185 1579,-169 1586,-155"/>
<polygon style="fill:black;stroke:black;" points="1589.2,-156.441 1591,-146 1583.08,-153.042 1589.2,-156.441"/>
<text text-anchor="middle" x="1599" y="-168.5" style="font-family:Times New Roman;font-size:10.00;">publish</text>
</g>
<!-- interview_sent&#45;&gt;interview_refused -->
<g id="edge69" class="edge"><title>interview_sent&#45;&gt;interview_refused</title>
<path style="fill:none;stroke:black;" d="M1541,-197C1530,-184 1515,-167 1503,-153"/>
<polygon style="fill:black;stroke:black;" points="1505.22,-150.221 1496,-145 1499.95,-154.831 1505.22,-150.221"/>
<text text-anchor="middle" x="1541" y="-168.5" style="font-family:Times New Roman;font-size:10.00;">refuse</text>
</g>
<!-- news_draft -->
<g id="node30" class="node"><title>news_draft</title>
<ellipse style="fill:none;stroke:black;" cx="1780" cy="-414" rx="34.0492" ry="18"/>
<ellipse style="fill:none;stroke:black;" cx="1780" cy="-414" rx="38.0492" ry="22"/>
<text text-anchor="middle" x="1780" y="-409.9" style="font-family:Times New Roman;font-size:11px;">draft</text>
</g>
<!-- news_published -->
<g id="node31" class="node"><title>news_published</title>
<ellipse style="fill:none;stroke:black;" cx="1737" cy="-304" rx="55.7874" ry="18"/>
<text text-anchor="middle" x="1737" y="-299.9" style="font-family:Times New Roman;font-size:11px;">published</text>
</g>
<!-- news_draft&#45;&gt;news_published -->
<g id="edge77" class="edge"><title>news_draft&#45;&gt;news_published</title>
<path style="fill:none;stroke:black;" d="M1772,-393C1765,-375 1756,-350 1748,-331"/>
<polygon style="fill:black;stroke:black;" points="1751.26,-329.717 1744,-322 1744.86,-332.56 1751.26,-329.717"/>
<text text-anchor="middle" x="1775" y="-348.5" style="font-family:Times New Roman;font-size:10.00;">accept</text>
</g>
<!-- news_refused -->
<g id="node32" class="node"><title>news_refused</title>
<ellipse style="fill:none;stroke:black;" cx="1857" cy="-304" rx="46.0565" ry="18"/>
<text text-anchor="middle" x="1857" y="-299.9" style="font-family:Times New Roman;font-size:11px;">refused</text>
</g>
<!-- news_draft&#45;&gt;news_refused -->
<g id="edge75" class="edge"><title>news_draft&#45;&gt;news_refused</title>
<path style="fill:none;stroke:black;" d="M1794,-394C1807,-376 1825,-349 1839,-330"/>
<polygon style="fill:black;stroke:black;" points="1841.8,-332.1 1845,-322 1836.2,-327.9 1841.8,-332.1"/>
<text text-anchor="middle" x="1844" y="-348.5" style="font-family:Times New Roman;font-size:10.00;">refuse</text>
</g>
<!-- news_deleted -->
<g id="node33" class="node"><title>news_deleted</title>
<ellipse style="fill:none;stroke:black;" cx="1737" cy="-214" rx="46.0565" ry="18"/>
<text text-anchor="middle" x="1737" y="-209.9" style="font-family:Times New Roman;font-size:11px;">deleted</text>
</g>
<!-- news_published&#45;&gt;news_deleted -->
<g id="edge73" class="edge"><title>news_published&#45;&gt;news_deleted</title>
<path style="fill:none;stroke:black;" d="M1737,-286C1737,-273 1737,-257 1737,-242"/>
<polygon style="fill:black;stroke:black;" points="1740.5,-242 1737,-232 1733.5,-242 1740.5,-242"/>
<text text-anchor="middle" x="1752" y="-254.5" style="font-family:Times New Roman;font-size:10.00;">delete</text>
</g>
<!-- section_published -->
<g id="node35" class="node"><title>section_published</title>
<ellipse style="fill:none;stroke:black;" cx="1987" cy="-414" rx="55.8203" ry="18"/>
<ellipse style="fill:none;stroke:black;" cx="1987" cy="-414" rx="59.7872" ry="22"/>
<text text-anchor="middle" x="1987" y="-409.9" style="font-family:Times New Roman;font-size:11px;">published</text>
</g>
<!-- section_deleted -->
<g id="node36" class="node"><title>section_deleted</title>
<ellipse style="fill:none;stroke:black;" cx="1987" cy="-304" rx="46.0565" ry="18"/>
<text text-anchor="middle" x="1987" y="-299.9" style="font-family:Times New Roman;font-size:11px;">deleted</text>
</g>
<!-- section_published&#45;&gt;section_deleted -->
<g id="edge81" class="edge"><title>section_published&#45;&gt;section_deleted</title>
<path style="fill:none;stroke:black;" d="M1968,-393C1957,-379 1947,-361 1953,-344 1955,-339 1958,-333 1961,-329"/>
<polygon style="fill:black;stroke:black;" points="1964.05,-330.831 1968,-321 1958.78,-326.221 1964.05,-330.831"/>
<text text-anchor="middle" x="1968" y="-348.5" style="font-family:Times New Roman;font-size:10.00;">delete</text>
</g>
<!-- section_deleted&#45;&gt;section_published -->
<g id="edge79" class="edge"><title>section_deleted&#45;&gt;section_published</title>
<path style="fill:none;stroke:black;" d="M1987,-322C1987,-339 1987,-363 1987,-382"/>
<polygon style="fill:black;stroke:black;" points="1983.5,-382 1987,-392 1990.5,-382 1983.5,-382"/>
<text text-anchor="middle" x="2004" y="-348.5" style="font-family:Times New Roman;font-size:10.00;">reopen</text>
</g>
</g>
</svg>
