<?xml version="1.0" encoding="UTF-8" standalone="no"?>
<!DOCTYPE svg PUBLIC "-//W3C//DTD SVG 1.0//EN"
 "http://www.w3.org/TR/2001/REC-SVG-20010904/DTD/svg10.dtd" [
 <!ATTLIST svg xmlns:xlink CDATA #FIXED "http://www.w3.org/1999/xlink">
]>
<!-- Generated by Graphviz version 2.18 (Wed Aug &#160;6 10:29:47 UTC 2008)
     For user: (nono) Bruno Michel,,, -->
<!-- Title: models_diagram Pages: 1 -->
<svg width="1367pt" height="469pt"
 viewBox="0.00 0.00 1367.00 469.00" xmlns="http://www.w3.org/2000/svg" xmlns:xlink="http://www.w3.org/1999/xlink">
<g id="graph0" class="graph" transform="scale(1 1) rotate(0) translate(4 465)">
<title>models_diagram</title>
<polygon style="fill:white;stroke:white;" points="-4,4 -4,-465 1363,-465 1363,4 -4,4"/>
<g id="cluster2" class="cluster"><title>cluster_poll</title>
<polygon style="fill:none;stroke:black;" points="222,-184 222,-453 430,-453 430,-184 222,-184"/>
<text text-anchor="middle" x="326" y="-436.9" style="font-family:Times New Roman;font-size:11px;">Poll</text>
</g>
<g id="cluster3" class="cluster"><title>cluster_tracker</title>
<polygon style="fill:none;stroke:black;" points="438,-268 438,-453 645,-453 645,-268 438,-268"/>
<text text-anchor="middle" x="542" y="-436.9" style="font-family:Times New Roman;font-size:11px;">Tracker</text>
</g>
<g id="cluster4" class="cluster"><title>cluster_user</title>
<polygon style="fill:none;stroke:black;" points="653,-16 653,-449 1007,-449 1007,-16 653,-16"/>
<text text-anchor="middle" x="830" y="-432.9" style="font-family:Times New Roman;font-size:11px;">User</text>
</g>
<g id="cluster5" class="cluster"><title>cluster_news</title>
<polygon style="fill:none;stroke:black;" points="1015,-184 1015,-453 1223,-453 1223,-184 1015,-184"/>
<text text-anchor="middle" x="1119" y="-436.9" style="font-family:Times New Roman;font-size:11px;">News</text>
</g>
<g id="cluster6" class="cluster"><title>cluster_section</title>
<polygon style="fill:none;stroke:black;" points="1231,-268 1231,-453 1351,-453 1351,-268 1231,-268"/>
<text text-anchor="middle" x="1291" y="-436.9" style="font-family:Times New Roman;font-size:11px;">Section</text>
</g>
<!-- _diagram_info -->
<g id="node1" class="node"><title>_diagram_info</title>
<text text-anchor="start" x="7.5" y="-419.4" style="font-family:Times New Roman;font-size:11px;">Models diagram</text>
<text text-anchor="start" x="7.5" y="-402.4" style="font-family:Times New Roman;font-size:11px;">Date: Mar 14 2009 &#45; 03:07</text>
<text text-anchor="start" x="7.5" y="-385.4" style="font-family:Times New Roman;font-size:11px;">Migration version: 20090310234743</text>
<text text-anchor="start" x="7.5" y="-368.4" style="font-family:Times New Roman;font-size:11px;">Generated by RailRoad 0.7.6</text>
</g>
<!-- poll_draft -->
<g id="node3" class="node"><title>poll_draft</title>
<ellipse style="fill:none;stroke:black;" cx="316" cy="-398" rx="29.1851" ry="18"/>
<ellipse style="fill:none;stroke:black;" cx="316" cy="-398" rx="33.1851" ry="22"/>
<text text-anchor="middle" x="316" y="-393.9" style="font-family:Times New Roman;font-size:11px;">draft</text>
</g>
<!-- poll_published -->
<g id="node4" class="node"><title>poll_published</title>
<ellipse style="fill:none;stroke:black;" cx="278" cy="-294" rx="48.1403" ry="18"/>
<text text-anchor="middle" x="278" y="-289.9" style="font-family:Times New Roman;font-size:11px;">published</text>
</g>
<!-- poll_draft&#45;&gt;poll_published -->
<g id="edge13" class="edge"><title>poll_draft&#45;&gt;poll_published</title>
<path style="fill:none;stroke:black;" d="M308,-376C302,-360 294,-339 288,-322"/>
<polygon style="fill:black;stroke:black;" points="291.226,-320.573 285,-312 284.521,-322.584 291.226,-320.573"/>
<text text-anchor="middle" x="311" y="-332.5" style="font-family:Times New Roman;font-size:10.00;">accept</text>
</g>
<!-- poll_refused -->
<g id="node6" class="node"><title>poll_refused</title>
<ellipse style="fill:none;stroke:black;" cx="383" cy="-294" rx="39.1069" ry="18"/>
<text text-anchor="middle" x="383" y="-289.9" style="font-family:Times New Roman;font-size:11px;">refused</text>
</g>
<!-- poll_draft&#45;&gt;poll_refused -->
<g id="edge11" class="edge"><title>poll_draft&#45;&gt;poll_refused</title>
<path style="fill:none;stroke:black;" d="M329,-377C340,-361 355,-337 366,-320"/>
<polygon style="fill:black;stroke:black;" points="369.365,-321.262 372,-311 363.541,-317.379 369.365,-321.262"/>
<text text-anchor="middle" x="374" y="-332.5" style="font-family:Times New Roman;font-size:10.00;">refuse</text>
</g>
<!-- poll_archived -->
<g id="node5" class="node"><title>poll_archived</title>
<ellipse style="fill:none;stroke:black;" cx="275" cy="-210" rx="43.7776" ry="18"/>
<text text-anchor="middle" x="275" y="-205.9" style="font-family:Times New Roman;font-size:11px;">archived</text>
</g>
<!-- poll_published&#45;&gt;poll_archived -->
<g id="edge7" class="edge"><title>poll_published&#45;&gt;poll_archived</title>
<path style="fill:none;stroke:black;" d="M277,-276C276,-265 276,-251 276,-238"/>
<polygon style="fill:black;stroke:black;" points="279.478,-237.602 275,-228 272.512,-238.299 279.478,-237.602"/>
<text text-anchor="middle" x="293" y="-248.5" style="font-family:Times New Roman;font-size:10.00;">archive</text>
</g>
<!-- poll_deleted -->
<g id="node7" class="node"><title>poll_deleted</title>
<ellipse style="fill:none;stroke:black;" cx="376" cy="-210" rx="38.9134" ry="18"/>
<text text-anchor="middle" x="376" y="-205.9" style="font-family:Times New Roman;font-size:11px;">deleted</text>
</g>
<!-- poll_published&#45;&gt;poll_deleted -->
<g id="edge9" class="edge"><title>poll_published&#45;&gt;poll_deleted</title>
<path style="fill:none;stroke:black;" d="M297,-277C312,-264 333,-247 349,-233"/>
<polygon style="fill:black;stroke:black;" points="351.779,-235.219 357,-226 347.169,-229.951 351.779,-235.219"/>
<text text-anchor="middle" x="346" y="-248.5" style="font-family:Times New Roman;font-size:10.00;">delete</text>
</g>
<!-- tracker_open -->
<g id="node9" class="node"><title>tracker_open</title>
<ellipse style="fill:none;stroke:black;" cx="521" cy="-398" rx="30.1317" ry="18"/>
<ellipse style="fill:none;stroke:black;" cx="521" cy="-398" rx="34.0737" ry="22"/>
<text text-anchor="middle" x="521" y="-393.9" style="font-family:Times New Roman;font-size:11px;">open</text>
</g>
<!-- tracker_fixed -->
<g id="node10" class="node"><title>tracker_fixed</title>
<ellipse style="fill:none;stroke:black;" cx="486" cy="-294" rx="30.0736" ry="18"/>
<text text-anchor="middle" x="486" y="-289.9" style="font-family:Times New Roman;font-size:11px;">fixed</text>
</g>
<!-- tracker_open&#45;&gt;tracker_fixed -->
<g id="edge21" class="edge"><title>tracker_open&#45;&gt;tracker_fixed</title>
<path style="fill:none;stroke:black;" d="M504,-379C496,-368 487,-355 483,-342 481,-336 481,-329 481,-322"/>
<polygon style="fill:black;stroke:black;" points="484.488,-322.299 482,-312 477.522,-321.602 484.488,-322.299"/>
<text text-anchor="middle" x="491" y="-332.5" style="font-family:Times New Roman;font-size:10.00;">fix</text>
</g>
<!-- tracker_invalid -->
<g id="node11" class="node"><title>tracker_invalid</title>
<ellipse style="fill:none;stroke:black;" cx="585" cy="-294" rx="36.1339" ry="18"/>
<text text-anchor="middle" x="585" y="-289.9" style="font-family:Times New Roman;font-size:11px;">invalid</text>
</g>
<!-- tracker_open&#45;&gt;tracker_invalid -->
<g id="edge15" class="edge"><title>tracker_open&#45;&gt;tracker_invalid</title>
<path style="fill:none;stroke:black;" d="M527,-376C532,-362 539,-344 548,-330 551,-325 555,-320 559,-316"/>
<polygon style="fill:black;stroke:black;" points="561.404,-318.546 566,-309 556.454,-313.596 561.404,-318.546"/>
<text text-anchor="middle" x="568" y="-332.5" style="font-family:Times New Roman;font-size:10.00;">invalidate</text>
</g>
<!-- tracker_fixed&#45;&gt;tracker_open -->
<g id="edge17" class="edge"><title>tracker_fixed&#45;&gt;tracker_open</title>
<path style="fill:none;stroke:black;" d="M490,-312C492,-321 494,-332 497,-342 500,-351 504,-359 507,-368"/>
<polygon style="fill:black;stroke:black;" points="503.74,-369.283 511,-377 510.137,-366.44 503.74,-369.283"/>
<text text-anchor="middle" x="514" y="-332.5" style="font-family:Times New Roman;font-size:10.00;">reopen</text>
</g>
<!-- tracker_invalid&#45;&gt;tracker_open -->
<g id="edge19" class="edge"><title>tracker_invalid&#45;&gt;tracker_open</title>
<path style="fill:none;stroke:black;" d="M590,-312C591,-321 591,-333 587,-342 580,-356 568,-368 556,-377"/>
<polygon style="fill:black;stroke:black;" points="553.379,-374.541 547,-383 557.262,-380.365 553.379,-374.541"/>
<text text-anchor="middle" x="606" y="-332.5" style="font-family:Times New Roman;font-size:10.00;">reopen</text>
</g>
<!-- user_passive -->
<g id="node13" class="node"><title>user_passive</title>
<ellipse style="fill:none;stroke:black;" cx="904" cy="-398" rx="39.1069" ry="18"/>
<text text-anchor="middle" x="904" y="-393.9" style="font-family:Times New Roman;font-size:11px;">passive</text>
</g>
<!-- user_pending -->
<g id="node14" class="node"><title>user_pending</title>
<ellipse style="fill:none;stroke:black;" cx="783" cy="-294" rx="41.1906" ry="18"/>
<text text-anchor="middle" x="783" y="-289.9" style="font-family:Times New Roman;font-size:11px;">pending</text>
</g>
<!-- user_passive&#45;&gt;user_pending -->
<g id="edge39" class="edge"><title>user_passive&#45;&gt;user_pending</title>
<path style="fill:none;stroke:black;" d="M884,-382C871,-371 851,-356 835,-342 827,-334 817,-326 808,-318"/>
<polygon style="fill:black;stroke:black;" points="810.546,-315.596 801,-311 805.596,-320.546 810.546,-315.596"/>
<text text-anchor="middle" x="853" y="-332.5" style="font-family:Times New Roman;font-size:10.00;">register</text>
</g>
<!-- user_suspended -->
<g id="node16" class="node"><title>user_suspended</title>
<ellipse style="fill:none;stroke:black;" cx="847" cy="-126" rx="52.8111" ry="18"/>
<text text-anchor="middle" x="847" y="-121.9" style="font-family:Times New Roman;font-size:11px;">suspended</text>
</g>
<!-- user_passive&#45;&gt;user_suspended -->
<g id="edge31" class="edge"><title>user_passive&#45;&gt;user_suspended</title>
<path style="fill:none;stroke:black;" d="M908,-380C919,-331 947,-198 923,-162 918,-153 909,-146 900,-141"/>
<polygon style="fill:black;stroke:black;" points="901.56,-137.863 891,-137 898.717,-144.26 901.56,-137.863"/>
<text text-anchor="middle" x="950" y="-248.5" style="font-family:Times New Roman;font-size:10.00;">suspend</text>
</g>
<!-- user_deleted -->
<g id="node17" class="node"><title>user_deleted</title>
<ellipse style="fill:none;stroke:black;" cx="781" cy="-42" rx="38.9134" ry="18"/>
<text text-anchor="middle" x="781" y="-37.9" style="font-family:Times New Roman;font-size:11px;">deleted</text>
</g>
<!-- user_passive&#45;&gt;user_deleted -->
<g id="edge23" class="edge"><title>user_passive&#45;&gt;user_deleted</title>
<path style="fill:none;stroke:black;" d="M919,-381C942,-354 983,-298 971,-246 957,-180 956,-156 909,-108 886,-83 851,-66 824,-56"/>
<polygon style="fill:black;stroke:black;" points="824.585,-52.4643 814,-52 821.985,-58.9636 824.585,-52.4643"/>
<text text-anchor="middle" x="980" y="-206.5" style="font-family:Times New Roman;font-size:10.00;">delete</text>
</g>
<!-- user_active -->
<g id="node15" class="node"><title>user_active</title>
<ellipse style="fill:none;stroke:black;" cx="714" cy="-210" rx="32.8565" ry="18"/>
<text text-anchor="middle" x="714" y="-205.9" style="font-family:Times New Roman;font-size:11px;">active</text>
</g>
<!-- user_pending&#45;&gt;user_active -->
<g id="edge37" class="edge"><title>user_pending&#45;&gt;user_active</title>
<path style="fill:none;stroke:black;" d="M765,-278C759,-272 752,-265 746,-258 740,-251 735,-243 730,-236"/>
<polygon style="fill:black;stroke:black;" points="732.916,-234.042 725,-227 726.797,-237.441 732.916,-234.042"/>
<text text-anchor="middle" x="765" y="-248.5" style="font-family:Times New Roman;font-size:10.00;">activate</text>
</g>
<!-- user_pending&#45;&gt;user_suspended -->
<g id="edge33" class="edge"><title>user_pending&#45;&gt;user_suspended</title>
<path style="fill:none;stroke:black;" d="M783,-276C783,-248 785,-197 797,-184 811,-168 829,-189 842,-174 847,-169 849,-161 850,-154"/>
<polygon style="fill:black;stroke:black;" points="853.5,-154 850,-144 846.5,-154 853.5,-154"/>
<text text-anchor="middle" x="815" y="-206.5" style="font-family:Times New Roman;font-size:10.00;">suspend</text>
</g>
<!-- user_pending&#45;&gt;user_deleted -->
<g id="edge25" class="edge"><title>user_pending&#45;&gt;user_deleted</title>
<path style="fill:none;stroke:black;" d="M749,-284C723,-274 689,-256 672,-228 638,-168 709,-98 752,-63"/>
<polygon style="fill:black;stroke:black;" points="754.1,-65.8 760,-57 749.9,-60.2 754.1,-65.8"/>
<text text-anchor="middle" x="682" y="-164.5" style="font-family:Times New Roman;font-size:10.00;">delete</text>
</g>
<!-- user_active&#45;&gt;user_suspended -->
<g id="edge35" class="edge"><title>user_active&#45;&gt;user_suspended</title>
<path style="fill:none;stroke:black;" d="M720,-192C724,-182 730,-170 739,-162 753,-150 772,-142 789,-137"/>
<polygon style="fill:black;stroke:black;" points="790.427,-140.226 799,-134 788.416,-133.521 790.427,-140.226"/>
<text text-anchor="middle" x="757" y="-164.5" style="font-family:Times New Roman;font-size:10.00;">suspend</text>
</g>
<!-- user_active&#45;&gt;user_deleted -->
<g id="edge27" class="edge"><title>user_active&#45;&gt;user_deleted</title>
<path style="fill:none;stroke:black;" d="M717,-192C719,-183 722,-171 725,-162 737,-129 754,-93 766,-69"/>
<polygon style="fill:black;stroke:black;" points="769.203,-70.4414 771,-60 763.084,-67.0418 769.203,-70.4414"/>
<text text-anchor="middle" x="760" y="-122.5" style="font-family:Times New Roman;font-size:10.00;">delete</text>
</g>
<!-- user_suspended&#45;&gt;user_passive -->
<g id="edge45" class="edge"><title>user_suspended&#45;&gt;user_passive</title>
<path style="fill:none;stroke:black;" d="M868,-143C879,-153 892,-168 898,-184 905,-202 906,-209 898,-228 894,-238 886,-235 881,-246 880,-250 881,-252 881,-258 885,-297 893,-342 898,-370"/>
<polygon style="fill:black;stroke:black;" points="894.607,-370.881 900,-380 901.471,-369.508 894.607,-370.881"/>
<text text-anchor="middle" x="907" y="-248.5" style="font-family:Times New Roman;font-size:10.00;">unsuspend</text>
</g>
<!-- user_suspended&#45;&gt;user_pending -->
<g id="edge43" class="edge"><title>user_suspended&#45;&gt;user_pending</title>
<path style="fill:none;stroke:black;" d="M850,-144C851,-153 851,-164 849,-174 846,-198 844,-205 832,-228 825,-243 814,-257 804,-269"/>
<polygon style="fill:black;stroke:black;" points="801.2,-266.9 798,-277 806.8,-271.1 801.2,-266.9"/>
<text text-anchor="middle" x="872" y="-206.5" style="font-family:Times New Roman;font-size:10.00;">unsuspend</text>
</g>
<!-- user_suspended&#45;&gt;user_active -->
<g id="edge41" class="edge"><title>user_suspended&#45;&gt;user_active</title>
<path style="fill:none;stroke:black;" d="M823,-142C809,-152 790,-164 774,-174 765,-180 754,-186 745,-192"/>
<polygon style="fill:black;stroke:black;" points="743.042,-189.084 736,-197 746.441,-195.203 743.042,-189.084"/>
<text text-anchor="middle" x="817" y="-164.5" style="font-family:Times New Roman;font-size:10.00;">unsuspend</text>
</g>
<!-- user_suspended&#45;&gt;user_deleted -->
<g id="edge29" class="edge"><title>user_suspended&#45;&gt;user_deleted</title>
<path style="fill:none;stroke:black;" d="M833,-109C824,-97 811,-81 800,-67"/>
<polygon style="fill:black;stroke:black;" points="802.8,-64.9 794,-59 797.2,-69.1 802.8,-64.9"/>
<text text-anchor="middle" x="833" y="-80.5" style="font-family:Times New Roman;font-size:10.00;">delete</text>
</g>
<!-- news_draft -->
<g id="node19" class="node"><title>news_draft</title>
<ellipse style="fill:none;stroke:black;" cx="1109" cy="-398" rx="29.1851" ry="18"/>
<ellipse style="fill:none;stroke:black;" cx="1109" cy="-398" rx="33.1851" ry="22"/>
<text text-anchor="middle" x="1109" y="-393.9" style="font-family:Times New Roman;font-size:11px;">draft</text>
</g>
<!-- news_published -->
<g id="node20" class="node"><title>news_published</title>
<ellipse style="fill:none;stroke:black;" cx="1071" cy="-294" rx="48.1403" ry="18"/>
<text text-anchor="middle" x="1071" y="-289.9" style="font-family:Times New Roman;font-size:11px;">published</text>
</g>
<!-- news_draft&#45;&gt;news_published -->
<g id="edge51" class="edge"><title>news_draft&#45;&gt;news_published</title>
<path style="fill:none;stroke:black;" d="M1101,-376C1095,-360 1087,-339 1081,-322"/>
<polygon style="fill:black;stroke:black;" points="1084.23,-320.573 1078,-312 1077.52,-322.584 1084.23,-320.573"/>
<text text-anchor="middle" x="1104" y="-332.5" style="font-family:Times New Roman;font-size:10.00;">accept</text>
</g>
<!-- news_refused -->
<g id="node21" class="node"><title>news_refused</title>
<ellipse style="fill:none;stroke:black;" cx="1176" cy="-294" rx="39.1069" ry="18"/>
<text text-anchor="middle" x="1176" y="-289.9" style="font-family:Times New Roman;font-size:11px;">refused</text>
</g>
<!-- news_draft&#45;&gt;news_refused -->
<g id="edge49" class="edge"><title>news_draft&#45;&gt;news_refused</title>
<path style="fill:none;stroke:black;" d="M1122,-377C1133,-361 1148,-337 1159,-320"/>
<polygon style="fill:black;stroke:black;" points="1162.37,-321.262 1165,-311 1156.54,-317.379 1162.37,-321.262"/>
<text text-anchor="middle" x="1167" y="-332.5" style="font-family:Times New Roman;font-size:10.00;">refuse</text>
</g>
<!-- news_deleted -->
<g id="node22" class="node"><title>news_deleted</title>
<ellipse style="fill:none;stroke:black;" cx="1071" cy="-210" rx="38.9134" ry="18"/>
<text text-anchor="middle" x="1071" y="-205.9" style="font-family:Times New Roman;font-size:11px;">deleted</text>
</g>
<!-- news_published&#45;&gt;news_deleted -->
<g id="edge47" class="edge"><title>news_published&#45;&gt;news_deleted</title>
<path style="fill:none;stroke:black;" d="M1071,-276C1071,-265 1071,-251 1071,-238"/>
<polygon style="fill:black;stroke:black;" points="1074.5,-238 1071,-228 1067.5,-238 1074.5,-238"/>
<text text-anchor="middle" x="1083" y="-248.5" style="font-family:Times New Roman;font-size:10.00;">delete</text>
</g>
<!-- section_published -->
<g id="node24" class="node"><title>section_published</title>
<ellipse style="fill:none;stroke:black;" cx="1291" cy="-398" rx="48.1785" ry="18"/>
<ellipse style="fill:none;stroke:black;" cx="1291" cy="-398" rx="52.1404" ry="22"/>
<text text-anchor="middle" x="1291" y="-393.9" style="font-family:Times New Roman;font-size:11px;">published</text>
</g>
<!-- section_deleted -->
<g id="node25" class="node"><title>section_deleted</title>
<ellipse style="fill:none;stroke:black;" cx="1291" cy="-294" rx="38.9134" ry="18"/>
<text text-anchor="middle" x="1291" y="-289.9" style="font-family:Times New Roman;font-size:11px;">deleted</text>
</g>
<!-- section_published&#45;&gt;section_deleted -->
<g id="edge55" class="edge"><title>section_published&#45;&gt;section_deleted</title>
<path style="fill:none;stroke:black;" d="M1274,-377C1266,-364 1258,-346 1263,-330 1265,-326 1266,-323 1268,-319"/>
<polygon style="fill:black;stroke:black;" points="1270.8,-321.1 1274,-311 1265.2,-316.9 1270.8,-321.1"/>
<text text-anchor="middle" x="1275" y="-332.5" style="font-family:Times New Roman;font-size:10.00;">delete</text>
</g>
<!-- section_deleted&#45;&gt;section_published -->
<g id="edge53" class="edge"><title>section_deleted&#45;&gt;section_published</title>
<path style="fill:none;stroke:black;" d="M1291,-312C1291,-327 1291,-348 1291,-366"/>
<polygon style="fill:black;stroke:black;" points="1287.5,-366 1291,-376 1294.5,-366 1287.5,-366"/>
<text text-anchor="middle" x="1305" y="-332.5" style="font-family:Times New Roman;font-size:10.00;">reopen</text>
</g>
</g>
</svg>
