<svg xmlns="http://www.w3.org/2000/svg" enable-background="new 0 0 712 860" xml:space="preserve" height="917.33" viewBox="0 0 859.99998 859.99998" width="917.33" version="1.1" y="0px" x="0px"><path d="m448.01 1.0955c-5.51-.01-11.26.21946-17.25.69946-151.44 12.19-111.27 172.18-113.52 225.76-2.77 39.18-10.709 70.06-37.659 108.36-31.65 37.64-76.231 98.571-97.341 162-9.96 29.93-14.701 60.439-10.331 89.319-1.37 1.23-2.6685 2.5216-3.9185 3.8416-9.29 9.93-16.161 21.948-23.811 30.038-7.15 7.141-17.33 9.8521-28.53 13.861-11.2 4.021-23.49 9.9396-30.95 24.26 0 0 .000844.011-.0092.011-.01.02-.02029.0487-.04028.0678-3.51 6.55-4.6509 13.622-4.6509 20.792 0 6.63.98022 13.35 1.9702 19.819 2.06 13.46 4.1506 26.189 1.3806 34.81-8.86 24.23-10.001 40.98-3.761 53.141 6.26 12.18 19.11 17.55 33.64 20.59 29.06 6.06 68.411 4.5604 99.421 21l2.6697-5.0299-2.6404 5.0391c33.2 17.36 66.86 23.521 93.71 17.39 19.48-4.439 35.281-16.039 43.402-33.88 21-.1 44.049-8.9994 80.969-11.028 25.05-2.021 56.341 8.8994 92.331 6.8994.94 3.9 2.2993 7.6599 4.1583 11.23.021.029.0412.0679.0622.0989 13.949 27.9 39.869 40.661 67.5 38.481 27.659-2.181 57.069-18.49 80.85-46.78l-4.3597-3.6603 4.3909 3.62c22.66-27.48 60.269-38.87 85.219-53.91 12.47-7.52 22.58-16.94 23.37-30.621.77799-13.67-7.2517-28.991-25.712-49.481-.01-.01-.0202-.0203-.0202-.0294-6.069-6.85-8.9613-19.55-12.07-33.08-3.101-13.52-6.5697-28.099-17.67-37.549-.021-.021-.0506-.0412-.0696-.0622-2.2-1.92-4.461-3.5379-6.731-4.8889-2.279-1.35-4.5886-2.4497-6.8976-3.3197 15.43-45.76 9.38-91.33-6.2-132.5-19.11-50.54-52.48-94.569-77.97-124.69-28.53-35.99-56.431-70.15-55.88-120.61.849-77.01 8.4687-219.82-127.05-220.01zm17.98 118.63h.36987c7.68 0 14.25 2.2603 21 7.1503 6.85 4.98 11.791 11.2 15.771 19.9 3.9 8.48 5.7801 16.77 5.9711 26.6-.00094.25999-.002.48157.0678.74157.08 10.09-1.6595 18.679-5.4895 27.449-2.18 5-4.6896 9.1994-7.6996 12.839-1.021-.48999-2.0795-.95991-3.1805-1.4099-3.81-1.63-7.18-2.9689-10.199-4.1089-3.021-1.14-5.3784-1.9194-7.8094-2.7594 1.761-2.13 5.2312-4.6393 6.5222-7.7893 1.96-4.75 2.92-9.3913 3.1-14.921 0-.21999.0696-.41016.0696-.67016.11-5.3-.5905-9.829-2.1405-14.469-1.62-4.87-3.6806-8.3711-6.6596-11.281-2.99-2.91-5.969-4.2288-9.5489-4.3488-.17001-.01-.33172-.011-.50172-.011-3.36.01-6.2789 1.1696-9.2999 3.6896-3.17 2.65-5.5209 6.0411-7.4799 10.761-1.95 4.72-2.909 9.3997-3.1 14.96-.029.21999-.0292.40988-.0292.62988-.07 3.06.13059 5.8603.60059 8.5803-6.88-3.43-15.682-5.931-21.762-7.381-.35001-2.63-.55158-5.3412-.61158-8.1812v-.76905c-.11-10.06 1.5408-18.689 5.4108-27.449 3.87-8.77 8.6602-15.07 15.399-20.2 6.75-5.12 13.38-7.4713 21.229-7.5513zm-104.86 8.8513c5.11.01 9.6703 1.7085 14.39 5.4785 5.12 4.09 8.9896 9.3201 12.23 16.69 3.25 7.37 4.9802 14.741 5.4602 23.441v.0696c.23 3.65.20028 7.0905-.0897 10.421-1.01.29001-1.9908.60018-2.9608.93018-5.5 1.9-9.8663 3.9959-14.086 6.7859.41-2.92.47014-5.8801.15015-9.1901-.03-.18-.0311-.32904-.0311-.50904-.44001-4.39-1.3687-8.0702-2.9187-11.79-1.65-3.87-3.5008-6.6012-5.9308-8.7012-2.2-1.9-4.2808-2.7794-6.5808-2.7594-.23 0-.46862.009-.70862.0292-2.58.22-4.7211 1.4814-6.7511 3.9514-2.02 2.46-3.3503 5.5201-4.3103 9.5801-.96 4.05-1.2093 8.0295-.80932 12.6 0 .18.0403.32902.0403.50902.43999 4.43 1.3296 8.1104 2.9096 11.83 1.62 3.83 3.5008 6.5609 5.9308 8.6609.40999.35.81032.67031 1.2103.95032-2.52 1.95-4.2133 3.3323-6.2933 4.8523-1.33.97-2.9098 2.13-4.7498 3.49-4.01-3.76-7.1404-8.4807-9.8804-14.711-3.24-7.36-4.9713-14.728-5.4913-23.428v-.0714c-.48-8.7.37124-16.179 2.7612-23.919 2.4-7.74 5.6002-13.341 10.25-17.941 4.64-4.61 9.3197-6.9298 14.96-7.2198.44-.02.87005-.0292 1.3-.0292zm47.84 59.819c11.86-.05 26.13 3.8414 43.4 14.941 10.61 6.9 18.86 7.4789 37.87 15.619l.0292.011.0202.009c9.14 3.75 14.511 8.6507 17.14 13.801 2.62 5.15 2.6907 10.73.49072 16.61-4.389 11.75-18.41 24.12-38.069 30.26l-.0202.009-.0202.011c-9.591 3.11-17.951 9.9999-27.821 15.63-9.85 5.64-21.009 10.191-36.169 9.3109-6.46-.38001-11.62-1.6604-16.04-3.5504s-8.0914-4.3906-11.581-7.1906c-6.98-5.61-13.06-12.659-21.96-17.889l-.0292-.011-.0202-.0202c-14.34-8.11-22.18-17.49-24.63-25.62-2.46-8.13-.15016-15.07 6.9598-20.4 8-6 13.559-10.08 17.269-12.79 3.68-2.7 5.2012-3.7195 6.3812-4.8395 0-.0101.009-.0101.009-.0202l.011-.009c6.01-5.69 15.599-16.061 30.049-21.031 4.97-1.72 10.52-2.82 16.73-2.84zm-15.196 13.841c-1.7682.0348-3.5878.48356-5.1654 1.0986-2.2417.87397-5.7255 2.3916-5.4126 4.7772.23682 1.8057 3.0703 2.4879 4.8908 2.4353 1.9074-.055 3.273-1.9698 4.9695-2.8436 1.9333-.99579 5.2785-.65203 5.9253-2.7283.21104-.67736-.46571-1.4863-1.0858-1.8311-1.0148-.56422-2.1691-.83641-3.3673-.89722-.24962-.0127-.5018-.0159-.7544-.011zm30.179 0c-.2526-.005-.50478-.002-.7544.011-1.1982.0608-2.3525.333-3.3673.89722-.6201.34478-1.2968 1.1537-1.0858 1.8311.64683 2.0762 3.9938 1.7325 5.9271 2.7283 1.6964.8738 3.0602 2.7886 4.9676 2.8436 1.8204.0526 4.6539-.62959 4.8908-2.4353.31287-2.3856-3.1709-3.9032-5.4126-4.7772-1.5776-.61508-3.3972-1.0639-5.1654-1.0986zm62.787 31.053c-3.7948.11442-3.9416 4.6886-9.1736 8.5291-7.2943 5.3543-16.232 12.418-23.256 16.359-12.398 6.9548-32.71 17.17-50.11 17.17-17.43 0-31.35-8.0502-41.79-16.32-5.22-4.14-9.5294-8.3102-12.969-11.53-2.5432-2.3783-3.1556-7.6953-7.1942-8.1995-2.4094-.19169-3.1104 6.3005 2.7539 10.93 3.38 3.16 7.8595 7.5099 13.38 11.88 11.04 8.75 26.39 17.73 45.82 17.73 19.44 0 37.709-9.8868 53.35-18.04 8.1997-4.2741 18.296-11.747 24.749-17.379 6.453-5.6317 9.8612-10.555 5.2533-11.093-.288-.0337-.55816-.0446-.81116-.0367zm22.429 27.418c12.92 50.92 42.961 124.47 62.272 160.36 10.27 19.04 30.688 59.5 39.509 108.25 5.59-.171 11.75.6401 18.34 2.3291 23.07-59.81-19.558-124.22-39.058-142.16-7.87-7.64-8.2514-11.06-4.3414-10.9 21.14 18.71 48.91 56.322 59.011 98.782 4.609 19.359 5.5892 39.72.6482 59.81 2.41 1 4.8708 2.0893 7.3608 3.2703 37.03 18.029 50.719 33.709 44.139 55.109-2.17-.08-4.3104-.0692-6.3904-.0202-.19001.01-.38045.011-.58045.011 5.37-16.96-6.5102-29.472-38.17-43.792-32.83-14.439-58.989-13.009-63.409 16.291-.27999 1.53-.50932 3.1002-.67932 4.6802-2.46.86-4.9211 1.9404-7.4011 3.2904-15.41 8.44-23.83 23.74-28.51 42.521-4.67 18.76-6.0204 41.43-7.3004 66.92v.0202c-.79 12.811-6.0693 30.149-11.409 48.51-53.78 38.369-128.42 54.99-191.8 11.73-4.29-6.79-9.2214-13.52-14.291-20.16-3.24-4.239-6.5694-8.4497-9.8694-12.609 6.5.01 12.03-1.0608 16.5-3.0798 5.56-2.53 9.4602-6.5709 11.4-11.772 3.86-10.39-.0189-25.049-12.389-41.799-12.37-16.74-33.322-35.63-64.102-54.51v-.009c-22.62-14.07-35.259-31.313-41.179-50.032-5.93-18.73-5.101-38.979-.53101-58.969 8.76-38.37 31.261-75.689 45.621-99.11 3.86-2.84 1.3796 5.2795-14.54 34.839-14.26 27.021-40.93 89.381-4.4202 138.06.98-34.641 9.2509-69.972 23.141-103.02 20.23-45.85 62.54-125.38 65.9-188.76 1.74 1.26 7.69 5.2814 10.34 6.7914.01.01.0101.009.0202.009 7.76 4.57 13.59 11.25 21.14 17.32 7.57 6.08 17.02 11.33 31.3 12.16 1.37.08 2.7092.12085 4.0192.12085 14.72 0 26.2-4.8004 35.76-10.27 10.391-5.94 18.69-12.521 26.561-15.081.01-.01.0193-.009.0292-.009 16.63-5.2 29.84-14.4 37.359-25.12zm78.369 324.42c1.351 22.03 12.261 44.51 31.54 49.369 21.101 5.561 51.511-12.54 64.351-27.31 2.569-.101 5.069-.2293 7.5-.2893 11.27-.27101 20.71.38019 30.37 8.8202l.0293.0292.0293.0202c7.42 6.29 10.951 18.17 14.011 31.47 3.061 13.311 5.4986 27.8 14.68 38.13l.011.011.009.0202c17.641 19.57 23.312 32.791 22.822 41.241-.48 8.439-6.5902 14.709-17.88 21.509-22.561 13.61-62.552 25.45-88.081 56.38-22.181 26.39-49.221 40.881-73.03 42.761s-44.35-8.0008-56.47-32.311l-.0202-.0494-.0293-.0622c-7.521-14.3-4.3909-36.849 1.9391-60.648 6.33-23.79 15.43-48.23 16.65-68.08v-.0605c1.279-25.439 2.7092-47.66 6.9782-64.81 4.28-17.15 11.011-28.751 22.932-35.281.55999-.3 1.1089-.58876 1.6589-.85876zm-387.6 1.6296c.12.011.22974.011.34974 0 1.78.011 3.669.16141 5.6689.4724 13.5 2.04 25.27 11.478 36.61 26.858l32.741 59.67.009.0293.0202.0202c8.71 18.19 27.11 38.2 42.7 58.61 15.59 20.401 27.65 40.892 26.08 56.572l-.009.0586v.0714c-2.04 26.74-17.121 41.299-40.281 46.589-23.14 5.29-54.529.0214-85.869-16.37-.01 0-.0193-.011-.0292-.011-34.68-18.37-75.932-16.54-102.4-22.07-13.23-2.76-21.869-6.9193-25.829-14.639-3.96-7.73-4.0511-21.201 4.3689-44.171l.04028-.10071.03112-.10071c4.17-12.85 1.0788-26.909-.94116-40.109-2.02-13.189-3.0104-25.199 1.4996-33.56l.04029-.0805c5.77-11.12 14.23-15.1 24.73-18.86 10.51-3.77 22.961-6.7302 32.791-16.591l.0604-.0494.0494-.0494c9.09-9.59 15.92-21.62 23.91-30.15 6.74-7.2 13.491-11.971 23.661-12.041z" fill-opacity=".3" fill="#666"/><g fill-opacity=".3" fill="#b2b2b2"><path d="m772.9 726.67c-.48 8.439-6.59 14.71-17.88 21.51-22.561 13.61-62.551 25.45-88.08 56.38-22.181 26.39-49.221 40.88-73.03 42.76s-44.35-8-56.47-32.31l-.021-.05-.029-.061c-7.521-14.3-4.391-36.85 1.939-60.649 6.33-23.79 15.43-48.23 16.65-68.08v-.061c1.279-25.439 2.71-47.66 6.979-64.81 4.28-17.15 11.01-28.75 22.931-35.28.56-.3 1.109-.59 1.659-.86 1.351 22.03 12.261 44.511 31.54 49.37 21.101 5.561 51.511-12.54 64.351-27.31 2.569-.101 5.069-.23 7.5-.29 11.27-.271 20.71.38 30.37 8.82l.029.029.03.021c7.42 6.29 10.95 18.17 14.01 31.47 3.061 13.311 5.5 27.8 14.681 38.13l.01.01.01.021c17.641 19.57 23.311 32.79 22.821 41.24z"/><path d="m344.15 789.05-.01.06v.07c-2.04 26.74-17.12 41.3-40.28 46.59-23.14 5.29-54.53.021-85.87-16.37-.01 0-.02-.01-.03-.01-34.68-18.37-75.93-16.54-102.4-22.07-13.23-2.76-21.87-6.92-25.83-14.64-3.96-7.73-4.05-21.2 4.37-44.17l.04-.101.03-.1c4.17-12.85 1.08-26.91-.94-40.11-2.02-13.189-3.01-25.199 1.5-33.56l.04-.08c5.77-11.12 14.23-15.1 24.73-18.86 10.51-3.77 22.96-6.729 32.79-16.59l.06-.05.05-.05c9.09-9.59 15.92-21.62 23.91-30.15 6.74-7.2 13.49-11.97 23.66-12.04.12.011.23.011.35 0 1.78.011 3.67.16 5.67.471 13.5 2.04 25.27 11.479 36.61 26.859l32.74 59.67.01.03.02.02c8.71 18.19 27.11 38.2 42.7 58.61 15.59 20.401 27.65 40.891 26.08 56.571z"/><path d="m408.97 188.41c-6.21.02-11.76 1.12-16.73 2.84-14.45 4.97-24.039 15.342-30.049 21.031l-.011.009c0 .01-.009.0101-.009.0202-1.18 1.12-2.7012 2.1395-6.3812 4.8395-3.71 2.71-9.2687 6.7899-17.269 12.79-7.11 5.33-9.4198 12.27-6.9598 20.4 2.45 8.13 10.29 17.51 24.63 25.62l.0202.0202.0292.011c8.9 5.23 14.98 12.279 21.96 17.889 3.49 2.8 7.1614 5.3006 11.581 7.1906 4.42 1.89 9.58 3.1704 16.04 3.5504 15.16.88 26.319-3.6709 36.169-9.3109 9.87-5.63 18.23-12.52 27.821-15.63l.0202-.011.0202-.009c19.659-6.14 33.68-18.51 38.069-30.26 2.2-5.88 2.1293-11.459-.49072-16.61-2.63-5.15-8.0005-10.051-17.14-13.801l-.0202-.009-.0292-.011c-19.01-8.14-27.26-8.7189-37.87-15.619-17.27-11.1-31.54-14.991-43.4-14.941zm-14.442 13.852c1.1982.0608 2.3525.33299 3.3673.89722.6201.34477 1.2968 1.1537 1.0858 1.8311-.64683 2.0762-3.992 1.7325-5.9253 2.7283-1.6964.87379-3.062 2.7886-4.9695 2.8436-1.8204.0526-4.6539-.62959-4.8908-2.4353-.31286-2.3856 3.1709-3.9032 5.4126-4.7772 1.8029-.70294 3.9228-1.189 5.9198-1.0876zm28.671 0c1.997-.1013 4.1169.38471 5.9198 1.0876 2.2417.87398 5.7255 2.3916 5.4126 4.7772-.23682 1.8057-3.0703 2.4879-4.8908 2.4353-1.9074-.055-3.2712-1.9698-4.9676-2.8436-1.9333-.9958-5.2803-.65203-5.9271-2.7283-.21104-.67736.46571-1.4863 1.0858-1.8311 1.0148-.56423 2.1691-.83643 3.3673-.89722zm63.541 31.042c.25299-.008.52317.003.81116.0367 4.6079.53706 1.1996 5.4608-5.2533 11.093-6.4529 5.6317-16.549 13.104-24.749 17.379-15.641 8.1527-33.91 18.04-53.35 18.04-19.43 0-34.78-8.9801-45.82-17.73-5.52-4.37-9.9995-8.7199-13.38-11.88-5.8643-4.629-5.1633-11.121-2.7539-10.93 4.0386.50419 4.651 5.8211 7.1942 8.1995 3.44 3.22 7.7494 7.3902 12.969 11.53 10.44 8.27 24.36 16.32 41.79 16.32 17.4 0 37.712-10.215 50.11-17.17 7.0242-3.9402 15.962-11.004 23.256-16.359 5.2319-3.8404 5.3787-8.4146 9.1736-8.5291z"/></g><g fill-opacity=".3"><path fill="#fff" d="m697.05 595.57c-2.17-.08-4.31-.069-6.39-.02-.19.01-.38.01-.58.01 5.37-16.96-6.51-29.47-38.17-43.79-32.83-14.439-58.99-13.01-63.41 16.29-.28 1.53-.51 3.1-.68 4.68-2.46.86-4.92 1.94-7.4 3.29-15.41 8.44-23.83 23.74-28.51 42.521-4.67 18.76-6.02 41.43-7.3 66.92v.02c-.79 12.811-6.07 30.15-11.41 48.511-53.78 38.369-128.42 54.989-191.8 11.729-4.29-6.79-9.22-13.52-14.29-20.16-3.24-4.239-6.57-8.45-9.87-12.609 6.5.01 12.03-1.061 16.5-3.08 5.56-2.53 9.46-6.57 11.4-11.771 3.86-10.39-.02-25.05-12.39-41.8-12.37-16.74-33.32-35.63-64.1-54.51v-.01c-22.62-14.07-35.26-31.311-41.18-50.03-5.93-18.73-5.1-38.98-.53-58.97 8.76-38.37 31.26-75.69 45.62-99.11 3.86-2.84 1.38 5.28-14.54 34.84-14.26 27.021-40.93 89.38-4.42 138.06.98-34.641 9.25-69.971 23.14-103.02 20.23-45.85 62.54-125.38 65.9-188.76 1.74 1.26 7.69 5.28 10.34 6.79.01.01.01.01.02.01 7.76 4.57 13.59 11.25 21.14 17.32 7.57 6.08 17.02 11.33 31.3 12.16 1.37.08 2.71.12 4.02.12 14.72 0 26.2-4.8 35.76-10.27 10.391-5.94 18.69-12.52 26.561-15.08.01-.01.02-.01.03-.01 16.63-5.2 29.84-14.4 37.359-25.12 12.92 50.92 42.96 124.47 62.271 160.36 10.27 19.04 30.689 59.5 39.51 108.25 5.59-.171 11.75.64 18.34 2.329 23.07-59.81-19.56-124.22-39.06-142.16-7.87-7.64-8.25-11.06-4.34-10.9 21.14 18.71 48.909 56.32 59.01 98.78 4.609 19.359 5.59 39.72.649 59.81 2.41 1 4.87 2.09 7.36 3.271 37.03 18.029 50.72 33.709 44.14 55.109z"/><path style="color-rendering:auto;color:#000000;isolation:auto;mix-blend-mode:normal;shape-rendering:auto;solid-color:#000000;image-rendering:auto;enable-background:accumulate" d="m433.16 433.89a170.49 252.33 0 0 0 -158.26 160.01l3.75 2.334v.21093c28.872 18.332 49.435 36.725 62.143 53.922v.002h.002c13.433 18.189 19.41 35.905 13.719 51.225l-.002.006-.002.006c-2.8814 7.725-9.0202 13.916-16.627 17.377l-.0137.006-.0117.006c-.79947.3611-1.6536.62815-2.4824.9375 4.55 5.9691 9.0068 12.119 13.113 18.436 57.988 38.593 125.44 24.314 176.07-10.602 4.9443-17.037 9.4472-32.925 10.066-42.857 1.2818-25.521 2.5691-48.636 7.582-68.773v-.002c5.0523-20.275 14.88-38.726 33.41-48.875l.01-.006.0117-.006c1.0414-.56688 2.087-.89791 3.1309-1.3906.33429-2.005.79807-3.9353 1.3613-5.7969a170.49 252.33 0 0 0 -146.96 -126.15zm145.51 132.37-.0527.30859c.005-.0353.0184-.0664.0234-.10156.0122-.0678.0169-.13943.0293-.20703z" fill="#b2b2b2"/><path d="m509.17 174.13c.08 10.09-1.66 18.68-5.49 27.45-2.18 5-4.689 9.2-7.699 12.84-1.021-.49-2.08-.96-3.181-1.41-3.81-1.63-7.18-2.97-10.199-4.11-3.021-1.14-5.3779-1.919-7.8089-2.759 1.761-2.13 5.23-4.64 6.521-7.79 1.96-4.75 2.92-9.39 3.1-14.92 0-.22.07-.41.07-.67.11-5.3-.59-9.83-2.14-14.47-1.62-4.87-3.681-8.37-6.66-11.28-2.99-2.91-5.97-4.23-9.55-4.35-.17-.01-.33-.01-.5-.01-3.36.01-6.28 1.17-9.301 3.69-3.17 2.65-5.52 6.04-7.479 10.76-1.95 4.72-2.91 9.4-3.101 14.96-.029.22-.029.41-.029.63-.07 3.06.13 5.86.6 8.58-6.88-3.43-15.682-5.931-21.762-7.381-.35-2.63-.55-5.34-.61-8.18v-.77c-.11-10.06 1.54-18.69 5.41-27.45 3.87-8.77 8.66-15.07 15.399-20.2 6.75-5.12 13.381-7.47 21.23-7.55h.37c7.68 0 14.25 2.26 21 7.15 6.85 4.98 11.79 11.2 15.77 19.9 3.9 8.48 5.78 16.77 5.971 26.6-.001.26-.001.48.069.74z" fill="#fff"/><path d="m393.09 184.18c-1.01.29-1.99.6-2.96.93-5.5 1.9-9.8669 3.9969-14.087 6.7869.41-2.92.47-5.88.15-9.19-.03-.18-.03-.33-.03-.51-.44-4.39-1.37-8.07-2.92-11.79-1.65-3.87-3.5-6.6-5.93-8.7-2.2-1.9-4.28-2.78-6.58-2.76-.23 0-.47.01-.71.03-2.58.22-4.72 1.48-6.75 3.95-2.02 2.46-3.35 5.52-4.31 9.58-.96 4.05-1.21 8.03-.81 12.6 0 .18.04.33.04.51.44 4.43 1.33 8.11 2.91 11.83 1.62 3.83 3.5 6.56 5.93 8.66.41.35.81.67 1.21.95-2.52 1.95-4.2131 3.3331-6.2931 4.8531-1.33.97-2.91 2.13-4.75 3.49-4.01-3.76-7.14-8.48-9.88-14.71-3.24-7.36-4.97-14.73-5.49-23.43v-.07c-.48-8.7.37-16.18 2.76-23.92 2.4-7.74 5.6-13.34 10.25-17.94 4.64-4.61 9.32-6.93 14.96-7.22.44-.02.87-.03 1.3-.03 5.11.01 9.67 1.71 14.39 5.48 5.12 4.09 8.99 9.32 12.23 16.69 3.25 7.37 4.98 14.74 5.46 23.44v.07c.23 3.65.2 7.09-.09 10.42z" fill="#fff"/></g></svg>
