<?xml version="1.0" encoding="UTF-8" standalone="no"?>
<!-- Created with Inkscape (http://www.inkscape.org/) -->
<svg
   xmlns:xml="http://www.w3.org/XML/1998/namespace"
   xmlns:dc="http://purl.org/dc/elements/1.1/"
   xmlns:cc="http://web.resource.org/cc/"
   xmlns:rdf="http://www.w3.org/1999/02/22-rdf-syntax-ns#"
   xmlns:svg="http://www.w3.org/2000/svg"
   xmlns="http://www.w3.org/2000/svg"
   xmlns:sodipodi="http://inkscape.sourceforge.net/DTD/sodipodi-0.dtd"
   xmlns:inkscape="http://www.inkscape.org/namespaces/inkscape"
   inkscape:export-ydpi="72"
   inkscape:export-xdpi="72"
   inkscape:export-filename="/tmp/geekscottes/geekscottes_DRM1.png"
   sodipodi:docname="geekscottes_DRM1.svg"
   sodipodi:docbase="/tmp/geekscottes"
   inkscape:version="0.41.1"
   sodipodi:version="0.32"
   id="svg1307"
   height="600px"
   width="800px">
  <defs
     id="defs1309" />
  <sodipodi:namedview
     inkscape:window-y="46"
     inkscape:window-x="30"
     inkscape:window-height="692"
     inkscape:window-width="985"
     inkscape:document-units="px"
     inkscape:current-layer="layer1"
     inkscape:cy="300.00000"
     inkscape:cx="400.00000"
     inkscape:zoom="0.50000000"
     inkscape:pageshadow="2"
     inkscape:pageopacity="0.0"
     borderopacity="1.0"
     bordercolor="#666666"
     pagecolor="#ffffff"
     id="base" />
  <metadata
     id="metadata1312">
    <rdf:RDF
       id="RDF6">
      <cc:Work
         id="Work8"
         rdf:about="">
        <dc:format
           id="format10">image/svg+xml</dc:format>
        <dc:type
           id="type12"
           rdf:resource="http://purl.org/dc/dcmitype/StillImage" />
      </cc:Work>
    </rdf:RDF>
  </metadata>
  <g
     inkscape:groupmode="layer"
     inkscape:label="Layer 1"
     id="layer1">
    <g
       style="fill:#ff0606;fill-opacity:1;stroke-width:4;stroke-linecap:round;stroke-linejoin:round;stroke-miterlimit:4;stroke-dasharray:none"
       transform="matrix(-1,0,0,0.878798,508.0799,69.16366)"
       id="g6947">
      <path
         style="fill:#ff0606;fill-opacity:1;fill-rule:evenodd;stroke:#000000;stroke-width:4;stroke-linecap:round;stroke-linejoin:round;stroke-miterlimit:4;stroke-dasharray:none;stroke-opacity:1"
         d="M 183.33333,238.33333 C 190,258.88889 196.66666,279.44444 203.33333,300 C 218.33333,295.55556 231.03203,277.2493 223.33333,256.66667 C 215.41116,235.48662 195,231.11111 183.33333,238.33333 z "
         id="path6949"
         sodipodi:nodetypes="cczc" />
      <path
         style="fill:#ff0606;fill-opacity:1;fill-rule:evenodd;stroke:#000000;stroke-width:4;stroke-linecap:round;stroke-linejoin:round;stroke-miterlimit:4;stroke-dasharray:none;stroke-opacity:1"
         d="M 59.493041,237.44854 C 52.826371,258.0041 46.159711,278.55965 39.493041,299.11521 C 24.493041,294.67077 11.794341,276.36451 19.493041,255.78188 C 27.415211,234.60183 47.826371,230.22632 59.493041,237.44854 z "
         id="path6951"
         sodipodi:nodetypes="cczc" />
      <path
         style="fill:#ff0606;fill-opacity:1;fill-rule:evenodd;stroke:#000000;stroke-width:4;stroke-linecap:round;stroke-linejoin:round;stroke-miterlimit:4;stroke-dasharray:none;stroke-opacity:1"
         d="M 53.333333,235.47892 C 57.222223,186.03448 70.555559,154.16666 128.33334,155 C 184.44445,155.83333 190,205.55555 190,238.33333 C 192.77778,238.33333 195.55555,238.33333 198.33333,238.33333 C 198.88889,182.22222 172.78637,145.43712 125,145 C 75.533753,144.54751 44.444446,181.66667 45,235 C 48.888889,234.44444 49.444444,236.03448 53.333333,235.47892 z "
         id="path6953"
         sodipodi:nodetypes="czcczcc" />
    </g>
    <g
       transform="matrix(1,0,0,0.878798,0,72.8235)"
       id="g3107">
      <path
         style="fill:#ff0606;fill-opacity:1;fill-rule:evenodd;stroke:#000000;stroke-width:4;stroke-linecap:round;stroke-linejoin:round;stroke-miterlimit:4;stroke-dasharray:none;stroke-opacity:1"
         d="M 183.33333,238.33333 C 190,258.88889 196.66666,279.44444 203.33333,300 C 218.33333,295.55556 231.03203,277.2493 223.33333,256.66667 C 215.41116,235.48662 195,231.11111 183.33333,238.33333 z "
         id="path6936"
         sodipodi:nodetypes="cczc" />
      <path
         style="fill:#ff0606;fill-opacity:1;fill-rule:evenodd;stroke:#000000;stroke-width:4;stroke-linecap:round;stroke-linejoin:round;stroke-miterlimit:4;stroke-dasharray:none;stroke-opacity:1"
         d="M 59.493041,237.44854 C 52.826371,258.0041 46.159711,278.55965 39.493041,299.11521 C 24.493041,294.67077 11.794341,276.36451 19.493041,255.78188 C 27.415211,234.60183 47.826371,230.22632 59.493041,237.44854 z "
         id="path6938"
         sodipodi:nodetypes="cczc" />
      <path
         style="fill:#ff0606;fill-opacity:1;fill-rule:evenodd;stroke:#000000;stroke-width:3.78896213;stroke-linecap:round;stroke-linejoin:round;stroke-miterlimit:4;stroke-dasharray:none;stroke-opacity:1"
         d="M 52.260536,235.49636 C 56.149426,191.13161 70.555559,163.01903 128.33334,163.76675 C 184.44445,164.51447 190,209.12846 190,238.5388 C 192.77778,238.5388 195.55555,238.5388 198.33333,238.5388 C 198.88889,188.19229 172.78637,155.18632 125,154.79411 C 75.533753,154.38811 44.444446,187.69381 45,235.54792 C 48.888889,235.04944 48.371647,235.99484 52.260536,235.49636 z "
         id="path6940"
         sodipodi:nodetypes="czcczcc" />
    </g>
    <path
       sodipodi:nodetypes="csssss"
       id="path3307"
       d="M 576.73148,599.06058 C 578.64693,513.77305 571.71688,426.055 582.47784,343.198 C 587.04049,308.06655 600.59392,286.61674 622.70234,269.9945 C 643.50005,254.35773 690.67743,255.25138 711.19624,271.32022 C 732.43428,287.95231 744.38993,308.8418 747.97293,343.198 C 756.64882,426.38834 752.57001,513.77305 752.57001,599.06058"
       style="fill:#9c7cb0;fill-opacity:1;fill-rule:evenodd;stroke:#000000;stroke-width:3.74976778;stroke-linecap:round;stroke-linejoin:round;stroke-miterlimit:4;stroke-dasharray:none;stroke-opacity:1" />
    <path
       transform="matrix(0.776569,0,0,0.717084,559.6205,139.1377)"
       d="M 205.00001 240.83333 A 25.833334 25.833334 0 1 1  153.33334,240.83333 A 25.833334 25.833334 0 1 1  205.00001 240.83333 z"
       sodipodi:ry="25.833334"
       sodipodi:rx="25.833334"
       sodipodi:cy="240.83333"
       sodipodi:cx="179.16667"
       id="path3315"
       style="fill:#ffffff;fill-opacity:1;stroke:#000000;stroke-width:5.06310654;stroke-linecap:round;stroke-linejoin:round;stroke-miterlimit:4;stroke-dasharray:none;stroke-dashoffset:0;stroke-opacity:1"
       sodipodi:type="arc" />
    <path
       transform="matrix(0.776569,0,0,0.717084,496.5823,139.8005)"
       d="M 205.00001 240.83333 A 25.833334 25.833334 0 1 1  153.33334,240.83333 A 25.833334 25.833334 0 1 1  205.00001 240.83333 z"
       sodipodi:ry="25.833334"
       sodipodi:rx="25.833334"
       sodipodi:cy="240.83333"
       sodipodi:cx="179.16667"
       id="path3313"
       style="fill:#ffffff;fill-opacity:1;stroke:#000000;stroke-width:5.06310654;stroke-linecap:round;stroke-linejoin:round;stroke-miterlimit:4;stroke-dasharray:none;stroke-dashoffset:0;stroke-opacity:1"
       sodipodi:type="arc" />
    <path
       sodipodi:nodetypes="csssssssssss"
       id="path6932"
       d="M 588.33333,302.72256 C 639.19487,300.31572 693.47546,301.09707 745,302.72256 C 747.9199,302.81468 751.66667,306.45998 751.66667,307.87536 C 751.66667,309.03638 745.25045,309.09671 745,310.45174 C 744.69489,312.10251 749.65748,314.77479 750,316.89274 C 750.21303,318.20998 746.1877,319.83181 746.66667,320.75733 C 747.29881,321.97881 755.57162,323.31625 753.33333,323.33372 C 700.57162,323.74563 638.02578,324.10027 581.66667,322.04552 C 579.13689,321.95328 576.13707,317.91607 576.66667,316.89274 C 577.24818,315.76908 584.07259,316.79922 585,315.60453 C 585.73926,314.65222 581.2452,312.08055 581.66667,310.45174 C 582.35631,307.78655 584.75042,302.89211 588.33333,302.72256 z "
       style="fill:#ff0606;fill-opacity:1;fill-rule:evenodd;stroke:#000000;stroke-width:3.74976778;stroke-linecap:round;stroke-linejoin:round;stroke-miterlimit:4;stroke-dasharray:none;stroke-opacity:1" />
    <path
       sodipodi:nodetypes="cszss"
       id="path5112"
       d="M 589.16667,599.93505 C 591.94445,541.34855 590.75463,475.8603 607.50001,424.17555 C 613.5324,405.5565 635.48271,388.27852 667.5,389.02366 C 701.18282,389.80755 722.13094,404.52741 729.16667,424.17555 C 747.13094,474.34299 738.05556,540.3721 740.83334,598.47038"
       style="fill:#dbd4e4;fill-opacity:1;fill-rule:evenodd;stroke:none;stroke-width:4;stroke-linecap:round;stroke-linejoin:round;stroke-miterlimit:4;stroke-dasharray:none;stroke-opacity:1" />
    <path
       sodipodi:nodetypes="cccccc"
       d="M 669.34201,257.11826 C 671.12886,248.87355 679.58238,250.42558 684.58555,244.65425 M 663.98146,257.11826 C 664.69621,243.92673 659.69938,243.46124 668.99101,231.50643 M 657.78073,258.9119 C 659.21021,253.96507 645.04718,244.97918 649.693,237.55892"
       style="color:#000000;fill:none;fill-opacity:1;fill-rule:nonzero;stroke:#000000;stroke-width:3.74976778;stroke-linecap:round;stroke-linejoin:round;marker:none;marker-start:none;marker-mid:none;marker-end:none;stroke-miterlimit:4;stroke-dasharray:none;stroke-dashoffset:0;stroke-opacity:1;visibility:visible;display:block"
       id="path3309" />
    <path
       sodipodi:nodetypes="ccc"
       id="path3311"
       d="M 647.35444,347.8061 L 668.1558,404.3949 L 688.95717,348.99286"
       style="fill:#ff8000;fill-opacity:1;fill-rule:evenodd;stroke:#000000;stroke-width:3.74976778;stroke-linecap:round;stroke-linejoin:round;stroke-miterlimit:4;stroke-dasharray:none;stroke-opacity:1" />
    <path
       sodipodi:nodetypes="csssssss"
       id="path3317"
       d="M 578.9955,425.39219 C 574.01533,407.27412 559.24044,387.84982 561.79095,371.03797 C 564.60371,352.49747 584.61475,337.74211 592.82128,319.33516 C 598.40601,306.80881 600.82762,292.05458 603.16472,278.23807 C 603.89234,273.93651 603.44428,262.63878 602.01545,264.98093 C 596.16556,274.57019 590.08458,299.06226 581.32857,314.03232 C 568.63151,335.74031 538.26089,352.17312 537.65625,375.0151 C 536.72853,410.06257 565.21575,450.13883 578.24083,487.70069"
       style="fill:#9777ad;fill-opacity:1;fill-rule:evenodd;stroke:#000000;stroke-width:3.74976778;stroke-linecap:round;stroke-linejoin:round;stroke-miterlimit:4;stroke-dasharray:none;stroke-opacity:1" />
    <path
       sodipodi:nodetypes="csssssss"
       id="path3319"
       d="M 749.5401,426.34358 C 755.12347,408.461 771.5459,389.82992 769.56045,372.91694 C 767.37085,354.26491 747.86901,338.62865 740.28519,319.86965 C 735.12424,307.10374 733.19866,292.25259 731.32612,278.34224 C 730.74313,274.01144 731.5693,262.74213 732.91861,265.14622 C 738.44292,274.98906 743.69894,299.73388 751.94696,315.08303 C 763.90737,337.34075 793.70486,355.11497 793.5439,377.96683 C 793.29693,413.02949 764.99676,451.87335 750.72318,488.82662"
       style="fill:#9777ad;fill-opacity:1;fill-rule:evenodd;stroke:#000000;stroke-width:3.74976778;stroke-linecap:round;stroke-linejoin:round;stroke-miterlimit:4;stroke-dasharray:none;stroke-opacity:1" />
    <path
       sodipodi:nodetypes="csssss"
       id="path3323"
       d="M 33.887362,599.06058 C 35.802814,513.77305 28.872757,426.055 39.633718,343.198 C 44.196374,308.06655 56.08313,282.22276 78.191553,265.60051 C 98.989263,249.96374 146.16664,250.85739 166.68545,266.92623 C 187.92349,283.55831 201.54581,308.8418 205.12881,343.198 C 213.8047,426.38834 209.72589,513.77305 209.72589,599.06058"
       style="fill:#7770a8;fill-opacity:1;fill-rule:evenodd;stroke:#000000;stroke-width:3.74976778;stroke-linecap:round;stroke-linejoin:round;stroke-miterlimit:4;stroke-dasharray:none;stroke-opacity:1" />
    <path
       sodipodi:nodetypes="cszss"
       id="path4235"
       d="M 45,598.45875 C 47.777778,539.87225 46.587955,474.38401 63.333334,422.69926 C 69.365731,404.08021 91.31604,386.80223 123.33333,387.54736 C 157.01615,388.33125 177.96427,403.05112 185,422.69926 C 202.96427,472.86669 193.88889,538.89581 196.66667,596.99409"
       style="fill:#dbd4e4;fill-opacity:1;fill-rule:evenodd;stroke:none;stroke-width:4;stroke-linecap:round;stroke-linejoin:round;stroke-miterlimit:4;stroke-dasharray:none;stroke-opacity:1" />
    <path
       sodipodi:nodetypes="cccccc"
       d="M 126.49789,254.18893 C 128.28474,245.94422 130.07159,240.17295 135.07476,234.40161 M 121.13734,254.18893 C 121.85209,240.9974 115.18859,237.60257 124.48022,225.64777 M 111.48833,252.95223 C 112.91781,248.0054 107.20306,242.04985 111.84888,234.62959"
       style="color:#000000;fill:none;fill-opacity:1;fill-rule:nonzero;stroke:#000000;stroke-width:3.74976778;stroke-linecap:round;stroke-linejoin:round;marker:none;marker-start:none;marker-mid:none;marker-end:none;stroke-miterlimit:4;stroke-dasharray:none;stroke-dashoffset:0;stroke-opacity:1;visibility:visible;display:block"
       id="path3325" />
    <path
       sodipodi:nodetypes="ccc"
       id="path3327"
       d="M 102.84365,355.12941 L 125.82892,403.99086 L 151.11305,354.85152"
       style="fill:#ff8000;fill-opacity:1;fill-rule:evenodd;stroke:#000000;stroke-width:3.74976778;stroke-linecap:round;stroke-linejoin:round;stroke-miterlimit:4;stroke-dasharray:none;stroke-opacity:1" />
    <path
       transform="matrix(0.747567,0,0,0.69097,-40.23232,151.216)"
       d="M 205.00001 240.83333 A 25.833334 25.833334 0 1 1  153.33334,240.83333 A 25.833334 25.833334 0 1 1  205.00001 240.83333 z"
       sodipodi:ry="25.833334"
       sodipodi:rx="25.833334"
       sodipodi:cy="240.83333"
       sodipodi:cx="179.16667"
       id="path3329"
       style="fill:#ffffff;fill-opacity:1;stroke:#000000;stroke-width:5.06310654;stroke-linecap:round;stroke-linejoin:round;stroke-miterlimit:4;stroke-dasharray:none;stroke-dashoffset:0;stroke-opacity:1"
       sodipodi:type="arc" />
    <path
       transform="matrix(0.689563,0,0,0.795428,29.8649,122.4668)"
       d="M 205.00001 240.83333 A 25.833334 25.833334 0 1 1  153.33334,240.83333 A 25.833334 25.833334 0 1 1  205.00001 240.83333 z"
       sodipodi:ry="25.833334"
       sodipodi:rx="25.833334"
       sodipodi:cy="240.83333"
       sodipodi:cx="179.16667"
       id="path3331"
       style="fill:#ffffff;fill-opacity:1;stroke:#000000;stroke-width:5.06310654;stroke-linecap:round;stroke-linejoin:round;stroke-miterlimit:4;stroke-dasharray:none;stroke-dashoffset:0;stroke-opacity:1"
       sodipodi:type="arc" />
    <path
       sodipodi:nodetypes="cssssss"
       id="path3333"
       d="M 36.311604,425.62891 C 31.331427,407.51082 69.246816,404.49619 82.280165,397.40189 C 95.72209,390.08519 102.62153,391.59162 119.97716,385.24497 C 134.11128,380.07638 142.9835,378.46966 145.3206,364.65315 C 146.04822,360.3516 112.95113,357.61629 95.15111,363.83084 C 79.120727,369.42755 10.41677,374.14305 9.812131,396.98504 C 8.884408,432.03252 22.747807,450.13883 35.772884,487.70069"
       style="fill:#70619f;fill-opacity:1;fill-rule:evenodd;stroke:#000000;stroke-width:3.74976778;stroke-linecap:round;stroke-linejoin:round;stroke-miterlimit:4;stroke-dasharray:none;stroke-opacity:1" />
    <path
       sodipodi:nodetypes="cssssss"
       id="path3358"
       d="M 208.1714,425.37418 C 213.15158,407.25611 174.96683,404.7149 161.93348,397.6206 C 148.49155,390.30389 141.59211,391.81032 124.23648,385.46368 C 110.10236,380.29508 101.23014,378.68837 98.89304,364.87185 C 98.16542,360.5703 131.26251,357.83499 149.06253,364.04955 C 165.09291,369.64626 233.79687,374.36176 234.40151,397.20375 C 235.32923,432.25122 221.19648,450.35754 208.1714,487.9194"
       style="fill:#70619f;fill-opacity:1;fill-rule:evenodd;stroke:#000000;stroke-width:3.74976778;stroke-linecap:round;stroke-linejoin:round;stroke-miterlimit:4;stroke-dasharray:none;stroke-opacity:1" />
    <path
       sodipodi:nodetypes="csssss"
       id="path1315"
       d="M 297.99199,599.06058 C 299.90744,513.77305 292.97739,426.055 303.73835,343.198 C 308.301,308.06655 320.18776,271.97012 342.29618,255.34788 C 363.09389,239.71111 410.27127,240.60476 430.79008,256.6736 C 452.02812,273.30569 465.65044,308.8418 469.23344,343.198 C 477.90933,426.38834 473.83052,513.77305 473.83052,599.06058"
       style="fill:#8970a8;fill-opacity:1;fill-rule:evenodd;stroke:#000000;stroke-width:3.74976778;stroke-linecap:round;stroke-linejoin:round;stroke-miterlimit:4;stroke-dasharray:none;stroke-opacity:1" />
    <path
       sodipodi:nodetypes="cszss"
       id="path5110"
       d="M 308.75375,598.76949 C 311.53153,540.18299 310.3417,474.69476 327.08708,423.01 C 333.11948,404.39096 355.06979,387.11297 387.08708,387.8581 C 420.7699,388.642 441.71802,403.36187 448.75375,423.01 C 466.71802,473.17744 457.64264,539.20656 460.42042,597.30483"
       style="fill:#dbd4e4;fill-opacity:1;fill-rule:evenodd;stroke:none;stroke-width:4;stroke-linecap:round;stroke-linejoin:round;stroke-miterlimit:4;stroke-dasharray:none;stroke-opacity:1" />
    <path
       sodipodi:nodetypes="cccccc"
       d="M 390.60252,243.9363 C 392.38937,235.69159 394.17622,229.92031 399.17939,224.14898 M 385.24197,243.9363 C 385.95672,230.74477 388.66104,224.06708 397.95267,212.11227 M 375.59296,242.6996 C 377.02244,237.75277 376.30769,230.33255 380.95351,222.9123"
       style="color:#000000;fill:none;fill-opacity:1;fill-rule:nonzero;stroke:#000000;stroke-width:3.74976778;stroke-linecap:round;stroke-linejoin:round;marker:none;marker-start:none;marker-mid:none;marker-end:none;stroke-miterlimit:4;stroke-dasharray:none;stroke-dashoffset:0;stroke-opacity:1;visibility:visible;display:block"
       id="path1711" />
    <path
       sodipodi:nodetypes="ccc"
       id="path2376"
       d="M 366.94828,355.12941 L 389.81861,405.05148 L 409.47055,355.40707"
       style="fill:#ff8000;fill-opacity:1;fill-rule:evenodd;stroke:#000000;stroke-width:3.74976778;stroke-linecap:round;stroke-linejoin:round;stroke-miterlimit:4;stroke-dasharray:none;stroke-opacity:1" />
    <path
       transform="matrix(0.689563,0,0,0.795428,235.9313,123.1297)"
       d="M 205.00001 240.83333 A 25.833334 25.833334 0 1 1  153.33334,240.83333 A 25.833334 25.833334 0 1 1  205.00001 240.83333 z"
       sodipodi:ry="25.833334"
       sodipodi:rx="25.833334"
       sodipodi:cy="240.83333"
       sodipodi:cx="179.16667"
       id="path2395"
       style="fill:#ffffff;fill-opacity:1;stroke:#000000;stroke-width:5.06310654;stroke-linecap:round;stroke-linejoin:round;stroke-miterlimit:4;stroke-dasharray:none;stroke-dashoffset:0;stroke-opacity:1"
       sodipodi:type="arc" />
    <path
       transform="matrix(0.689563,0,0,0.795428,293.9695,122.4668)"
       d="M 205.00001 240.83333 A 25.833334 25.833334 0 1 1  153.33334,240.83333 A 25.833334 25.833334 0 1 1  205.00001 240.83333 z"
       sodipodi:ry="25.833334"
       sodipodi:rx="25.833334"
       sodipodi:cy="240.83333"
       sodipodi:cx="179.16667"
       id="path2397"
       style="fill:#ffffff;fill-opacity:1;stroke:#000000;stroke-width:5.06310654;stroke-linecap:round;stroke-linejoin:round;stroke-miterlimit:4;stroke-dasharray:none;stroke-dashoffset:0;stroke-opacity:1"
       sodipodi:type="arc" />
    <path
       sodipodi:nodetypes="cssssss"
       id="path2399"
       d="M 300.25601,425.39219 C 295.27584,407.27412 292.16762,403.9611 294.71813,387.14925 C 297.53089,368.60875 354.20859,353.8534 362.41512,335.44645 C 367.99985,322.92009 368.7548,309.63053 371.0919,295.81402 C 371.81952,291.51246 353.01176,299.06226 344.25575,314.03232 C 331.55869,335.74031 267.85473,349.2438 267.25009,372.08578 C 266.32237,407.13325 287.23093,450.13883 300.25601,487.70069"
       style="fill:#7d619f;fill-opacity:1;fill-rule:evenodd;stroke:#000000;stroke-width:3.74976778;stroke-linecap:round;stroke-linejoin:round;stroke-miterlimit:4;stroke-dasharray:none;stroke-opacity:1" />
    <path
       sodipodi:nodetypes="cssssss"
       id="path3360"
       d="M 471.57745,424.78902 C 476.55762,406.67093 479.9174,403.57899 477.36689,386.76714 C 474.55413,368.22665 417.87643,353.47129 409.6699,335.06433 C 404.08517,322.53799 403.33022,309.24843 400.99312,295.4319 C 400.2655,291.13035 419.07326,298.68015 427.82927,313.6502 C 440.52633,335.35821 504.23029,348.86169 504.83493,371.70367 C 505.76265,406.75114 485.10565,449.75673 472.08057,487.31858"
       style="fill:#7d619f;fill-opacity:1;fill-rule:evenodd;stroke:#000000;stroke-width:3.74976778;stroke-linecap:round;stroke-linejoin:round;stroke-miterlimit:4;stroke-dasharray:none;stroke-opacity:1" />
    <g
       transform="matrix(1,0,0,0.878798,0,72.8235)"
       style="fill:#ff0606;fill-opacity:1;stroke-width:4;stroke-linecap:round;stroke-linejoin:round;stroke-miterlimit:4;stroke-dasharray:none"
       id="g1346">
      <path
         style="fill:#ff0606;fill-opacity:1;fill-rule:evenodd;stroke:#000000;stroke-width:4;stroke-linecap:round;stroke-linejoin:round;stroke-miterlimit:4;stroke-dasharray:none;stroke-opacity:1"
         d="M 625,320 L 721.66667,345 L 716.66667,366.66667 L 618.33333,345 L 625,320 z "
         id="path6049" />
      <path
         style="fill:#ff0606;fill-opacity:1;fill-rule:evenodd;stroke:#000000;stroke-width:4;stroke-linecap:round;stroke-linejoin:round;stroke-miterlimit:4;stroke-dasharray:none;stroke-opacity:1"
         d="M 621.13857,363.49592 L 703.61429,307.21803 L 716.62572,325.24987 L 635.56072,384.97722 L 621.13857,363.49592 z "
         id="path6924" />
    </g>
    <g
       transform="matrix(1,0,0,0.878798,0,72.8235)"
       style="fill:#ff0606;fill-opacity:1;stroke-width:4;stroke-linecap:round;stroke-linejoin:round;stroke-miterlimit:4;stroke-dasharray:none"
       id="g1342">
      <path
         style="fill:#ff0606;fill-opacity:1;fill-rule:evenodd;stroke:#000000;stroke-width:4;stroke-linecap:round;stroke-linejoin:round;stroke-miterlimit:4;stroke-dasharray:none;stroke-opacity:1"
         d="M 428.30959,388.59067 L 341.49958,339.26047 L 351.97375,319.64578 L 441.2616,366.19224 L 428.30959,388.59067 z "
         id="path6926" />
      <path
         style="fill:#ff0606;fill-opacity:1;fill-rule:evenodd;stroke:#000000;stroke-width:4;stroke-linecap:round;stroke-linejoin:round;stroke-miterlimit:4;stroke-dasharray:none;stroke-opacity:1"
         d="M 443.3739,347.60443 L 349.08093,380.44164 L 341.21883,359.64184 L 435.04886,323.1067 L 443.3739,347.60443 z "
         id="path6928" />
    </g>
    <path
       sodipodi:nodetypes="cssssssssss"
       id="path6930"
       d="M 43.333333,307.11655 C 94.194868,304.7097 148.47546,305.49106 200,307.11655 C 202.9199,307.20866 206.66667,310.85397 206.66667,312.26934 C 206.66667,313.43036 202.93244,314.43348 202.68199,315.78851 C 202.37688,317.43928 207.33947,319.16878 207.68199,321.28673 C 207.89502,322.60398 210.57162,327.71023 208.33333,327.7277 C 155.57162,328.13963 93.025778,328.49426 36.666667,326.4395 C 34.13689,326.34727 33.282665,322.31006 33.812261,321.28673 C 34.393776,320.16307 38.536196,319.77904 39.463602,318.58437 C 40.202863,317.63204 36.781597,313.17484 37.203065,311.54603 C 37.892708,308.88084 39.750424,307.28609 43.333333,307.11655 z "
       style="fill:#ff0606;fill-opacity:1;fill-rule:evenodd;stroke:#000000;stroke-width:3.74976778;stroke-linecap:round;stroke-linejoin:round;stroke-miterlimit:4;stroke-dasharray:none;stroke-opacity:1" />
    <path
       sodipodi:nodetypes="cc"
       id="path3096"
       d="M 40.619529,318.42915 L 78.671156,318.63431"
       style="fill:none;fill-opacity:0.75;fill-rule:evenodd;stroke:#000000;stroke-width:0.93744195px;stroke-linecap:butt;stroke-linejoin:miter;stroke-opacity:1" />
    <path
       id="path3098"
       d="M 200.99663,315.55702 L 155.2413,314.73642"
       style="fill:none;fill-opacity:0.75;fill-rule:evenodd;stroke:#000000;stroke-width:0.93744195px;stroke-linecap:butt;stroke-linejoin:miter;stroke-opacity:1" />
    <path
       sodipodi:nodetypes="cc"
       id="path3100"
       d="M 594.68246,317.31142 L 616.71892,317.31142"
       style="fill:none;fill-opacity:0.75;fill-rule:evenodd;stroke:#000000;stroke-width:0.93744195px;stroke-linecap:butt;stroke-linejoin:miter;stroke-opacity:1" />
    <path
       sodipodi:nodetypes="ccc"
       id="path3102"
       d="M 643.88715,308.02656 L 709.09091,308.55713 L 709.09091,308.55713"
       style="fill:none;fill-opacity:0.75;fill-rule:evenodd;stroke:#000000;stroke-width:0.93744195px;stroke-linecap:butt;stroke-linejoin:miter;stroke-opacity:1" />
    <text
       sodipodi:linespacing="125%"
       id="text1348"
       y="103.09419"
       x="229.46759"
       style="font-size:131.47012329px;font-style:normal;font-variant:normal;font-weight:bold;font-stretch:normal;text-align:start;line-height:125%;writing-mode:lr-tb;text-anchor:start;fill:#f20000;fill-opacity:1;stroke:#000000;stroke-width:3;stroke-linecap:butt;stroke-linejoin:miter;stroke-miterlimit:4;stroke-dasharray:none;stroke-opacity:1;font-family:Sans"
       xml:space="preserve"><tspan
         y="103.09419"
         x="229.46759"
         id="tspan1350"
         sodipodi:role="line">DRM</tspan></text>
    <text
       sodipodi:linespacing="125%"
       id="text1352"
       y="160.02974"
       x="123.77487"
       style="font-size:42.044525;font-style:italic;font-variant:normal;font-weight:bold;font-stretch:normal;fill:#000000;fill-opacity:1.0000000;stroke:none;stroke-width:1.0000000px;stroke-linecap:butt;stroke-linejoin:miter;stroke-opacity:1.0000000;font-family:Sans;text-anchor:start;writing-mode:lr-tb"
       xml:space="preserve"><tspan
         y="160.02974"
         x="123.77487"
         id="tspan1354"
         sodipodi:role="line">Conçus pour bâillonner</tspan></text>
  </g>
</svg>
