<?xml version="1.0" encoding="UTF-8" standalone="no"?>
<!-- Created with Inkscape (http://www.inkscape.org/) -->
<svg
   xmlns:dc="http://purl.org/dc/elements/1.1/"
   xmlns:cc="http://web.resource.org/cc/"
   xmlns:rdf="http://www.w3.org/1999/02/22-rdf-syntax-ns#"
   xmlns:svg="http://www.w3.org/2000/svg"
   xmlns="http://www.w3.org/2000/svg"
   xmlns:sodipodi="http://inkscape.sourceforge.net/DTD/sodipodi-0.dtd"
   xmlns:inkscape="http://www.inkscape.org/namespaces/inkscape"
   width="640px"
   height="480px"
   id="svg15324"
   sodipodi:version="0.32"
   inkscape:version="0.43"
   sodipodi:docbase="/home/partage/documents/nojhan"
   sodipodi:docname="geekscottes_DRM5.svg"
   inkscape:export-filename="/home/partage/documents/nojhan/geekscottes_DRM5.png"
   inkscape:export-xdpi="90"
   inkscape:export-ydpi="90">
  <defs
     id="defs15326" />
  <sodipodi:namedview
     id="base"
     pagecolor="#ffffff"
     bordercolor="#666666"
     borderopacity="1.0"
     inkscape:pageopacity="0.0"
     inkscape:pageshadow="2"
     inkscape:zoom="0.77472527"
     inkscape:cx="320"
     inkscape:cy="215.10085"
     inkscape:current-layer="layer1"
     inkscape:document-units="px"
     inkscape:window-width="862"
     inkscape:window-height="544"
     inkscape:window-x="154"
     inkscape:window-y="195" />
  <metadata
     id="metadata15329">
    <rdf:RDF>
      <cc:Work
         rdf:about="">
        <dc:format>image/svg+xml</dc:format>
        <dc:type
           rdf:resource="http://purl.org/dc/dcmitype/StillImage" />
        <dc:title>Les DRM ont des oreilles</dc:title>
        <dc:date>2006-10-10</dc:date>
        <dc:creator>
          <cc:Agent>
            <dc:title>Johann &quot;nojhan&quot; Dréo</dc:title>
          </cc:Agent>
        </dc:creator>
        <dc:language>fr-FR</dc:language>
        <cc:license
           rdf:resource="http://creativecommons.org/licenses/by-sa/2.0/" />
      </cc:Work>
      <cc:License
         rdf:about="http://creativecommons.org/licenses/by-sa/2.0/">
        <cc:permits
           rdf:resource="http://web.resource.org/cc/Reproduction" />
        <cc:permits
           rdf:resource="http://web.resource.org/cc/Distribution" />
        <cc:requires
           rdf:resource="http://web.resource.org/cc/Notice" />
        <cc:requires
           rdf:resource="http://web.resource.org/cc/Attribution" />
        <cc:permits
           rdf:resource="http://web.resource.org/cc/DerivativeWorks" />
        <cc:requires
           rdf:resource="http://web.resource.org/cc/ShareAlike" />
      </cc:License>
    </rdf:RDF>
  </metadata>
  <g
     id="layer1"
     inkscape:label="Layer 1"
     inkscape:groupmode="layer">
    <path
       style="color:#000000;fill:#4bbe28;fill-opacity:1;fill-rule:nonzero;stroke:#000000;stroke-width:4;stroke-linecap:round;stroke-linejoin:round;marker:none;marker-start:none;marker-mid:none;marker-end:none;stroke-miterlimit:4;stroke-dashoffset:0;stroke-opacity:1;visibility:visible;display:block;stroke-dasharray:none"
       d="M 166.31944,330.52996 C 152.8707,329.45402 132.96664,321.9228 125.97331,292.60464 C 80.516694,302.28769 73.792386,329.72301 66.261127,356.35141 C 81.0547,334.56455 87.779049,336.17841 89.661853,357.96532 C 98.806934,338.06121 106.33823,336.71634 112.25563,356.35145 C 116.82819,337.79227 125.43534,338.59914 134.84949,358.77219 C 129.73896,339.40605 133.50461,341.01991 134.84949,332.14378 C 153.67761,339.67504 166.05041,348.82016 169.54708,364.42068"
       id="path1919"
       sodipodi:nodetypes="cccccccc" />
    <path
       style="color:#000000;fill:#4bbe28;fill-opacity:1;fill-rule:nonzero;stroke:#000000;stroke-width:4;stroke-linecap:round;stroke-linejoin:round;marker:none;marker-start:none;marker-mid:none;marker-end:none;stroke-miterlimit:4;stroke-dashoffset:0;stroke-opacity:1;visibility:visible;display:block;stroke-dasharray:none"
       d="M 135.65644,332.54725 C 122.2077,331.47136 102.30368,323.94014 95.310307,294.62197 C 49.853732,304.30502 43.129423,331.74034 35.598164,358.36875 C 50.391738,336.58188 57.116046,338.19575 58.998851,359.98265 C 68.143971,340.07855 75.675269,338.73367 81.592667,358.36879 C 86.165227,339.80961 94.77238,340.61648 104.18648,360.78952 C 99.075956,341.42339 102.84161,343.03725 104.18648,334.16111 C 123.01461,341.69237 135.38741,350.83749 138.88408,366.43798"
       id="path1920"
       sodipodi:nodetypes="cccccccc" />
    <path
       style="color:#000000;fill:#4bbe28;fill-opacity:1;fill-rule:nonzero;stroke:#000000;stroke-width:4;stroke-linecap:round;stroke-linejoin:round;marker:none;marker-start:none;marker-mid:none;marker-end:none;stroke-miterlimit:4;stroke-dashoffset:0;stroke-opacity:1;visibility:visible;display:block;stroke-dasharray:none"
       d="M 158.25017,238.94439 C 148.0292,254.54487 140.71288,264.69291 134.84941,281.71125 C 129.685,296.70079 130.89593,309.52123 132.42863,325.28502 C 133.49229,336.22383 134.02179,345.05801 137.27026,355.94802 C 140.92692,368.20648 140.43532,382.51735 138.07717,395.48716 C 136.46331,404.36329 130.81485,421.30866 118.71103,430.9917 C 106.60722,440.67475 83.206489,448.74397 63.033444,455.19934 C 39.042915,462.87635 23.602742,451.86074 2.2965745,453.34539 C -5.0331239,453.85615 -6.6915792,478.85256 0.68275298,479.97379 C 39.302963,485.84585 79.44084,486.93828 125.97331,485.05543 C 125.97331,485.05543 209.49544,495.27263 230.87312,482.63466 C 248.40451,472.27057 259.92227,451.16475 251.85308,418.88788 C 246.82312,398.76817 230.07385,384.38146 209.08622,373.70025 C 197.15428,367.62778 190.10782,353.52374 184.07167,342.2303 C 181.76965,337.9233 181.87116,330.93312 184.07167,326.89884 C 186.7127,322.05698 193.75472,319.36754 198.59626,315.60189"
       id="path1921"
       sodipodi:nodetypes="csssssssssssssss" />
    <path
       style="color:#000000;fill:#ffffff;fill-opacity:1;fill-rule:nonzero;stroke:#000000;stroke-width:3.87412095;stroke-linecap:round;stroke-linejoin:round;marker:none;marker-start:none;marker-mid:none;marker-end:none;stroke-miterlimit:4;stroke-dashoffset:0;stroke-opacity:1;visibility:visible;display:block"
       d="M 189.69883,466.44528 C 189.85005,472.69274 186.82582,477.44085 183.34801,482.93859 C 182.28951,475.44166 182.13829,470.19377 178.81166,466.07046"
       id="path1922"
       sodipodi:nodetypes="ccc" />
    <path
       style="color:#000000;fill:none;fill-opacity:1;fill-rule:nonzero;stroke:#000000;stroke-width:2.76722932;stroke-linecap:round;stroke-linejoin:round;marker:none;marker-start:none;marker-mid:none;marker-end:none;stroke-miterlimit:4;stroke-dashoffset:0;stroke-opacity:1;visibility:visible;display:block"
       d="M 288.43541,258.07605 C 294.4873,254.84833 301.28694,266.02732 298.57802,269.06297 C 295.69768,272.29069 290.18549,271.98341 289.18619,267.64153 C 288.09849,262.91567 294.06513,261.57091 293.68039,267.00832"
       id="path1923"
       sodipodi:nodetypes="czzz" />
    <path
       style="color:#000000;fill:#ffffff;fill-opacity:1;fill-rule:nonzero;stroke:#000000;stroke-width:3.87412095;stroke-linecap:round;stroke-linejoin:round;marker:none;marker-start:none;marker-mid:none;marker-end:none;stroke-miterlimit:4;stroke-dashoffset:0;stroke-opacity:1;visibility:visible;display:block"
       d="M 177.59501,466.44528 C 177.74623,472.69274 174.722,477.44085 171.24419,482.93859 C 170.18569,475.44166 170.03447,470.19377 166.70784,466.07046"
       id="path1924"
       sodipodi:nodetypes="ccc" />
    <path
       style="color:#000000;fill:#ffffff;fill-opacity:1;fill-rule:nonzero;stroke:#000000;stroke-width:1.60553181;stroke-linecap:round;stroke-linejoin:round;marker:none;marker-start:none;marker-mid:none;marker-end:none;stroke-miterlimit:4;stroke-dashoffset:0;stroke-opacity:1;visibility:visible;display:block"
       d="M 298.18509,299.9598 C 298.33627,306.20727 295.31208,310.95533 291.83426,316.45312 C 290.77577,308.95618 290.62451,303.70825 287.29792,299.58498"
       id="path1925"
       sodipodi:nodetypes="ccc" />
    <path
       style="color:#000000;fill:#4bbe28;fill-opacity:1;fill-rule:nonzero;stroke:#000000;stroke-width:4;stroke-linecap:round;stroke-linejoin:round;marker:none;marker-start:none;marker-mid:none;marker-end:none;stroke-miterlimit:4;stroke-dashoffset:0;stroke-opacity:1;visibility:visible;display:block;stroke-dasharray:none"
       d="M 183.29149,299.4902 C 196.55846,311.80956 225.66251,315.25391 237.30712,315.12635 C 243.44229,315.05912 284.328,313.68437 294.16569,302.33315 C 302.80701,292.36242 296.0433,267.00497 292.74422,261.11068 C 284.76308,246.85113 252.84931,253.56104 224.51395,242.63167 C 219.68182,240.76784 222.9587,209.77094 221.67101,204.25211 C 219.64199,195.55628 215.98513,187.19456 213.14222,178.66573 C 210.18085,187.07608 210.05328,199.08793 204.25806,203.89675 C 198.9185,208.32747 185.5114,210.07737 179.73779,206.38434 C 172.36286,201.66703 169.78753,187.90527 164.8124,178.66578 C 162.44331,188.14219 159.84872,197.5679 157.70512,207.09505 C 155.58431,216.52077 144.35848,227.31339 144.91192,236.94578 C 146.66484,267.45497 133.75568,311.41261 139.76628,312.04225 C 148.08355,312.91343 162.90909,305.07116 167.65534,310.86193 C 174.59278,319.32605 218.66481,330.01419 230.1998,332.18388 C 239.47008,333.92767 274.44044,329.43332 288.47984,322.23366 C 292.91949,319.95691 292.27041,311.33578 291.32279,305.17609"
       id="path1926"
       sodipodi:nodetypes="cssssscsscsssssss" />
    <path
       sodipodi:type="arc"
       style="fill:#ffffff;fill-opacity:1;fill-rule:nonzero;stroke:#000000;stroke-width:1.02666914;stroke-linecap:round;stroke-linejoin:round;stroke-miterlimit:4;stroke-dashoffset:0;stroke-opacity:1"
       id="path1927"
       sodipodi:cx="171.92155"
       sodipodi:cy="273.80099"
       sodipodi:rx="4.0131083"
       sodipodi:ry="5.1367784"
       d="M 175.93466 273.80099 A 4.0131083 5.1367784 0 1 1  167.90845,273.80099 A 4.0131083 5.1367784 0 1 1  175.93466 273.80099 z"
       transform="matrix(-3.681077,0,0,3.217394,847.6159,-648.499)" />
    <path
       sodipodi:type="arc"
       style="fill:#ffffff;fill-opacity:1;fill-rule:nonzero;stroke:#000000;stroke-width:1.02666914;stroke-linecap:round;stroke-linejoin:round;stroke-miterlimit:4;stroke-dashoffset:0;stroke-opacity:1"
       id="path1928"
       sodipodi:cx="171.92155"
       sodipodi:cy="273.80099"
       sodipodi:rx="4.0131083"
       sodipodi:ry="5.1367784"
       d="M 175.93466 273.80099 A 4.0131083 5.1367784 0 1 1  167.90845,273.80099 A 4.0131083 5.1367784 0 1 1  175.93466 273.80099 z"
       transform="matrix(-4.427567,0,0,4.427567,948.7499,-982.4339)" />
    <path
       style="color:#000000;fill:#ffffff;fill-opacity:1;fill-rule:nonzero;stroke:#000000;stroke-width:1.60553181;stroke-linecap:round;stroke-linejoin:round;marker:none;marker-start:none;marker-mid:none;marker-end:none;stroke-miterlimit:4;stroke-dashoffset:0;stroke-opacity:1;visibility:visible;display:block"
       d="M 242.04577,316.30658 C 242.19699,322.55409 239.17276,327.30216 235.69499,332.7999 C 234.63645,325.30296 234.48523,320.05507 231.1586,315.93176"
       id="path1929"
       sodipodi:nodetypes="ccc" />
    <path
       style="color:#000000;fill:none;fill-opacity:1;fill-rule:nonzero;stroke:#000000;stroke-width:2.76722932;stroke-linecap:round;stroke-linejoin:round;marker:none;marker-start:none;marker-mid:none;marker-end:none;stroke-miterlimit:4;stroke-dashoffset:0;stroke-opacity:1;visibility:visible;display:block"
       d="M 256.78546,267.58478 C 262.83735,264.35706 269.637,275.53604 266.92807,278.57169 C 264.04774,281.79941 258.53555,281.49217 257.53625,277.15026 C 256.44859,272.42439 262.41518,271.07963 262.03044,276.51704"
       id="path1930"
       sodipodi:nodetypes="czzz" />
    <path
       sodipodi:type="arc"
       style="fill:#000000;fill-opacity:1;fill-rule:nonzero;stroke:#ff0000;stroke-width:1;stroke-linecap:round;stroke-linejoin:round;stroke-miterlimit:4;stroke-dashoffset:0;stroke-opacity:1"
       id="path1931"
       sodipodi:cx="171.1322"
       sodipodi:cy="273.75754"
       sodipodi:rx="1.0934966"
       sodipodi:ry="1.6402447"
       d="M 172.2257 273.75754 A 1.0934966 1.6402447 0 1 1  170.03871,273.75754 A 1.0934966 1.6402447 0 1 1  172.2257 273.75754 z"
       transform="matrix(-4.427567,0,0,4.427567,976.4685,-979.591)" />
    <path
       sodipodi:type="arc"
       style="fill:#000000;fill-opacity:1;fill-rule:nonzero;stroke:#ff0000;stroke-width:1;stroke-linecap:round;stroke-linejoin:round;stroke-miterlimit:4;stroke-dashoffset:0;stroke-opacity:1"
       id="path1932"
       sodipodi:cx="171.1322"
       sodipodi:cy="273.75754"
       sodipodi:rx="1.0934966"
       sodipodi:ry="1.6402447"
       d="M 172.2257 273.75754 A 1.0934966 1.6402447 0 1 1  170.03871,273.75754 A 1.0934966 1.6402447 0 1 1  172.2257 273.75754 z"
       transform="matrix(-4.427567,0,0,4.427567,951.4539,-978.7841)" />
    <path
       style="color:#000000;fill:#ffffff;fill-opacity:1;fill-rule:nonzero;stroke:#000000;stroke-width:3.87412095;stroke-linecap:round;stroke-linejoin:round;marker:none;marker-start:none;marker-mid:none;marker-end:none;stroke-miterlimit:4;stroke-dashoffset:0;stroke-opacity:1;visibility:visible;display:block"
       d="M 164.4976,466.11308 C 162.70087,472.09849 158.35148,475.67242 153.33806,479.81805 C 154.6605,472.36315 156.14672,467.3278 154.26537,462.37522"
       id="path1933"
       sodipodi:nodetypes="ccc" />
    <path
       style="color:#000000;fill:#4bbe28;fill-opacity:1;fill-rule:nonzero;stroke:#000000;stroke-width:4;stroke-linecap:round;stroke-linejoin:round;marker:none;marker-start:none;marker-mid:none;marker-end:none;stroke-miterlimit:4;stroke-dashoffset:0;stroke-opacity:1;visibility:visible;display:block;stroke-dasharray:none"
       d="M 153.28445,360.66566 C 148.15346,372.14893 145.05511,391.47016 145.65066,396.97759 C 146.23952,402.42287 151.28593,426.38687 157.62955,438.19309 C 160.96897,444.40808 154.93983,453.79357 153.59496,461.59378 C 153.59496,461.59378 163.27804,468.85609 164.89187,464.01455 C 166.50569,459.173 166.50569,454.3315 166.50569,454.3315 C 166.77467,457.55922 166.58433,463.6326 168.11955,465.62841 C 169.27408,467.12927 176.64767,467.80031 177.80263,466.43532 C 179.60637,464.30364 177.66098,453.6601 178.60954,453.52459 C 179.54378,453.39112 178.52606,463.8198 181.03028,465.62841 C 183.36761,467.31646 189.9675,466.57882 189.90645,464.01455 C 189.69852,455.28188 185.47307,435.83069 180.22341,431.73768 C 175.46149,428.02497 163.74788,405.34465 162.47172,400.76402 C 160.98283,395.42005 160.94005,374.75588 163.27785,364.3899"
       id="path1934"
       sodipodi:nodetypes="csssssssssssss" />
    <path
       style="color:#000000;fill:none;fill-opacity:1;fill-rule:nonzero;stroke:#000000;stroke-width:2.76722932;stroke-linecap:round;stroke-linejoin:round;marker:none;marker-start:none;marker-mid:none;marker-end:none;stroke-miterlimit:4;stroke-dashoffset:0;stroke-opacity:1;visibility:visible;display:block"
       d="M 104.18644,358.36879 C 92.351569,339.00266 88.585959,329.31961 89.661853,309.14657"
       id="path1935"
       sodipodi:nodetypes="cc" />
    <path
       style="color:#000000;fill:none;fill-opacity:1;fill-rule:nonzero;stroke:#000000;stroke-width:2.76722932;stroke-linecap:round;stroke-linejoin:round;marker:none;marker-start:none;marker-mid:none;marker-end:none;stroke-miterlimit:4;stroke-dashoffset:0;stroke-opacity:1;visibility:visible;display:block"
       d="M 82.042154,360.34948 C 77.944979,338.0263 77.904911,327.63687 86.148145,309.19348"
       id="path1946"
       sodipodi:nodetypes="cc" />
    <path
       style="color:#000000;fill:none;fill-opacity:1;fill-rule:nonzero;stroke:#000000;stroke-width:2.76722932;stroke-linecap:round;stroke-linejoin:round;marker:none;marker-start:none;marker-mid:none;marker-end:none;stroke-miterlimit:4;stroke-dashoffset:0;stroke-opacity:1;visibility:visible;display:block"
       d="M 60.291853,356.82349 C 61.979198,334.1902 64.570515,324.1291 77.214189,308.37323"
       id="path1947"
       sodipodi:nodetypes="cc" />
    <path
       style="color:#000000;fill:#ff0000;fill-opacity:1;fill-rule:nonzero;stroke:#000000;stroke-width:2.76722932;stroke-linecap:round;stroke-linejoin:round;marker:none;marker-start:none;marker-mid:none;marker-end:none;stroke-miterlimit:4;stroke-dashoffset:0;stroke-opacity:1;visibility:visible;display:block"
       d="M 131.62176,306.72579 C 129.06748,305.18565 131.12174,301.23076 129.20099,300.27043 C 126.2802,298.80999 121.90526,299.07976 121.93872,302.6912 C 122.00272,309.60133 120.06024,310.33778 122.74567,313.98807 C 124.37433,316.20197 127.54765,311.79669 130.81485,313.98811 C 149.6035,326.59026 170.44845,357.89644 184.87858,361.59643 C 191.42841,363.27587 192.9151,340.20218 193.75476,330.12648 C 193.99099,327.29145 189.44473,322.86424 188.10626,322.86424 C 187.02395,322.86424 188.58019,330.72298 186.49244,330.12648 C 169.75203,325.34354 147.35764,316.21358 131.62176,306.72579 z "
       id="path1948"
       sodipodi:nodetypes="csssssssss" />
    <text
       xml:space="preserve"
       style="font-size:14.61131954px;font-style:normal;font-variant:normal;font-weight:bold;font-stretch:normal;line-height:100%;writing-mode:lr-tb;text-anchor:start;fill:#ffffff;fill-opacity:1;stroke:none;stroke-width:1pt;stroke-linecap:butt;stroke-linejoin:miter;stroke-opacity:1;font-family:Bitstream Vera Sans"
       x="-230.30507"
       y="288.3382"
       id="text1949"
       sodipodi:linespacing="100%"
       transform="scale(-0.82502,1.212091)"><tspan
         sodipodi:role="line"
         id="tspan1950"
         x="-230.30507"
         y="288.3382">K</tspan></text>
    <path
       style="color:#000000;fill:#b7be28;fill-opacity:1;fill-rule:nonzero;stroke:none;stroke-width:1.25;stroke-linecap:round;stroke-linejoin:round;marker:none;marker-start:none;marker-mid:none;marker-end:none;stroke-miterlimit:4;stroke-dashoffset:0;stroke-opacity:1;visibility:visible;display:block"
       d="M 220.38317,384.99716 C 212.04496,383.3833 205.32061,383.3833 197.78931,387.41793 C 200.47907,391.18358 203.16882,394.94923 205.85858,398.71488 C 210.70012,394.14228 221.19008,393.60435 230.06621,394.68025 C 226.83849,391.45256 223.61085,388.22484 220.38317,384.99716 z "
       id="path1952"
       sodipodi:nodetypes="ccccc" />
    <path
       style="color:#000000;fill:#b7be28;fill-opacity:1;fill-rule:nonzero;stroke:none;stroke-width:1.25;stroke-linecap:round;stroke-linejoin:round;marker:none;marker-start:none;marker-mid:none;marker-end:none;stroke-miterlimit:4;stroke-dashoffset:0;stroke-opacity:1;visibility:visible;display:block"
       d="M 243.75359,410.11239 C 238.32755,407.4065 229.7831,407.4065 219.70362,411.80509 C 222.39338,415.57074 223.62703,417.88032 224.49664,422.374 C 233.34247,418.52948 242.37635,418.35555 248.34028,419.79548 C 246.9327,415.47572 246.98127,413.34011 243.75359,410.11239 z "
       id="path1953"
       sodipodi:nodetypes="ccccc" />
    <path
       style="color:#000000;fill:#b7be28;fill-opacity:1;fill-rule:nonzero;stroke:none;stroke-width:1.25;stroke-linecap:round;stroke-linejoin:round;marker:none;marker-start:none;marker-mid:none;marker-end:none;stroke-miterlimit:4;stroke-dashoffset:0;stroke-opacity:1;visibility:visible;display:block"
       d="M 249.8934,437.54775 C 245.92348,434.84182 239.19917,434.47778 226.20748,437.78434 C 227.80516,442.27806 228.67481,446.40775 228.45235,451.26543 C 240.93839,444.87272 246.69607,445.42687 250.11185,447.23084 C 250.88838,443.27504 252.02902,441.5035 249.8934,437.54775 z "
       id="path1954"
       sodipodi:nodetypes="ccccc" />
    <path
       style="color:#000000;fill:#b7be28;fill-opacity:1;fill-rule:nonzero;stroke:none;stroke-width:1.25;stroke-linecap:round;stroke-linejoin:round;marker:none;marker-start:none;marker-mid:none;marker-end:none;stroke-miterlimit:4;stroke-dashoffset:0;stroke-opacity:1;visibility:visible;display:block"
       d="M 241.74534,465.34711 C 233.77113,465.55339 230.68707,466.28138 224.24784,466.67577 C 224.38946,470.07742 222.71085,470.93085 222.48843,475.42454 C 228.05805,475.22026 231.26751,475.41037 236.50335,473.21005 C 238.00803,470.7104 241.69681,468.21075 241.74534,465.34711 z "
       id="path1955"
       sodipodi:nodetypes="ccccc" />
    <path
       style="color:#000000;fill:#b7be28;fill-opacity:1;fill-rule:nonzero;stroke:none;stroke-width:1.25;stroke-linecap:round;stroke-linejoin:round;marker:none;marker-start:none;marker-mid:none;marker-end:none;stroke-miterlimit:4;stroke-dashoffset:0;stroke-opacity:1;visibility:visible;display:block"
       d="M 193.75476,366.53862 C 188.32872,364.56076 187.06477,364.19672 179.53351,368.23132 C 182.22323,371.99697 186.00505,373.94255 188.69481,377.7082 C 196.81256,373.49964 194.56167,375.14581 203.4378,376.22171 C 200.21008,372.99402 196.98244,369.76634 193.75476,366.53862 z "
       id="path1956"
       sodipodi:nodetypes="ccccc" />
    <path
       style="color:#000000;fill:none;fill-opacity:1;fill-rule:nonzero;stroke:#000000;stroke-width:4.91994762;stroke-linecap:round;stroke-linejoin:round;marker:none;marker-start:none;marker-mid:none;marker-end:none;stroke-miterlimit:4;stroke-dashoffset:0;stroke-opacity:1;visibility:visible;display:block"
       d="M 189.16578,189.86846 C 179.89912,188.4053 170.63246,195.23336 170.14476,203.03685"
       id="path2696"
       sodipodi:nodetypes="cc" />
    <path
       style="color:#000000;fill:none;fill-opacity:1;fill-rule:nonzero;stroke:#000000;stroke-width:4.91994762;stroke-linecap:round;stroke-linejoin:round;marker:none;marker-start:none;marker-mid:none;marker-end:none;stroke-miterlimit:4;stroke-dashoffset:0;stroke-opacity:1;visibility:visible;display:block"
       d="M 216.47799,205.96316 C 224.2815,207.42632 229.15866,212.79122 231.10956,219.13156"
       id="path2697"
       sodipodi:nodetypes="cc" />
    <path
       style="fill:#ffffff;fill-opacity:1;fill-rule:evenodd;stroke:#000000;stroke-width:2.82747364;stroke-linecap:butt;stroke-linejoin:miter;stroke-miterlimit:4;stroke-dasharray:none;stroke-opacity:1"
       d="M 207.35891,18.446595 C 43.733655,18.544875 16.684065,18.317625 15.179895,60.741024 C 13.950465,95.415988 39.929995,101.41135 48.168515,105.43369 C 50.279365,111.77487 180.60198,119.14779 186.08396,118.4659 C 198.06651,116.97543 194.82617,134.42957 199.31121,157.74058 C 218.90651,136.16148 202.06873,116.87975 246.10015,116.44492 C 352.16474,115.41667 389.66358,109.04116 393.45047,70.539862 C 398.09219,23.347412 357.03306,18.355612 207.35891,18.446595 z "
       id="path6885"
       sodipodi:nodetypes="cscscsss" />
    <text
       xml:space="preserve"
       style="font-size:25.65709686px;font-style:normal;font-variant:normal;font-weight:normal;font-stretch:normal;text-align:center;line-height:125%;writing-mode:lr-tb;text-anchor:middle;fill:#000000;fill-opacity:1;stroke:none;stroke-width:1px;stroke-linecap:butt;stroke-linejoin:miter;stroke-opacity:1;font-family:Bitstream Vera Sans"
       x="202.94305"
       y="57.085739"
       id="text6865"
       sodipodi:linespacing="125%"><tspan
         sodipodi:role="line"
         x="202.94305"
         y="57.085739"
         id="tspan11957">Pourquoi dit-on que</tspan><tspan
         sodipodi:role="line"
         x="202.94306"
         y="89.15711"
         id="tspan15671">les murs ont des oreilles ?</tspan></text>
    <path
       style="fill:#ffffff;fill-opacity:1;fill-rule:evenodd;stroke:#000000;stroke-width:3.2370615;stroke-linecap:butt;stroke-linejoin:miter;stroke-miterlimit:4;stroke-dasharray:none;stroke-opacity:1"
       d="M 484.04784,119.94679 C 359.09766,120.06631 334.7633,123.51006 329.93639,166.41799 C 325.22215,208.32416 347.54568,227.49139 353.83691,232.38267 C 355.44882,240.09375 352.82029,243.65675 338.24071,258.28104 C 355.83061,258.73084 374.16116,240.95889 395.32846,242.6221 C 442.8198,244.63458 471.36068,246.30143 504.98467,245.77268 C 585.97942,244.52229 631.74708,241.70927 634.00569,197.53417 C 637.60543,127.12857 598.3444,119.83615 484.04784,119.94679 z "
       id="path4179"
       sodipodi:nodetypes="cscccsss" />
    <text
       xml:space="preserve"
       style="font-size:25.65709686px;font-style:normal;font-variant:normal;font-weight:normal;font-stretch:normal;text-align:center;line-height:125%;writing-mode:lr-tb;text-anchor:middle;fill:#000000;fill-opacity:1;stroke:none;stroke-width:1px;stroke-linecap:butt;stroke-linejoin:miter;stroke-opacity:1;font-family:Bitstream Vera Sans"
       x="479.3446"
       y="160.27449"
       id="text4181"
       sodipodi:linespacing="125%"><tspan
         sodipodi:role="line"
         x="479.3446"
         y="160.27449"
         id="tspan11967">Alors que ce sont</tspan><tspan
         sodipodi:role="line"
         x="479.34461"
         y="192.34586"
         id="tspan15678">les DRM qui</tspan><tspan
         sodipodi:role="line"
         x="479.3446"
         y="224.41723"
         id="tspan15680">nous écoutent ?</tspan></text>
  </g>
</svg>
