<?xml version="1.0" encoding="UTF-8" standalone="no"?>
<!-- Created with Inkscape (http://www.inkscape.org/) -->
<svg
   xmlns:dc="http://purl.org/dc/elements/1.1/"
   xmlns:cc="http://web.resource.org/cc/"
   xmlns:rdf="http://www.w3.org/1999/02/22-rdf-syntax-ns#"
   xmlns:svg="http://www.w3.org/2000/svg"
   xmlns="http://www.w3.org/2000/svg"
   xmlns:sodipodi="http://inkscape.sourceforge.net/DTD/sodipodi-0.dtd"
   xmlns:inkscape="http://www.inkscape.org/namespaces/inkscape"
   width="640px"
   height="480px"
   id="svg3243"
   sodipodi:version="0.32"
   inkscape:version="0.43"
   sodipodi:docbase="/home/partage/documents/nojhan"
   sodipodi:docname="geekscottes_DRM3.svg"
   inkscape:export-filename="/home/partage/documents/nojhan/geekscottes_DRM3.png"
   inkscape:export-xdpi="90"
   inkscape:export-ydpi="90">
  <defs
     id="defs3245" />
  <sodipodi:namedview
     id="base"
     pagecolor="#ffffff"
     bordercolor="#666666"
     borderopacity="1.0"
     inkscape:pageopacity="0.0"
     inkscape:pageshadow="2"
     inkscape:zoom="0.88029212"
     inkscape:cx="442.23116"
     inkscape:cy="201.09755"
     inkscape:current-layer="layer1"
     inkscape:document-units="px"
     inkscape:window-width="985"
     inkscape:window-height="692"
     inkscape:window-x="31"
     inkscape:window-y="47" />
  <metadata
     id="metadata3248">
    <rdf:RDF>
      <cc:Work
         rdf:about="">
        <dc:format>image/svg+xml</dc:format>
        <dc:type
           rdf:resource="http://purl.org/dc/dcmitype/StillImage" />
        <dc:title>Liberté masturbatoire</dc:title>
        <dc:date>2006-10-10</dc:date>
        <dc:creator>
          <cc:Agent>
            <dc:title>Johann &quot;nojhan&quot; Dréo</dc:title>
          </cc:Agent>
        </dc:creator>
        <dc:language>fr-FR</dc:language>
        <cc:license
           rdf:resource="http://creativecommons.org/licenses/by-sa/2.0/" />
      </cc:Work>
      <cc:License
         rdf:about="http://creativecommons.org/licenses/by-sa/2.0/">
        <cc:permits
           rdf:resource="http://web.resource.org/cc/Reproduction" />
        <cc:permits
           rdf:resource="http://web.resource.org/cc/Distribution" />
        <cc:requires
           rdf:resource="http://web.resource.org/cc/Notice" />
        <cc:requires
           rdf:resource="http://web.resource.org/cc/Attribution" />
        <cc:permits
           rdf:resource="http://web.resource.org/cc/DerivativeWorks" />
        <cc:requires
           rdf:resource="http://web.resource.org/cc/ShareAlike" />
      </cc:License>
    </rdf:RDF>
  </metadata>
  <g
     id="layer1"
     inkscape:label="Layer 1"
     inkscape:groupmode="layer">
    <path
       style="fill:#ffffff;fill-opacity:1;fill-rule:evenodd;stroke:#000000;stroke-width:3;stroke-linecap:butt;stroke-linejoin:miter;stroke-miterlimit:4;stroke-dasharray:none;stroke-opacity:1"
       d="M 466.11327,4.7791447 C 330.45106,4.9125915 304.03053,8.7578592 298.78979,56.668228 C 293.6714,103.46008 319.31017,111.89053 326.14075,117.35208 C 327.89085,125.96215 323.85769,127.25993 305.22532,134.9416 C 338.33758,134.00257 348.20741,126.92816 371.18939,128.78527 C 422.75217,131.03238 453.73988,132.89358 490.24647,132.30317 C 578.18492,130.907 637.31054,124.67694 635.04564,76.89618 C 631.17661,-1.7210718 590.20853,4.6556094 466.11327,4.7791447 z "
       id="path6885"
       sodipodi:nodetypes="cscccsss" />
    <g
       inkscape:label="Layer 1"
       id="g5243"
       transform="matrix(0.801784,0,0,0.801784,592.1696,-238.0654)" />
    <g
       id="layer2"
       inkscape:label="vetements"
       transform="matrix(0.801784,0,0,0.801784,592.1696,-238.0654)" />
    <text
       xml:space="preserve"
       style="font-size:25.65709686px;font-style:normal;font-variant:normal;font-weight:normal;font-stretch:normal;text-align:center;line-height:125%;writing-mode:lr-tb;text-anchor:middle;fill:#000000;fill-opacity:1;stroke:none;stroke-width:1px;stroke-linecap:butt;stroke-linejoin:miter;stroke-opacity:1;font-family:Bitstream Vera Sans"
       x="467.88489"
       y="44.279293"
       id="text6865"
       sodipodi:linespacing="125%"><tspan
         sodipodi:role="line"
         x="467.8849"
         y="44.279293"
         id="tspan6883">Si la liberté culturelle</tspan><tspan
         sodipodi:role="line"
         x="467.88489"
         y="76.350664"
         id="tspan4171">c'est de la masturbation</tspan><tspan
         sodipodi:role="line"
         x="467.88489"
         y="108.42204"
         id="tspan4173">intellectuelle...</tspan></text>
    <path
       style="color:#000000;fill:#8970a8;fill-opacity:1;fill-rule:nonzero;stroke:#000000;stroke-width:4.91829967;stroke-linecap:round;stroke-linejoin:round;marker:none;marker-start:none;marker-mid:none;marker-end:none;stroke-miterlimit:4;stroke-dashoffset:0;stroke-opacity:1;visibility:visible;display:block"
       d="M 223.66638,269.50104 C 201.11563,289.37029 170.94228,328.6189 173.75531,356.06867 C 176.82942,386.0662 226.30926,422.70876 239.97767,452.90918 C 243.72428,461.1873 241.52224,469.90543 241.61844,476.35 L 251.08952,476.35 C 258.2537,469.76183 265.7593,460.57247 266.03566,452.23267 C 267.01842,422.57723 244.93212,368.20837 241.18035,355.89329 C 238.13316,345.89091 234.96431,310.26761 231.58399,289.19486 L 223.66638,269.50104 z "
       id="path1335"
       sodipodi:nodetypes="cssccsscc" />
    <path
       style="color:#000000;fill:#8970a8;fill-opacity:1;fill-rule:nonzero;stroke:#000000;stroke-width:4.91829967;stroke-linecap:butt;stroke-linejoin:round;marker:none;marker-start:none;marker-mid:none;marker-end:none;stroke-miterlimit:4;stroke-dashoffset:0;stroke-opacity:1;visibility:visible;display:block"
       d="M 265.33411,480.06963 C 254.35429,436.7126 232.40512,340.61998 233.41307,299.09188 C 234.46775,255.63958 267.15391,212.20235 272.04905,169.4534 C 276.56483,130.01713 260.42735,66.24417 210.96311,56.000926 C 199.04261,53.532376 188.43003,52.453468 178.9168,52.518175 C 178.6897,52.51972 178.46613,52.515328 178.24029,52.518175 C 120.64911,53.244294 97.837757,93.95758 78.819036,127.05905 C 55.124996,168.29776 28.26322,248.62171 20.238675,299.09188 C 12.571669,347.31322 12.177023,429.98975 10.968044,480.06963"
       id="path1080"
       sodipodi:nodetypes="csssscssc" />
    <path
       style="color:#000000;fill:#fbebff;fill-opacity:1;fill-rule:nonzero;stroke:none;stroke-width:1.25;stroke-linecap:round;stroke-linejoin:round;marker:none;marker-start:none;marker-mid:none;marker-end:none;stroke-miterlimit:4;stroke-dashoffset:0;stroke-opacity:1;visibility:visible;display:block"
       d="M 191.34445,241.61398 C 95.502656,241.70329 96.328966,416.88209 98.763416,480.06963 L 264.23165,480.06963 C 253.3129,437.05076 231.49927,342.07936 230.9075,300.34467 C 230.71559,286.81052 237.77083,244.11227 196.00482,241.76431 C 194.42841,241.67569 192.87142,241.61255 191.34445,241.61398 z "
       id="path1702" />
    <path
       style="color:#000000;fill:#ff8000;fill-opacity:1;fill-rule:nonzero;stroke:#000000;stroke-width:7.54458046;stroke-linecap:round;stroke-linejoin:round;marker:none;marker-start:none;marker-mid:none;marker-end:none;stroke-miterlimit:4;stroke-dashoffset:0;stroke-opacity:1;visibility:visible;display:block"
       d="M 221.20486,193.05618 C 242.23782,204.19141 267.70677,225.55639 274.61181,256.04359 C 248.78602,251.991 223.96147,240.3552 198.13571,236.30259"
       id="path1703"
       sodipodi:nodetypes="ccc" />
    <path
       sodipodi:type="arc"
       style="fill:#ffffff;fill-opacity:1;stroke:#000000;stroke-width:5;stroke-linecap:round;stroke-linejoin:round;stroke-miterlimit:4;stroke-dasharray:none;stroke-dashoffset:0;stroke-opacity:1"
       id="path3276"
       sodipodi:cx="139.72635"
       sodipodi:cy="149.99591"
       sodipodi:rx="21.583744"
       sodipodi:ry="32.375618"
       d="M 161.31009 149.99591 A 21.583744 32.375618 0 1 1  118.1426,149.99591 A 21.583744 32.375618 0 1 1  161.31009 149.99591 z"
       transform="translate(107.9187,2.567994)" />
    <path
       sodipodi:type="arc"
       style="fill:#000000;fill-opacity:1;fill-rule:nonzero;stroke:#04094e;stroke-width:1.25;stroke-linecap:round;stroke-linejoin:round;stroke-miterlimit:4;stroke-dashoffset:0;stroke-opacity:1"
       id="path1709"
       sodipodi:cx="105.34409"
       sodipodi:cy="101.60275"
       sodipodi:rx="1.1088852"
       sodipodi:ry="1.1088852"
       d="M 106.45298 101.60275 A 1.1088852 1.1088852 0 1 1  104.23521,101.60275 A 1.1088852 1.1088852 0 1 1  106.45298 101.60275 z"
       transform="matrix(-3.93464,0,0,3.93464,651.4247,-242.6231)" />
    <path
       id="path1711"
       style="color:#000000;fill:none;fill-opacity:1;fill-rule:nonzero;stroke:#000000;stroke-width:4.91829967;stroke-linecap:round;stroke-linejoin:round;marker:none;marker-start:none;marker-mid:none;marker-end:none;stroke-miterlimit:4;stroke-dashoffset:0;stroke-opacity:1;visibility:visible;display:block"
       d="M 202.24111,54.764837 C 204.31875,46.454253 206.39641,40.636852 212.21382,34.819405 M 196.00817,54.764837 C 196.83925,41.467886 202.65665,30.664109 213.46042,18.613764 M 184.78886,53.51827 C 186.45097,48.531895 185.61989,41.052383 191.02179,33.57283"
       sodipodi:nodetypes="cccccc" />
    <path
       style="color:#000000;fill:#8970a8;fill-opacity:1;fill-rule:nonzero;stroke:#000000;stroke-width:4.91829967;stroke-linecap:round;stroke-linejoin:round;marker:none;marker-start:none;marker-mid:none;marker-end:none;stroke-miterlimit:4;stroke-dashoffset:0;stroke-opacity:1;visibility:visible;display:block"
       d="M 34.134269,295.73689 C 24.580521,324.23336 18.143918,373.3161 34.337241,395.65844 C 52.033526,420.07446 113.21317,426.98635 140.17846,446.26756 C 149.8448,453.17934 152.44082,472.4098 157.3386,472.28241 C 163.03124,472.13428 173.38615,446.03152 167.57427,435.18547 C 153.55986,409.03195 95.653796,372.31767 92.588506,361.71438 C 89.684646,351.66947 101.55604,318.9934 115.56985,299.27602"
       id="path1718"
       sodipodi:nodetypes="cssssss" />
    <path
       sodipodi:type="arc"
       style="fill:#ffffff;fill-opacity:1;stroke:#000000;stroke-width:5;stroke-linecap:round;stroke-linejoin:round;stroke-miterlimit:4;stroke-dasharray:none;stroke-dashoffset:0;stroke-opacity:1"
       id="path3274"
       sodipodi:cx="139.72635"
       sodipodi:cy="149.99591"
       sodipodi:rx="21.583744"
       sodipodi:ry="32.375618"
       d="M 161.31009 149.99591 A 21.583744 32.375618 0 1 1  118.1426,149.99591 A 21.583744 32.375618 0 1 1  161.31009 149.99591 z"
       transform="translate(54.52735,3.135986)" />
    <path
       sodipodi:type="arc"
       style="fill:#000000;fill-opacity:1;fill-rule:nonzero;stroke:#04094e;stroke-width:1.25;stroke-linecap:round;stroke-linejoin:round;stroke-miterlimit:4;stroke-dashoffset:0;stroke-opacity:1"
       id="path1710"
       sodipodi:cx="105.34409"
       sodipodi:cy="101.60275"
       sodipodi:rx="1.1088852"
       sodipodi:ry="1.1088852"
       d="M 106.45298 101.60275 A 1.1088852 1.1088852 0 1 1  104.23521,101.60275 A 1.1088852 1.1088852 0 1 1  106.45298 101.60275 z"
       transform="matrix(-3.93464,0,0,3.93464,597.0523,-242.3975)" />
    <path
       style="fill:#ffffff;fill-opacity:1;fill-rule:evenodd;stroke:#000000;stroke-width:3;stroke-linecap:butt;stroke-linejoin:miter;stroke-miterlimit:4;stroke-dasharray:none;stroke-opacity:1"
       d="M 470.95226,300.03827 C 340.27107,299.94012 314.82059,297.112 309.77228,261.87476 C 304.84182,227.46018 329.53923,221.25973 336.11901,217.24286 C 337.80486,210.9103 335.05577,196.32397 317.10751,190.67423 C 349.00402,191.36487 357.37546,210.19982 379.51363,208.83394 C 429.18322,207.18123 459.03317,205.81236 494.19937,206.24659 C 578.90905,207.27345 626.7759,209.58358 629.1381,245.86147 C 632.90295,303.68062 590.49118,300.12913 470.95226,300.03827 z "
       id="path4179"
       sodipodi:nodetypes="cscccsss" />
    <text
       xml:space="preserve"
       style="font-size:25.65709686px;font-style:normal;font-variant:normal;font-weight:normal;font-stretch:normal;text-align:center;line-height:125%;writing-mode:lr-tb;text-anchor:middle;fill:#000000;fill-opacity:1;stroke:none;stroke-width:1px;stroke-linecap:butt;stroke-linejoin:miter;stroke-opacity:1;font-family:Bitstream Vera Sans"
       x="473.2735"
       y="244.34644"
       id="text4181"
       sodipodi:linespacing="125%"><tspan
         sodipodi:role="line"
         x="473.2735"
         y="244.34644"
         id="tspan4632">... on est pas près</tspan><tspan
         sodipodi:role="line"
         x="473.2735"
         y="276.41781"
         id="tspan4642">d'avoir un orgasme.</tspan></text>
  </g>
</svg>
