<svg xmlns="http://www.w3.org/2000/svg" width="32" height="32" viewBox="0 0 32 32"><path d="M23.996 12v-4c0-5.523-3.996-8-7.996-8h-8.004c-3.996 0-7.996 2.125-7.996 8 0 5.75 4 8 7.996 8h.93c-.566 1.1-.93 2.406-.93 4v4c0 4.418 3.586 8 8.004 8 0-2.211 1.793-4 4-4h3.996c4.004 0 8.004-2.25 8.004-8 0-5.875-4-8-8.004-8zm-16 0c-3.996 0-3.996-3.012-3.996-4 0-1.199 0-4 3.996-4h8.004c1.496 0 4 .52 4 4v4c0 1.307-.629 2.471-1.609 3.201-1.461-1.943-3.782-3.201-6.391-3.201h-4.004zm16 12h-3.996c-2.613 0-4.938 1.258-6.398 3.199-.973-.73-1.602-1.894-1.602-3.199v-4c0-1.83.91-2.941 1.816-3.512 1.282.668 2.184 1.969 2.184 3.512 2.957 0 5.508-1.621 6.895-4.004l-.004.002 1.105.002c4.004 0 4.004 2.803 4.004 4 0 .992 0 4-4.004 4zm-.277-10.006l-.086.271.086-.271z" fill="#4E4E50"/></svg>