<svg xmlns="http://www.w3.org/2000/svg" width="32" height="32" viewBox="0 0 32 32"><g><path d="M18.023 13.975h5.789c-.734-2.836-2.953-5.057-5.789-5.789v5.789zM18.023 18.025v5.787c2.836-.73 5.055-2.953 5.789-5.787h-5.789zM13.973 13.975v-5.789c-2.836.732-5.059 2.953-5.789 5.789h5.789zM13.973 18.025h-5.789c.73 2.834 2.953 5.057 5.789 5.787v-5.787z" fill="#4E4E50"/><g fill="#4E4E50"><path d="M18.023 4.053c5.074.859 9.062 4.848 9.922 9.922h4.055c-.926-7.311-6.664-13.051-13.977-13.975v4.053zM4.051 13.975c.859-5.075 4.847-9.063 9.922-9.922v-4.053c-7.309.924-13.051 6.664-13.973 13.975h4.051zM13.973 27.945c-5.074-.859-9.062-4.844-9.922-9.92h-4.051c.922 7.311 6.664 13.053 13.973 13.975v-4.055zM27.945 18.025c-.859 5.076-4.848 9.061-9.922 9.92v4.055c7.313-.922 13.051-6.664 13.977-13.975h-4.055z"/></g></g></svg>